<mxfile host="65bd71144e">
    <diagram name="Page-1" id="SXbUGkXw7pO6rkUO_xLt">
        <mxGraphModel dx="1431" dy="816" grid="1" gridSize="10" guides="1" tooltips="1" connect="1" arrows="1" fold="1" page="1" pageScale="1" pageWidth="1100" pageHeight="850" math="0" shadow="0">
            <root>
                <mxCell id="0"/>
                <mxCell id="1" parent="0"/>
                <mxCell id="cCzQiWLscpy1HMy9sU5u-3" value="&lt;font style=&quot;font-size: 18px;&quot;&gt;OO Design Patterns&lt;/font&gt;" style="text;html=1;strokeColor=none;fillColor=none;align=center;verticalAlign=middle;whiteSpace=wrap;rounded=0;" parent="1" vertex="1">
                    <mxGeometry x="370" y="390" width="180" height="30" as="geometry"/>
                </mxCell>
                <mxCell id="cCzQiWLscpy1HMy9sU5u-4" value="&lt;font style=&quot;font-size: 18px;&quot;&gt;OO Principles&lt;/font&gt;" style="text;html=1;strokeColor=none;fillColor=none;align=center;verticalAlign=middle;whiteSpace=wrap;rounded=0;" parent="1" vertex="1">
                    <mxGeometry x="370" y="320" width="180" height="30" as="geometry"/>
                </mxCell>
                <mxCell id="cCzQiWLscpy1HMy9sU5u-5" value="&lt;font style=&quot;font-size: 18px;&quot;&gt;OO Concepts&lt;/font&gt;" style="text;html=1;strokeColor=none;fillColor=none;align=center;verticalAlign=middle;whiteSpace=wrap;rounded=0;" parent="1" vertex="1">
                    <mxGeometry x="370" y="250" width="180" height="30" as="geometry"/>
                </mxCell>
                <mxCell id="cCzQiWLscpy1HMy9sU5u-8" value="" style="endArrow=none;html=1;rounded=0;" parent="1" edge="1">
                    <mxGeometry width="50" height="50" relative="1" as="geometry">
                        <mxPoint x="190" y="440" as="sourcePoint"/>
                        <mxPoint x="460" y="70" as="targetPoint"/>
                    </mxGeometry>
                </mxCell>
                <mxCell id="cCzQiWLscpy1HMy9sU5u-9" value="" style="endArrow=none;html=1;rounded=0;" parent="1" edge="1">
                    <mxGeometry width="50" height="50" relative="1" as="geometry">
                        <mxPoint x="460" y="70" as="sourcePoint"/>
                        <mxPoint x="720" y="440" as="targetPoint"/>
                        <Array as="points">
                            <mxPoint x="660" y="355"/>
                        </Array>
                    </mxGeometry>
                </mxCell>
                <mxCell id="cCzQiWLscpy1HMy9sU5u-13" value="" style="endArrow=none;html=1;rounded=0;" parent="1" edge="1">
                    <mxGeometry width="50" height="50" relative="1" as="geometry">
                        <mxPoint x="190" y="440" as="sourcePoint"/>
                        <mxPoint x="720" y="440" as="targetPoint"/>
                    </mxGeometry>
                </mxCell>
                <mxCell id="cCzQiWLscpy1HMy9sU5u-14" value="" style="endArrow=none;html=1;rounded=0;" parent="1" edge="1">
                    <mxGeometry width="50" height="50" relative="1" as="geometry">
                        <mxPoint x="250" y="360" as="sourcePoint"/>
                        <mxPoint x="660" y="360" as="targetPoint"/>
                    </mxGeometry>
                </mxCell>
                <mxCell id="cCzQiWLscpy1HMy9sU5u-15" value="" style="endArrow=none;html=1;rounded=0;" parent="1" edge="1">
                    <mxGeometry width="50" height="50" relative="1" as="geometry">
                        <mxPoint x="290" y="300" as="sourcePoint"/>
                        <mxPoint x="630" y="300" as="targetPoint"/>
                    </mxGeometry>
                </mxCell>
                <mxCell id="cCzQiWLscpy1HMy9sU5u-16" value="" style="endArrow=none;html=1;rounded=0;" parent="1" edge="1">
                    <mxGeometry width="50" height="50" relative="1" as="geometry">
                        <mxPoint x="330" y="230" as="sourcePoint"/>
                        <mxPoint x="590" y="230" as="targetPoint"/>
                    </mxGeometry>
                </mxCell>
                <mxCell id="cCzQiWLscpy1HMy9sU5u-18" value="" style="curved=1;endArrow=classic;html=1;rounded=0;" parent="1" edge="1">
                    <mxGeometry width="50" height="50" relative="1" as="geometry">
                        <mxPoint x="530" y="170" as="sourcePoint"/>
                        <mxPoint x="860" y="120" as="targetPoint"/>
                        <Array as="points">
                            <mxPoint x="580" y="170"/>
                            <mxPoint x="530" y="120"/>
                        </Array>
                    </mxGeometry>
                </mxCell>
                <mxCell id="cCzQiWLscpy1HMy9sU5u-19" value="is away&amp;nbsp; of viewing thinking ..." style="rounded=1;whiteSpace=wrap;html=1;" parent="1" vertex="1">
                    <mxGeometry x="860" y="90" width="120" height="60" as="geometry"/>
                </mxCell>
                <mxCell id="cCzQiWLscpy1HMy9sU5u-21" value="OOA, OOD, OOP" style="rounded=1;whiteSpace=wrap;html=1;" parent="1" vertex="1">
                    <mxGeometry x="130" y="50" width="120" height="60" as="geometry"/>
                </mxCell>
                <mxCell id="cCzQiWLscpy1HMy9sU5u-22" value="OO Pradigm" style="rounded=1;whiteSpace=wrap;html=1;fillColor=#fff2cc;strokeColor=#d6b656;" parent="1" vertex="1">
                    <mxGeometry x="400" y="170" width="120" height="40" as="geometry"/>
                </mxCell>
                <mxCell id="cCzQiWLscpy1HMy9sU5u-23" value="" style="rounded=1;whiteSpace=wrap;html=1;fillColor=none;" parent="1" vertex="1">
                    <mxGeometry x="385" y="245" width="150" height="40" as="geometry"/>
                </mxCell>
                <mxCell id="cCzQiWLscpy1HMy9sU5u-24" value="" style="rounded=1;whiteSpace=wrap;html=1;fillColor=none;" parent="1" vertex="1">
                    <mxGeometry x="390" y="310" width="140" height="40" as="geometry"/>
                </mxCell>
                <mxCell id="cCzQiWLscpy1HMy9sU5u-25" value="" style="rounded=1;whiteSpace=wrap;html=1;fillColor=none;" parent="1" vertex="1">
                    <mxGeometry x="370" y="390" width="200" height="40" as="geometry"/>
                </mxCell>
                <mxCell id="cCzQiWLscpy1HMy9sU5u-26" value="" style="shape=stencil(fZbdcgIhDIWfZm8zQAg/17Z9j85U606tdqz9e/tmZ0c0uJ47xP0I5JwEBl59bp8/1kNwn6fj4W39M76ctgM/DCGM++36OJ50NPDjwKvN4bh+PR6+9i/z74/n6ctp9H74nlb4nbmSKZeJCu5vngmZ6jzzNAO7cX8FVKEsBuBKrgKg9oAE8gkCbLeUhEoEQKSUDZDLeWYRKIl8MEDRmHwfyBrBG6Amyu4+kDxxMoB3jhwgYu7TVAsVkFcWCs4CTBEoF4RctKeOxHIf8IXYpikHikAIf+MNUW94AGSSaoAoFIE3AlOyeWU+p2E5S9yfQZcQILVuQOwZdJNoS9Ls3wA5u2XZTIHECqeJ9kDpSaauRiNVcAY1QhdBzeLBli5WazpkSsBLV25uRaqWRyFawTQzRRIQYirJzq5atkBqLfouwqUxLBepthWb10vrWZY6UOAeyKCCtDV625mm9gmUC4Wc3VLJMMIE1BsA2FW9JraVlQB7n3c9oMKhCLEvIM1zBPZ25/umNQ1tVEC2G+fFCC8g398O2hNQuQlVu752DBfA+q0ptnqO5JFmeuIuo9DY7KjY71UxdJV4EntifPWorW++R/dC4t7V3DlIB5cHx2bc7eb3yvX//QNFp+bHDT/+Aw==);lineShape=1;strokeColor=default;" parent="1" vertex="1">
                    <mxGeometry x="844.8532762616048" y="277.41702062448303" width="5.191710857906047" height="5.183595795952998" as="geometry"/>
                </mxCell>
                <mxCell id="2" value="&lt;div style=&quot;color: rgb(204, 204, 204); background-color: rgb(31, 31, 31); font-family: &amp;quot;Droid Sans Mono&amp;quot;, &amp;quot;monospace&amp;quot;, monospace; font-weight: normal; font-size: 14px; line-height: 19px;&quot;&gt;&lt;div&gt;&lt;span style=&quot;color: #6a9955;&quot;&gt;/*&lt;/span&gt;&lt;/div&gt;&lt;div&gt;&lt;span style=&quot;color: #6a9955;&quot;&gt;Notes :&lt;/span&gt;&lt;/div&gt;&lt;br&gt;&lt;div&gt;&lt;span style=&quot;color: #6a9955;&quot;&gt;Definition:&lt;/span&gt;&lt;/div&gt;&lt;div&gt;&lt;span style=&quot;color: #6a9955;&quot;&gt;  Encapsulation is a process of combining data members and functions &lt;/span&gt;&lt;/div&gt;&lt;div&gt;&lt;span style=&quot;color: #6a9955;&quot;&gt;  in a single unit called class&lt;/span&gt;&lt;/div&gt;&lt;br&gt;&lt;div&gt;&lt;span style=&quot;color: #6a9955;&quot;&gt;1- public &amp;amp; private &lt;/span&gt;&lt;/div&gt;&lt;div&gt;&lt;span style=&quot;color: #6a9955;&quot;&gt;2- default constructor &lt;/span&gt;&lt;/div&gt;&lt;div&gt;&lt;span style=&quot;color: #6a9955;&quot;&gt;5- overloading function&lt;/span&gt;&lt;/div&gt;&lt;div&gt;&lt;span style=&quot;color: #6a9955;&quot;&gt;3- paramterized constructor (default constructor that doesn't take values)&lt;/span&gt;&lt;/div&gt;&lt;div&gt;&lt;span style=&quot;color: #6a9955;&quot;&gt;4- destructor (doesn't take values, &lt;/span&gt;&lt;/div&gt;&lt;div&gt;&lt;span style=&quot;color: #6a9955;&quot;&gt;                and just one destructor,&lt;/span&gt;&lt;/div&gt;&lt;div&gt;&lt;span style=&quot;color: #6a9955;&quot;&gt;                you can call the  destructor)&lt;/span&gt;&lt;/div&gt;&lt;div&gt;&lt;span style=&quot;color: #6a9955;&quot;&gt;6- function with object&lt;/span&gt;&lt;/div&gt;&lt;div&gt;&lt;span style=&quot;color: #6a9955;&quot;&gt;7- friend function  (friend FunName (className Name);)&lt;/span&gt;&lt;/div&gt;&lt;div&gt;&lt;span style=&quot;color: #6a9955;&quot;&gt;  usage: enable you use private attributes from multiple classes&lt;/span&gt;&lt;/div&gt;&lt;br&gt;&lt;br&gt;&lt;div&gt;&lt;span style=&quot;color: #6a9955;&quot;&gt; * declared private here string name;  // this can be getter and setter&lt;/span&gt;&lt;/div&gt;&lt;div&gt;&lt;span style=&quot;color: #6a9955;&quot;&gt;  * overloading function: same function with differnt arguments &lt;/span&gt;&lt;/div&gt;&lt;div&gt;&lt;span style=&quot;color: #6a9955;&quot;&gt;*/&lt;/span&gt;&lt;/div&gt;&lt;/div&gt;" style="text;whiteSpace=wrap;html=1;" parent="1" vertex="1">
                    <mxGeometry x="790" y="180" width="560" height="520" as="geometry"/>
                </mxCell>
                <mxCell id="3" value="&lt;a href=&quot;https://tallyfy.com/uml-diagram/&quot;&gt;All You Need to Know About UML Diagrams: Types and 5+ Examples (tallyfy.com)&lt;/a&gt;" style="text;html=1;align=center;verticalAlign=middle;resizable=0;points=[];autosize=1;strokeColor=none;fillColor=none;" parent="1" vertex="1">
                    <mxGeometry x="130" y="480" width="460" height="30" as="geometry"/>
                </mxCell>
                <mxCell id="4" value="&lt;a href=&quot;https://creately.com/blog/diagrams/uml-diagram-types-examples/&quot;&gt;UML Diagram Types | Learn About All 14 Types of UML Diagrams (creately.com)&lt;/a&gt;" style="text;html=1;align=center;verticalAlign=middle;resizable=0;points=[];autosize=1;strokeColor=none;fillColor=none;" parent="1" vertex="1">
                    <mxGeometry x="117.71" y="450" width="450" height="30" as="geometry"/>
                </mxCell>
                <mxCell id="5" value="&lt;h1&gt;class relationlation ships&lt;/h1&gt;&lt;p&gt;In a complex systems, we have several classes that have relationships&lt;br/&gt;● There are 4 types of relations&lt;br/&gt;○ Association&lt;br/&gt;■ User borrows a book&lt;br/&gt;■ User add_item to shopping cart&lt;br/&gt;○ Aggregation&lt;br/&gt;■ Department has employes&lt;br/&gt;○ Composition&lt;br/&gt;■ Car has an engine / wheels&lt;br/&gt;■ University has departments&lt;br/&gt;○ Generalization (Inheritance)&lt;br/&gt;■ Circle is a shape&lt;br/&gt;■ Bicycle is a vehicle&lt;br/&gt;&lt;/p&gt;" style="text;html=1;strokeColor=none;fillColor=none;spacing=5;spacingTop=-20;whiteSpace=wrap;overflow=hidden;rounded=0;" parent="1" vertex="1">
                    <mxGeometry x="55" y="710" width="495" height="240" as="geometry"/>
                </mxCell>
                <mxCell id="6" value="&lt;h1&gt;&lt;span style=&quot;background-color: initial;&quot;&gt;Aggregation vs composition&lt;/span&gt;&lt;/h1&gt;&lt;div&gt;&lt;span style=&quot;background-color: initial;&quot;&gt;- both has function (whole\part relationship&lt;/span&gt;&lt;span style=&quot;background-color: initial;&quot;&gt;)&lt;/span&gt;&lt;/div&gt;&lt;div&gt;&lt;span style=&quot;background-color: initial;&quot;&gt;- compostion is a stronger relationship&lt;/span&gt;&lt;/div&gt;&lt;div&gt;&lt;span style=&quot;background-color: initial;&quot;&gt;like can and engine there is no meaning to car without engine&lt;/span&gt;&lt;/div&gt;&lt;div&gt;&lt;span style=&quot;background-color: initial;&quot;&gt;- aggregation is weeker relationship&lt;/span&gt;&lt;/div&gt;&lt;div&gt;&lt;span style=&quot;background-color: initial;&quot;&gt;like employee and department&lt;/span&gt;&lt;/div&gt;&lt;div&gt;&lt;span style=&quot;background-color: initial;&quot;&gt;&lt;br&gt;&lt;/span&gt;&lt;/div&gt;&lt;div&gt;&lt;span style=&quot;background-color: initial;&quot;&gt;&lt;br&gt;&lt;/span&gt;&lt;/div&gt;" style="text;html=1;strokeColor=none;fillColor=none;spacing=5;spacingTop=-20;whiteSpace=wrap;overflow=hidden;rounded=0;" parent="1" vertex="1">
                    <mxGeometry x="50" y="960" width="505" height="180" as="geometry"/>
                </mxCell>
                <mxCell id="7" value="&lt;a href=&quot;https://www.infoworld.com/article/2243500/exploring-association-aggregation-and-composition-in-oop.html&quot;&gt;Association, aggregation, and composition in OOP explained | InfoWorld&lt;/a&gt;" style="text;whiteSpace=wrap;html=1;" parent="1" vertex="1">
                    <mxGeometry x="132.71" y="510" width="420" height="40" as="geometry"/>
                </mxCell>
                <mxCell id="8" value="" style="shape=image;verticalLabelPosition=bottom;labelBackgroundColor=default;verticalAlign=top;aspect=fixed;imageAspect=0;image=https://i.pinimg.com/736x/e6/38/cb/e638cb6f0efe2b1ed6e2b298ad9049e0.jpg;" parent="1" vertex="1">
                    <mxGeometry x="690" y="1170" width="320" height="167.38" as="geometry"/>
                </mxCell>
                <mxCell id="9" value="&lt;a href=&quot;https://en.wikipedia.org/wiki/Object_composition#Aggregation&quot;&gt;Object composition - Wikipedia&lt;/a&gt;" style="text;whiteSpace=wrap;html=1;" parent="1" vertex="1">
                    <mxGeometry x="142.5" y="540" width="200" height="40" as="geometry"/>
                </mxCell>
                <mxCell id="11" value="" style="shape=image;verticalLabelPosition=bottom;labelBackgroundColor=default;verticalAlign=top;aspect=fixed;imageAspect=0;image=data:image/png,iVBORw0KGgoAAAANSUhEUgAAA2oAAAKvCAYAAAAbeTy4AAAgAElEQVR4Aey9X2wUV5r374u94JI7X7wXL3draW8stZQRK6FpTWQJ9KIEDUI/M4kGslIs9CbZ5Y01KxuLGLDj9YyTMYZh4gSBw3rYeIFsTKIMJmEwZGEwAwseDxN1skywJ8Rx1vxpdQiqhMD3p1N1TtWp6uquOna3u9r+Xlhlt0+fOud5PufU+Z4/T9VYlgX+0AZkgAyQATJABsgAGSADZIAMkIHkMFBDZyTHGfQFfUEGyAAZIANkgAyQATJABsiAYIBCjSuKXFElA2SADJABMkAGyAAZIANkIGEMUKglzCGcQeEMChkgA2SADJABMkAGyAAZIAMUahRqnD0hA2SADJABMkAGyAAZIANkIGEMUKglzCGcPeHsCRkgA2SADJABMkAGyAAZIAMUahRqnD0hA2SADJABMkAGyAAZIANkIGEMUKglzCGcPeHsCRkgA2SADJABMkAGyAAZIAMUahRqnD0hA2SADJABMkAGyAAZIANkIGEMUKglzCGcPeHsCRkgA2SADJABMkAGyAAZIAMUahRqnD0hA2SADJABMkAGyAAZIANkIGEMUKglzCGcPeHsCRkgA2SADJABMkAGyAAZIAMUahRqnD0hA2SADJABMkAGyAAZIANkIGEMUKglzCGcPeHsCRkgA2SADJABMkAGyAAZIAMUahRqnD0hA2SADJABMkAGyAAZIANkIGEMUKglzCGcPeHsCRkgA2SADJABMkAGyAAZIAMUahRqnD0hA2SADJABMkAGyAAZIANkIGEMUKglzCGcPeHsCRkgA2SADJABMkAGyAAZIAMUahRqnD0hAwvGQO7KIJ7Y3obH+z7EJO2+YHbnw54PezJABsgAGSAD1cfAwgq1z7pRt6MGNb6fRgxzwFb6Adu973D2l49QvxyoqfF+Gt+uPkgXX8eSxfv727Bq5wBO3Y3yh0naqLzK+P+7GRw51IsndrZhVZv4acea7qMYC7Ttjw6p//di8GYZyxO4bzGGrg61Y1XbXgz/z8KUZ/Jkr22fnmsLc79idS/+v9sY3teGVV3v4JqBPYvnmfQ6s3z0HxkgA2SADCSHAQq1Eg1Ahn/iiSFXGC0D6n/yEMN//rb0Qqxoub9DaHlqAAq1yje+WxcHsKatDa3ns5FcmKQN61gdUaDEkXN9vKMHLxwZw+S9Etni7iW0d/jvYYu13pG8VbNbl50VtScGxvBlUYZLVLbIe9zEYO/CipFTA8JW+/F+dqHqONf7jOPl7W1YNTAWyWkYe/xsrnbn98gOGSADZIAMOAwsrFDTBk2Z43VyZW1xrKgVEkZKtG09/d3CDXY+eYh6uYpW9+L3mEr8gHAJdUjZcbwsRM2+0WihYpJWa1t65+atYIUIqY4BfBS5ohftm2vDXfYK0QsnM7hVKvFXoD563UrzuxQj+88htyD3vI7+rjas6nkPny7I/aL9V9COk+/hqbY2PHPi5sL1XUm3CctHFsgAGSADZGABGaBQK5GxXaH2dw+RsfP8FlMnHyKtth7+74cYL9G9Cg6sVP5vP3K3O3b/eR4DNZUfryXrlK4OdWDV9l4M/jXaLyZpw5mYxIEescVyCFeVD+/fw63PxvBytyPcNgxfn2fdpPB4NX/1LLxM0fVe0O9JMfLU+5PztEPMev3PKF4QW0MHxxfmfsrvc7leHLC3sb58JWbd5nIPfif5HNBH9BEZIANkoGIMlEyoZW8MYeu+OizfJc+g7apFemgIU/fDH/LRK2pZZC52o7GvFsvcPJehtq8Ruydm8g12exz9Q2nUdXln4Jb3bUZ/Zp5pY8KZL9Scek/9UhNNn0hbKCFV+xBj9x5g6B+AZXIFrPbJhzg7E7DZF99j90+A2mXe9soVP3yEoUJbKlX+NUBRoRY8x/Y3QJ24/xchWzVnHqD/Hx+hTgnPGmB56hH6L4asFJqkjVs3Vae4NrP9lsNoZwNSjzWg/dRsPjMxfVsy4fDf72CDWKGIIwpM0haqR/YcWoUoCFst+otTllVBgXXvJk4d2Yun1Fmz9i57m+SXBdqxdXMEz7S1Yc3QtXD73r+Nqx8MoKlDnAMTorEXfROFtnzexOCrsrz3Z3DqcC/WtDuCck3vIE5NB9qFqLdJeW9fyz9HJ8s1LzFiUoZrQ/a212dOxlilmh7HoH7uT/oidMtqjDLYq6vbB/FRAV4mT/RgVVuPO4lw7T/ESuleDM8EfXEUY2ErsTHKINqScx/nTOCtzIdo75VstHeg6cg13AqWL2a+JWunwfvz7/C2TbvQLmSADJCBsjNQEqE2c6ERy30BQjyx1HghZHBlWYgUaqGBR5QIrEf3Z1q+d4exWRNoRYOVmKQ1ALCQULOUwNBFk/vZIzSGnG1b9pPvkVX3/uND/OBvPIGmtlKq6+bjUij9+SHqtKAh6v++q7vaJwa4D9D9WIF8lz/CsC4Wb32PzZpA8+VZ88gfDMYkbdy6CVuY2EzZzhpFayqFlPh55jCm3c81dhbqs/uTOCBESPc7uFZI9KiymKRV3wm7SlEQvlp0Ce1COOlC7fZY+FmztjY8MTjubg10gm+EbKUU+ckf956XnVUZ9Xmhs2vOIFuWaeA959yYlp/9vQNjbhns9DHLa6edHEGTFH2+stj3mEdgE5MyCJESN5DIX0fwjDgfFrRB2FbEmGWwz8bp/g4w4wozO6iKDCTSM4B2cYYvWI5Dl/wPp5hlEL74aFDkN4DhywN4IphvWzt8QVYM8nUYqkDbDtiR5aAPyAAZIANkoFQMzF+o3X4Tq9WKV89mDH0mZ8uzUxj73WbsuBTurGihthuNB7sx/OkMsnJgm/14B+rlvWqPegfcs6Or5Xm3Wmy9Iu9/P4upa/3YunerT0iYpDUxciGhlulSYugR3rwlbeGKDud/6954gKz1Lc6+6KV1ImE+QP8P5WfLH6H/j44oy/75IdYp4aS2VBoKtalfeyt9LfL8XHbqIRplvsuavncHYtlDXtqtJ6UwvPcdps4/xNa/f+i3b+y0BnUTA6HYNtN581bUWt+bdutj4tdSpXUG6B3+QWiBAZ5J2mLlU4FEQleL7o/5hZoSh9s70HziGr7MSTvmrjsCs21ArsTIKJR5A2z/YN4NlHLlKJqHL+FTkd/9DPrE+axCYkFtC7QFiiyHOPMW9r3Y5bVgqbN+bf665e6OO+XRt4YW8EmonU3KIPONG0jEEU1d6Lk8g5wS9rlJfHRiAO0faKtxscugrVbaZbmOfrH9VRNcdtlcW8ize7afHbvdEuW4dy3fh7HL4DDl2KANq8RrGl4dxKnJe3bbvHX6NVsQNp+57bRVw3xDfWTiT6ataB9J/+nPLv5OHsgAGXAYmLdQy7xXL0XSCrRk4oMVKdRCH5oZdPfKVbWDw95D5XyjG/J/+WstGFZiMSwPk7Rh3y/wWb5Qc86oqaAeNU8+9FbJNNFRt+uBV4/Tj9wtkPaWxamHSMtVsh/8UktnWdDFU972Ri3/vP/Z5f/OFYC1/+wJMtEoXGEpthiquv67J9SWP/4Qw1IwhjaiuGlN66bVqajNVJmTdJ0ZxQvb/atSobYTZTZJG1FHZ+WiQHRBubVSnZXKXdhvBwRpv6htS8zdxmTmQ7SK4CehIdqlaCuync5XTyUOC0URFKtIUhi0X9bKYeUH/DAp75cf7LUFwAung9ug8/P1lTfCviZlcPKNH0jEWbVsR+vpm/5VxECZ4pdBCjV5Ni532Yk86gW1kecZ1TZZuaV1VVsHSukLy5LlEH7uHcGnSoSKesnV1/bLznMkft3iP3dM/Mu0tCsZIANkgAxUmoF5C7Xhg1I4/bzFG9gHBhNhlYwj1GYy/fa5t9pObyulu61RF2r3xz0Bp7Zg7lqOerEid0Mf8InZeYO0Meqh6uYKtbDth8GthJroCBdSsmEc9wTSjj8GGou2gpYXcj8y/+/RGFZO32falkaxTTKlVvvk9W8KvHogblrTukXWKWAfA98pH5bnavIeNJO0UfWVA+8C0QWdSI1teOG0WL2Q29wKrpJ1oPVCUOSI+19DjzjLFhKGP9SWUeezZPCKNYcu+cVJXsAPk/LKtDuHMKaLAsGHFKvuNk0jZkzKIH2lVgy1VaxQO4ly/HUUzeqVBzt70Tp8DtduB31uUgZHlDoRHGdwZG8bXti31xPgsmxuhMdCvpACbsN/qCA0JmXQmNkuzr4F66P/bZqv/l3+XpArI8ZpR9qRDJABMlBpBhIr1Iqde7PFmi7UxMPn/gzGfteC1X3L3dU1O90usR0yAJpJ2pgPtlChthxI/+NDZILh8eOKDi1dnlD7o3cmbfPxQP2074ULQUOhJmxw7zuMvfEQq4OCrQbYejoQfCROWq2MseqmpQ+vU8AGMf1W7gZo8h40k7SR5VaBRMKiC94dQ7sQWNtfky95loIrINQe7+hC0/533K1pefeMCiQS8EHU+axP3xfBLLrQ/98BX0rRoFZaXIEYq7zq3Ju3VdqpRxanBpwgFl6+gfsGyu+v/xxsdmXQXtmLFUjEbnMzuPaf76C1rwOPi7pu78DLvpVGkzI4drC3pAqBKs5K2itYzpbW3HmxohoMJNKF/r8EbKJ8cVF9blIGC27wmbcKBJ9xbW6Yr/s9VS5e/bzSHrQHGSADZKAaGZi3UBs7WluGrY/j2PGqXEXr3YqRL9SqWIGtj8GHdG4KYyfWeQFO/lXbJjmftMHvan+7Qk0P2KH93wdHXNGhrZqtPuSPruhFk3yE/qlA44vM/wF2/K2zMubbRliovMHPsw8wtucRlqsVuJ/6t0/66loorWndIusUsEGwzJX4+/419MR9Z5pJ2jh1katFzoqZZpv7kxj+dYctGJ5wIzUWEjPa98LuKQft7nm0sDTaZ87ZpAGcCq5s2WkKb6N0zmvpAT9MyivTBlaxbrmBLDxx4uNWK3f45yZlcOwYJVTD7yN9IIJq5K1eGpRBCnexjfHUgXbY20Dtraai/s4K26q9H8p3+8nVLPe8msfB/HxhwcoTel7e/vob1C3SV4Xuwc/9Nqc9aA8yQAbIQNIYmLdQszItWKG2G3avQ786HyaDiTSeyHhnsLQHavGtj2No+bkUaq/3Y0oEIshNYeR42hNf2opa5sQ6pIf6MTY1454DE4FH6lS5NKFmktbEWWURatYDtPzvYDCRb5H9oxZM5IcPMaXZ1S5zDFEzvs3byrjl+ANki7yoOPPLR/bK4Ngn30n7fovsRW9Fr0YTavHTGtYtRp3C/DXx2nqsTKXQ8E/HkPlmYTsge1Ab851pJmnD6hn87MvT4lxWDw5MyjrnbuPTy++guVMG/fCdD5Jnpzr22+c747742VkB0+4R5ND3tzyb1HEUV4VQE4Exhl9Dv7vaLVdQ8l4EHiYaTMorB/zdR3FVMH5vBmMnXnOiDdpBSwqc4fOVPYwbkzI433fC0rfj5StO8Izc3Zu4dnEE7a/qIfPH0b/3KIYzN7WXh4t3342iNU+oGZRBnv9rfmsIG9Q2UCXehobwRFu7dhZN+kKdV3NtMV9fWHCEXhxmDOrmli/MT/ws2DfwbzJBBsgAGageBuYv1CwL48dVQJH8s2R1xz2h5omz/HT2NsXebvmyaAtn/y2whVGJLnXVhdrxOv92R5VGXHfVo/u655CiZQikNQG5PELNQvb4I9SqlavgVUSCDHuhdRxRI8Lo13pizR9yH6jr8oKXuAFGgveXf3f/0dv6aJLWqG5x6pQ3YLuBgadleP5UCu1nPA5MfDuntJPv2YExYr0zzSRtXh3D6+QEEvFHYlQh1h/vewdXA+/BUhEiVRr96p5b8t278ApYuL1uhobcd7cd5p19UvUKD/gRv7xiBSnEDr0jODAgPlfRLNX94l/jl8HJ0xHPIWXxlUEKy8C2TscfwcAeKtx/WJ5t8PnNDdTShqYP1HlDbXuhfs6woC/CxXR8O0ihFzP4TPx84/ssnE1+n3YhA2SADJCBZDJQEqEmnDt1KfBy6s4V9guvMyrMt+/dadFCTQT9ePNgvfey6656NJ44i7NKFGpCzV5tO7EZ6Vc1cddZi/rXWzAUDCYiVubipvUNTIs7sFxCTdhWhOPf+kPvpdg1y5xAHqEvphZljitqsg8wFHiJtRJsulCzsg8wIlbV5HZJO40ow/95mP/SbZO0JnWLW6eAz3Jn2tEg36XWeqq4D0vXSUlREuedaSIKnnhPVay0ccsvA4nog/2dHXhq3yAGLxeKIph1XkzdKV8+rH3XN+B37SsH7foA3/1feDlvTRzFM2JVqK0Nj3f0ov2Da7BDvovvFdoSV1A0GJT37jX0uS9VVi/wlqKh0KsCIurisGJQBpGf2Ha6v8s5b2bboAcvHB7BRzedFTbF361rH6K9rwNr1HvU2oXvjmL4LzJsva9sMcug3me3cwAfuWdmJXti1VetvJbVF1J0562ahvNiWTHr5rNHobz4ueKLV7JABsgAGageBkom1Oj06nH6kvHVNzlM//4VbBRC7bHncWx6YXzkrJx04GX1Tr8iA0mTtInym1yhWeOec1sY2ybKBkX8ynKSBzJABsgAGSADZGC+DFCocbAVeoZwvmBV+vs3DmxESq6kpVIrsemQtwW3rGW7ew6t29uwZmAMt6LYMkkbldcC/j93dxLDB0RAkg70fcxOuKw8LaBfWQ+yTAbIABkgA2QgWQxQqHEgtHiF2so01m95Bcf+NLso67iwnWn+GbMnDl2KFqNsX2SPDJABMkAGyAAZIANzYoBCjeDMCZyFFQnJmt1YmnX3Ak+s6QycL2MbYhsiA2SADJABMkAGyEDJGaBQI1Qlh2ppChmKSfqdDJABMkAGyAAZIANkoHQMUKhRqFGokQEyQAbIABkgA2SADJABMpAwBijUEuYQzkKUbhaCtqQtyQAZIANkgAyQATJABqqVAQo1CjXOnpABMkAGyAAZIANkgAyQATKQMAYo1BLmkGpV/Cw3Z6vIABkgA2SADJABMkAGyEDpGKBQo1Dj7AkZIANkgAyQATJABsgAGSADCWOAQi1hDuEsROlmIWhL2pIMkAEyQAbIABkgA2SgWhmgUKNQ4+wJGSADZIAMkAEyQAbIABkgAwljgEItYQ6pVsXPcnO2igyQATJABsgAGSADZIAMlI4BCjUKNc6ekAEyQAbIABkgA2SADJABMpAwBijUEuYQzkKUbhaCtqQtyQAZIANkgAyQATJABqqVAQo1CjXOnpABMkAGyAAZIANkgAyQATKQMAYo1BLmkGpV/Cw3Z6vIABkgA2SADJABMkAGyEDpGKBQo1Dj7AkZIANkgAyQATJABsgAGSADCWOAQi1hDuEsROlmIWhL2pIMkAEyQAbIABkgA2SgWhmgUKNQ4+wJGSADZIAMkAEyQAbIABkgAwljgEItYQ6pVsXPcnO2igyQATJABsgAGSADZIAMlI4BCjUKNc6ekAEyQAbIABkgA2SADJABMpAwBijUEuYQzkKUbhaCtqQtyQAZIANkgAyQATJABqqVAQo1CjXOnpABMkAGyAAZIANkgAyQATKQMAYo1BLmkGpV/Cw3Z6vIABkgA2SADJABMkAGyEDpGKBQo1Dj7AkZIANkgAyQATJABsgAGSADCWOAQi1hDuEsROlmIWhL2pIMkAEyQAbIABkgA2SgWhmgUKNQ4+wJGSADZIAMkAEyQAbIABkgAwljgEItYQ6pVsXPcnO2igyQATJABsgAGSADZIAMlI4BCjUKNc6ekAEyQAbIABkgA2SADJABMpAwBijUEuYQzkKUbhaCtqQtyQAZIANkgAyQATJABqqVAQo1CjXOnpABMkAGyAAZIANkgAyQATKQMAYo1BLmkGpV/Cw3Z6vIABkgA2SADJABMkAGyEDpGKBQo1Dj7AkZIANkgAyQATJABsgAGSADCWOAQi1hDuEsROlmIWhL2pIMkAEyQAbIABkgA2SgWhmgUKNQ4+wJGSADZIAMkAEyQAbIABkgAwljgEItYQ6pVsXPcnO2igyQATJABsgAGSADZIAMlI4BCjUKNc6ekAEyQAbIABkgA2SADJABMpAwBhZWqH3WjbodNajx/TRiOGFG4UxA6WYCFrMtp092YdPqNFKpFFKNA7hBjtnBkwEyQAbIABkgA2SADJSIAQq1Uhjyzw9RVwPUBH6W/y+gset7ZLKLQfh8h/FDD9H4Q2D5P3xfBQ2wvOXNnWpFWgg09UOhVgVMLIZ2yDos5skf1o18kwEyQAbIgM7Awgo1TRRljtfJlbVFsKJWQKi5wq32EYZnqh28B+j+OylGf1INQq285R3dKURaGs1HMsh9U+2+Zfn1TpG/kwcyQAbIABkgA2QgCQxQqGnicc4O0YRa49sS7FsPMNL1CMvVKtv/eYiZUtyrYnmUV/jM2fYF7VHe8o5uSyG1dg8mCt6fHVzpfUqb0qZkgAyQATJABsjA0mGgZEIte2MIW/fVYfkueQZtVy3SQ0OYuh9uzOgVtSwyF7vR2FeLZW6ey1Db14jdEzP526xuj6N/KI26Lu8M3PK+zejPzDNtnIF4mFCzv/ctRprUlshH6J/SbHHvO5z95SPUL5f//xug7smHOPvFt766Df/E+X9d1wNM/buWfhmwruv7gPj7FpnjD9GYApYpgVgD1KYeYfdH3/nytd5+5GzVrH2IsXsPMPQP3ndqRTnkCmCmS5W/8FWUze40ZJ6Nhx+g+++d9Mv+/iHGv/gem/+X83ftPwTKXAo7/Fre37JgVN44vi2QxhZq3O7oZ6qArfhA0do9bURmyAAZIANkgAyQgZgMlESozVxoxHJfgBBPLDVeCB+kRAq10MAjSgTWo/szLd+7w9isCbSiwUpM0sY0olVQqFmwzj9ErRRNjf8uRdi9B+h+rIDwWe7fJqmE2jIl6DQBJrZW1v/CEyl6Odxtl1r67j9rNlNCreYRGqUY1L+z7CffI2sqfNw8/XVbHij7ltOyHCW0w5bTjm0XSqiNtDCACAWY1p7i9hVMx4czGSADZIAMkAEyEJOB+Qu1229itVrx6tmMoc+yjvGzUxj73WbsuBQ+mIkWarvReLAbw5/OICtX5bIf70C9vFft0THXydnR1fK8Wy22XpH3v5/F1LV+bN271RdV0iRt7IFoMaH2yUPUS7GkVp6mfi1Xs2qAltPOSld26iEapaBZ1uSdAVNCzRZRKbniln2AHSkphpY9wsg9aeM/P0TjTx5i+L++Q9b+7FtkL3r3r/1nL193RU2Wbd0bD5C1vsXZF5XIeuSzm2XF2EqoCbXGt7/T8gJ2/PFbDP1/Tt7pXzt1nr8dvsfmZU6ey/6vVjcb/hjljdlIghzkPjmG5nQKqWePYXqOeQTz5N/h/QTtQruQATJABsgAGSADS5WBeQu1zHv1UiStQEsmPkiRQi10AJxBd69cVTs47Ao163yjG/J/+WstGFZiMSwPk7Rh3w/7rJhQs75Ho0+ofYf+Hzriwiec9NUrsR1R3scVarWPMKIHJNFE0Y4/FrN7AcGifb9ul7Yqd/qRu23StwJnItQee4gprT5KeKq6OIJ1jnZY9ghDmh1UnjV5AU4K1DvMfzE/u3FgoxvlceWTzTj2STG7839LtVNlvck+GSADZIAMkAEyUAoG5i3Uhg9K4fTzFldcxClYHKE2k+m3z73VdnpbKd1tjbpQuz/uCTi1BXPXctSLFbkbcoVNDcZN0qrvRF2LCTVtRc3ZpugJN32rof93bzXLFSJ/9xAZvRyh9/wWMxcfYusPgVq50uTLVxczmlDzC7JCDSuG8FF5yvuobYhqJVHVxfm7NHZQeVKoFfIbP4/THzENOSEDZIAMkAEyQAaSxkBihVqxc2+2WNOFmhAw92cw9rsWrO5b7q6u2el2ie2QAfBM0uriqNDvoaJJ3lNboXLOZpVGoOhn3zYfd+4187YWZVI7m+aKNQo1bxW2kC8jP89h+vd7sPGxFFI/G0EuMn2APaYvgQ9o06Q9SFgeMkkGyAAZIANkoPQMzFuojR2tLcPWx3HseFWuovVuxcgXalWswNbH4OA3N4WxE+u8ACf/qm2TnE/a4HfV3wWF2nfuuawa9yzZA+z4W2fro2/LocorcHVXjAIralO/VOfcVDRJL9+av3uEkSkVPbLASpha/aoB4q2oeVsV81evJJgqz1gral5552MH1z66CLVtGKO8AVvH72ByePdFBhOJb6/Sd1y8N21KBsgAGSADZIAMLHYG5i3UrEwLVqjtht3r0K/Oh8lgIo0nMqEz6MW3Po6h5edSqL3ej6mcBSs3hZHjaU98aStqmRPrkB7qx9jUjB2pUDhNBB6pU+XShJpJ2tjODxFq2ZkHGPqpI8jEipYenXF8m/f5luMPZOCP8MbmCpG/fYhxGSBk6qQXIKTmh855MMv6Hi21Mt//8xBTWQtWNvAuN13MKFEVW6hZcMuy7BHedIWgVm6VZyyhZmFOdggIVrdMet2kAHP/V6i8cxZqFhieX/P7POwYu43xHqH9KO1HDskAGSADZIAMLF4G5i/ULAvjx1VAkfyzZHXHPaHmibP8dPY2xd5u9xzW2X8LbGFUoktddaF2vM6/3VGlEddd9ei+7jmwaBkCaWODrwk1d5uhtvWw9qeBd4fd+h6blajS0qnvqjNd4v6u2AhJV7P8EfrdkPvf4uz/9QSgyst31cWMElUGQi17SK3i+e/jllflGVOoWXOxg4FQiyzvPAb/FGpem4rdTuZhb96D9iYDZIAMkAEyQAaWGgMlEWrCaFOXAi+n7lxhv/A6I1bD5ACtqEgSokoTatb9cbx5sN572XVXPRpPnMVZJQo1oWavtp3YjPSrmrjrrEX96y0YCgYTEStzcdPGHViGCbVlQN0PH2G3DL+vbOBesw8w9I+PUBd4x5gQVq7wKSTUlgPpf3yIcS36oZ3vvQd48yfei6trlgONv/weZ9VLq+cp1CzrW4y/8Qj1AZHpltdUqAn7mtrBQKhFljeuf0PSUah57dplOsRO/B/tRAbIABkgA2n1DMoAACAASURBVGSADJCBuTFQMqFGB8zNAVF2c1fUAgIl6nv8f3n8oexqC7V0Fy5TnLgTMco2vJaXPdqX9iUDZIAMkAEysDQYoFBL+ECbQi2ZDfHyv6Ttd6pt7DuPaW3VmB1nMv1Fv9AvZIAMkAEyQAbIQLUxQKFGocYVkbkwcHUP1qZS7guwU40DuDGXfPgd8kcGyAAZIANkgAyQATIQwgCFWohRkqS2uaKW3Nmf2TN70PRjZ2WNQi25fkpSe2ZZyAkZIANkgAyQATIQlwEKtYQLtbiOZDo2ejJABsgAGSADZIAMkAEysHgYoFCjUONSMxkgA2SADJABMkAGyAAZIAMJY4BCLWEO4SzI4pkFoS/pSzJABsgAGSADZIAMkIG5MkChRqHG2RMyQAbIABkgA2SADJABMkAGEsYAhVrCHDJXxc3vcbaGDJABMkAGyAAZIANkgAwsHgYo1CjUOHtCBsgAGSADZIAMkAEyQAbIQMIYoFBLmEM4C7J4ZkHoS/qSDJABMkAGyAAZIANkYK4MUKhRqHH2hAyQATJABsgAGSADZIAMkIGEMbAohNrwwRrU7KhBTW83MlEG/qwbdSKt76cRw0W/l8XZI3X2d2pf74++R9G8OKsw11kFfo/skAEyQAbIABkgA2SADCwVBijUbMEWJdSG0egKuzp0f8YGslQaCOtJ1skAGSADZIAMkAEyQAYqwcDSE2raalfmuLNKVrMjSqhxRa0ScPKe7BTJABkgA2SADJABMkAGlioDi0uo7evHlCbEopwaX6ixgUTZkv8nI2SADJABMkAGyAAZIANkoHQMLKhQU2fJ6o6PY+r8ZtR3ybNinSuw7vhZzGgiS6UNnjtzPz847B549D4bwsx4N9b9vHC+OjyRQu1CY+Asm8i3+Opb9sYQtu6rw/Jdsgy7apEeGsLU/TCn3cHF17aiactW7Dt/x62PXkb+HmY3fkYuyAAZIANkgAyQATJABhY3AxURasu6locIoBrUv5dxxYorvgIBQtzPw4Ra13Isd8+SSaG0w5+vDnSphdrMhcbQ+4vAJY0XwkA6h91NTWgSP+3H8YUmVPVy8vcw2/EzckEGyAAZIANkgAyQATKweBmoiFBzIjS24OxXFqzcOHb0qhWwLRiRK0+uIDMRakKk9RbPV4c5Uqhpwiky7e03sVqtovVsxtBnWUd0Zqcw9rvN2HEpDCJvRW336S9ckaqXkb+H2Y2fkQsyQAbIABkgA2SADJCBxc1AZYTazzdj5LZmWHeLYR12XHc+n5NQi5GvDnSk+DIQapn36uUq4Qq0ZLS6aXno9+bvtBEZIANkgAyQATJABsgAGSADhRiojFALrJJZ2rvN1BbBOQm1GPnqhiilUHPL+/MWjFGccXWQDJABMkAGyAAZIANkgAyQgXkwkAyh9nELauXZss1yi6ArfALiy/087IxaIK0Vki+FGmctdAb4O3kgA2SADJABMkAGyAAZSCIDiRBqUyd+ILcNptH/pQOKK8h08ZUbwRYVKTKGUAvLV3dCKVfUxo7WcuvjPGYMdL/wd3aWZIAMkAEyQAbIABkgA0udgcoItVd3YNwOGpLF1JUW1KsgHNp70MbfkS+j7mzEkAg68tVZtKigI2L1LUyoxchXd3gphZqVacEKFXGyex36A8FEGk94ES29MnjBRBien52RxwVtQVuQATJABsgAGSADZGCpM1AZoaYEjX7tSqP/Mw1IXfho6Vb0rHBWrsKEmpbOjiwp/hb5ygAlwtmeOPPC97tpRXptBc8krch7/LgKKJKfd93xMKHG8PxLvQGy/lqb54os9/GTATJABsgAGSADZMBloDJCTa2g2UKqDumhfozrUSClg+yXYndK0dNVj8bfjSOrIkRqQm3qQgsa99WhVqXV8h0Tq3Gaw03El0ladY+pS91o7KvFMlXHzhX2C68zOX85nPTeihrD84fZh58prnglC2SADJABMkAGyAAZWFoMVEaoaatWBG5pAUd/099kgAyQATJABsgAGSADZCCaAQo1bbWNwEQDQxvRRmSADJABMkAGyAAZIANkoPwMUKhRqPm2hrLRlb/R0ca0MRkgA2SADJABMkAGyEAUAxRqFGoUamSADJABMkAGyAAZIANkgAwkjIEFFWpRqpH/58wCGSADZIAMkAEyQAbIABkgA2TAAoVawpQzoWTHRAbIABkgA2SADJABMkAGyACFGoUal7nJABkgA2SADJABMkAGyAAZSBgDFGoJcwhnTzh7QgbIABkgA2SADJABMkAGyACFGoUaZ0/IABkgA2SADJABMkAGyAAZSBgDFGoJcwhnTzh7QgbIABkgA2SADJABMkAGyACFGoUaZ0/IABkgA2SADJABMkAGyAAZSBgDFGoJc8iinD2ZHUXrhlaMznJmZFH6t4ra0I3fbMLKVAoNnaPIVVG5S81N1dhhdhTtT7dXXd9RNfadTxsocb9eNTarUiZL3YcwP45nyMDCMEChNp8HFb8bPfPyTQYDT6eQamjFyFcLAzU7jwg7n2pFKpVC66mIdIuO7xsYaEzZdU+lWjG60PW7PYG3e5rx3JYmNDU9h63t+3Dm80r4oNR2GEVrStlVXreNRvcNcez/+btobnD6j+qZ6Kki+8bxQViakvfrVWSzBWBy+mQXNq1OO31V4wBu+Hzg2Sq9ehO6Tk6Xpq357lGJfon35NiFDIQxkFChFvLgfyyNhp82Y89vbyyamfCJ3zRh/Y+6Fn7AOMcO2by8sxjd1oDUYxsx8MliaYBZjI+2oHFfHZb/63DFHpDmvtDsn3ChNq+6RbCtZu3X/+LyAvcjk3h7uxBogZ+tb+DKfc03EeUP68TFZ6Y2i2uHePmG9NelEmrCHp8MYONjKTRsG8XsHO1TyG5xP49nB8+PVWVfY5vG69cXtc3KyGTuVCvS+sRHEaEmJtxSqQa0n8lV7FkUtw0xndc/0Ba0hQkD1SPUtI6r4bljyHxT/Y4e3SY62QrM7Bs/mB1bm5ZXPXA2HrqxiB4iGXT31qBmRw1qDlZOqJn6wtcpJFyozatuc2TbZ59y5PHxIJqFSOs8jsmvLVhfT+J4pxBtzRj8eP59WblsZp6vFG2lFGqWhcwbG5FKpdF6crYifYm5HeL51Dzf8tjXhP+4/bp53arLZuVicnSnGBek0Xwkg1yxcc43OWSONDuibmeJVrDL0fcxz4r0WSZtmmnj9T2VslOyhZo+k3RnFpnfdmH9SmdrzcYD1T/4L9eDrFwwmZV3AnueTCH15B5MFHvYVF0nTqFWLr5UvmacJbuDVXWyzu+2V9NeOf21+9CePNaKpqZWDF2ffx3KZTPzfMskJL65jC6xBVL0JxXoM8ztEM+n5vmWyb6xbRq/XzevW5XZrExM2nZbG5fzCexZm0KqxBMjbr8Vm4t4vmO+tBMZMGegeoSa6jCu7sFasbqW7sJl9Zm4fjOLyweasT7tCLlUej2afjGCGzm/UW4cEDOzGzFw3Z9+5ZPNGPiv/Nna3PVRDGzbhAaV78o01m95BSN5Z0ucB6gtIHMZHNu2EenHRFlWYu2Lh5FR5ZCrGc6WBVlWbbVQfO6K0OsD2GifJZrFaOdaOwhC+tnDuPFNBsf+qcHev96wM7AdqNR2MCmv7o/fd9kzfZveit4/n70xhK1iK+EuuVK1qxbpoSFMBbeEfXUWuw/Wo7ZTpVuGFfu2YuhG1h38ik5g+KDz/7rj45g6vxn1XTJ95wqsOznuS2t3GrfH0T+URp1Kt6MGy/s2oz8z46bNHK9zVtHESlqBn7rjGTe9cWck/PZWKzb9aKVzLuGxNNa/OIDL+rm+ufhC5avOO6RSSKede4SfUbuDi69tRdOWrdh3/k5EfWKmVWUoad1itjebSTm41dtZgYGNaf9g5W5gpHMT0nICyd+uRT8j+5+Z32JXUxOe230Gd0SZZs9g99YmNG1/G5N6uzH53ZiHmHYwzlfvY+U9CtjXbhcx+6hgG5p+a5O90tD1e/1+wd9jMhnHzsZ2qG77Bu0d+ndUv77EbBaPySCjxf+2hZo+SV2UVXlerVh7K/r94mUJZYD5RTwXaVNyU1oGqk+oWdM4/IwQONogyJJ75vWBmPr96QHfNklnILYWG592hI5vYCXOUqmBld0ZeYd2felE3g1duOxbKXIe0mt37kGrmPlV95fXdOd5p3GbPMikUNv0bJOW33o0v7hW+1svs6kd0lj/4zA7NGPkjgTNpLxaB375X8RB6CYcmy4O7MyFRiwvIHwaL2jfvd6NHyghF0y/qxabL3liTQm1ZV3LQ0TVcmy5ouV7dxibNYHmF2GNGJZ1Kq9Qy2F0Z4gfBDv6A9jYF9N498UC+RYMJnIOu9U5qvbj+ELzaX7nGydtueoWs73Z5Y85gLYsOP1DjHZh53vDCZQTaOte29fb5h1c3LfV3uq4q/slO6DIc20HceW2xmJRW4ekM+Yhph2M89XLJu+hc+urV/w+Ko+36WNoEhMN/3K5yEApDpN6eYv8bmyHKrevz0/hdons15eazWIxGW7LPL6l/UdaUkiZCrWWkSJtwuz+hcrFz2lHMlAZBqpQqFlw9nB7UevUnvmGnx1DZlYeqr2TwcjO9bagaf6td9DWGYg5Qmr9zhFkhCARM7x9YqUthbV9E1qHdwOHt7Vi4EwGs2pF7E4Gx37mDH7bz+hO0x7SDc9j4PfTTrCCr0bQKlbjHmvPCxoSuTVECjVRro0HMsiddKL1qbMazmxeaexgrzzmpvFuixNpqvWkXjfn98jyug96KXA3vI6M+1l+ftbtN7Faia+ezRj6TIqt7BTGfrcZOy6p70yhf59cyepah36ZLnujH+uUyOppwbi8lxJqtujqbcFZsSqVG8ZmuRK37N/Ouj7Ojq6WYq4WW6/I+9/PYupaP7bu3eoKNa+DKsfWR8nOc4cxrQRybhaZM3vwfF/42YM4vsj9ttlmeuUze3D+c9kGvslh9rjzedSK2u7TX7h28uqvfCKu3upF4bTlqZtlmbc3pw7yewWERLB/KNou/uCsGqefHcCE9Fvuk2MySmFwIsfCnYv7nHNqTc+h691JfF2sbRj+Lw4Pfh8Wt4NKW+p8TfpqVQbvKrd5FR3ExmFSZzje76W2g6pTqfOdn32jbBGzX5fslrpuybRZHCaj7Or93+4/xHjh2WOYjtUHTOPYs2J8sRF71Jgj1ve8eyq78kqbkIFkMlCVQk0NptRA034gpLtw3rfCJQTYiBM2Wjtoq7678Y3ANrVvRtEqtio+HQyFG+I4OWuo7u/ALQc+DfnvCyv0wCr0udtYlFBT57zUbKXqxAPlmIsd8iKpyTzd7Zdapx9ZXjettEXELF/mvXopklagJRNiZ5Xfl/1Iy1W0H5yY8okHT2jVofszJw9XqHU2YkhbsXA/14OAnG90V92Wv9aCYSUW1b3zruUQapfRJR7OQuD/IX/7rcuDVpZoX6gHuLY6qr4f4CYs/9J9Vo66CT+btzenTsUFiuof4rSLG4ecyR1/P6BW5fTVNAt3zu/GVrH1se0lNIvw/NvfxnW5tffMbhFUZDfOKf/M4RrNQ7B9FbeD8n+p87Xzi9lXqzJ41xzefVFMsi18AKZS20HVqdT5zs++QUaCf8fr18tVt3LlOz+blYZJ1e+ISVlxDOOYSZRkMTn0pNwyrx+dmEM/omzMa5B9/k0mKsdAVQo15+GWgrOiVWR7otqSpISNu7XJW4Xy4JP5BGZrc9dH8MqW9aFnUPwDtHgDH+9+FiIf0lKouaIpKKJ8A+4S2SF4D62zjyyvmzaeLVzh9PMWjLnfDWkMlzZLMVWHHb6tqRasz7pRJ0Wc2irp5tvb7VvRcz/Xhdr9cS+Ko9pSuWs56g92Yzhw9s3xXTmEmoXZ33dhvX2mUZy/3IjmXx3G+eveSrDOjfg92hdFZnp93ITYu5gv5vC/0tdNlDkeY0G7RX1PDZj8bduCFdYuzrTbK5bpF485K/OWBXdFLdWMd9Xq6J0zeGWLdz5t8j9esgOLbN1zDnesDAabm9DUPOhjNb/cxf0UzUPw+/HsV9p8zfqoMBuYlydY77n9bX7f6rRvmM29z+LVSaVfKjYzr2c+g6rfmZNQ+/xdtFKo+SZwFYO85rNGm1SfTapQqMmoU+75J7OHv+oQ8wZiVohQk+9KEZ1n2I8/D7OHmGgskR18tQu1F98t+q4qVzhFCbULatUrRKhd3+EKtc1yq6SbbxyhJoTH/RmM/a4Fq/sCZ9p2ie2QwUZdHqFmd565aUy8vQfNP03bgWMEc3nBYqRQimTHGkW7EH6BiQf7Pgss1EpfN+ET8/ZmlyPiewX7hzChZmXw+obwvqFBP0d11on4uPu8YukOzu0R59Wa8FK7I9qa9pyb10Ajmgd1b3WNZ7/S5mvWVzv+UuV1rvb5Ha6o+c+uupMn87dvmM29zyQzEf26Sl9adjwOSpvv/G1WOiZzmP79HvudgamfjRR9diobW1YOIz9ztj6+/qfCE3tees+O/Iy2IAPVwUDVCbXZk/JlkM8clnu45daDmOFsCw7EPj+MTUKQaQ8h5+B0Chv7zmNanVETD8XQgW68gY/eMJwHTpGAG0ZCrUR2CB2QOjBHljc4YIjwydjR2nhbH7VVs9WjXtAQYcupEz+QeaTR/6VTTmOh5pZbnGWbwtiJdV6Ak7yXWmvn5fSVOT2PUvx+ZwIDz4rzgmux52p+ZxLtCzkACUZH1QLv+Cca8u+hs1rS3+ddN1FW8/bm1KH49wr2D2Ht4g9daEilsP5pL+rjyh9tQutbl30vZlYraLvPaja+n8HgP6uXXz+HNy5r/5sDP9E8BPMvbgfl79Lma9ZHqTJ4VymMwyYf5mAzL9+gbfL/Lq0dvPxLm+987euVK9w2sk+J6NfVd0tbN69spc13vjYrNZOyPLEZlz6JOGagfMKrxxFtQVtUCwNVI9RysxmM/up5NNjbwxrQfsabPVJBNdbvPIYJFTShwINbDcSaj8+6L5PMfTKC9h87M+N64BHngZBG63syMIgd4GEArRvCwpvHG/joYEz0OdEbN/4yIARV2Y2EmoW52CFvsB42IJXliSyvKrdlwRG5m3A47zUGWueQacEKtd2w2wsSYslgIo0n1DnCcbT0hAQT+UwLJrKvH1Py/iZCLXNiHdJD/RibmkFWfj/7sbdKV5Mn1Lzw/zWdjXjzC79w1P0b+/frh9G6bQCjH3tMWrlZTLzmnIHyB61x7BfHF+5EwxsTNuu56fMYeM6LApnne7v+XjCGkoTnL1PdkiDU7KBGq5rx7o1pTH/l9Ud5fr/yBp4TkTS37saZaec9al9PX8HgdinUnnsFZ7SzlHnf19pVof/F4cH/3Xj9VanzNemj/OW1YMWKsGfCr9YXRdi41HZQdSt1vvOyb4QNRJlj9esyn1LXLZE2i8VkfM5EHe1xh6lQKxAcSdmMVzMf0F60V5IYSLZQC91yuBKbDqkBvITpm0zRMNn6gFQJtbCtjMEAAtNvPx+65TElzxLp+c5p4Chn5INlcc+kGQo1aw528NfBWy10y6A/vKPKq6eNet+OTDt+XAUUyX8/mf5esuylzahVESKVuFPXrjT6ZSAR0biMhFqx96Ptqkd38EycZSF7dp0bgEQP56+X16iRSz8HObD/znsNhGQ+ji9Evurcm9uWGvD8L1rl+/nCOmOT8OYx0parbiYranLyIdS+gcP3qn+I0y4mfqW/JkPbAvlYGg0/7dLetTiJt5UoU68+UFcRWET8rgUXMWJHtbk4PBjYwS1DqfM16KPcMsg6OiIkjeLvUYvBpLKZybXUdlD3LnW+87Bv0N6hf8fs1+3vlrpuCbRZPCbD+tnCn1GoFbZNKJOKC17ntX2etk0ud1Uj1Fb+aC02iVWHQgEWxItnf9GE9eqluu7A1B84RA3E9EFberXcrhSMGmn5X4qdSjdgU+cxTPzh9ZCBbrwZ6mBjmD75Cpp+7ITEV2VyRZKpUBMdlaEd4gxI9TIXLa+vo5RnCQsJDS3t1KVuNPbVYpkSYp0r7Bdeuy8Jl2mdF2Ov0NLVov7gbif8vpafiVATWx1HTmxG+lXtfFpnLepfb8l7kbZnhyzGf9eI+u5lPsE2Z6Fm5XDjt6+gaYN3Nm3lj8Jf2O6VwUIcX8z+fg+a5EHzlU824ZWT07AkV3m+t23orUgUDrmvOrQ4actVN4P2ZiBQVP+QZ5uwleY7o2hdJc6HpNGw1vOdasepdCtGVUCRrydx5rWXsPU5KcxeaMauAx/i+m3vvJoTXETZ1vwayYOBHYw4M803Zh+ll8H6RvYnIgKu1tZ9aYz5NbPxorZvUZvqdorfrwvfLGqbxWZSt1/07xRq0TbKb/f8Dm2yeBlIqFArn8ELDsRiP6jKV7bF1tDUecK8VyHQ1pz5qnoG5OsP0q0YEe/p0+uTm8bh55wVtrBtq760+vf4u9+Omj2cVyH4t7zTjgHuNHuV0zbs1x27l4tJW6jlnS0u5Gv5+hNufSzYd5SzLTDvQlzy81KyQaG2QA+3UjqtevKaxYj9Au2NeN3kvTD0CR86iWdAruilm3FMP1soXij+sXzptRuZlg+tefVZMvpucGv6vPJMPF9JZob9ulVGJt2zxcEgZkFmc9M43+ecY07rUWaD6fg3n6dkoKoZoFAjwOUFeHYUrQ3iZc7NeLdYYBH6obx+oH1LbN8bRc/Fiu2P6381UeJ7JnnwXqayfTXi9B9PDyCTtzW9TPdc9G1FTjJoxwPc7bp5nxV4ufhS7tfLzeTVPVir+yEvsEjwlQLhkYE5kcH+gQwsDgYo1Bb9QzkBoM6Oov3pdozOJqAs9DfFQ6kYUGetVmtnTO1AIq0YOHMj5nuQ2CaKDiaEINjQyr6jVMza+ZRAqIl8lmq/vgBMzp7Z451dLyLU0j9uwp4zs+zTS9o+2CcX7ZNp6wVvb0tOqBFAdkJkgAyQATJABsgAGSADZIAMJJ0BCjXODiz47EDSGwXLx46bDJABMkAGyAAZIANkoNIMUKhRqFGokQEyQAbIABkgA2SADJABMpAwBijUEuaQSit33p+zR2SADJABMkAGyAAZIANkoPIMUKhRqHH2hAyQATJABsgAGSADZIAMkIGEMUChljCHcPai8rMX9AF9QAbIABkgA2SADJABMlBpBijUKNQ4e0IGyAAZIANkgAyQATJABshAwhigUEuYQyqt3Hl/zh6RATJABsgAGSADZIAMkIHKM0ChRqHG2RMyQAbIABkgA2SADJABMkAGEsYAhVrCHMLZi8rPXtAH9AEZIANkgAyQATJABshApRmgUKNQ4+wJGSADZIAMkAEyQAbIABkgAwljgEItYQ6ptHLn/Tl7RAbIABkgA2SADJABMkAGKs8AhRqFGmdPyAAZIANkgAyQATJABsgAGUgYAxRqCXMIZy8qP3tBH9AHZIAMkAEyQAbIABkgA5VmgEKNQo2zJ2SADJABMkAGyAAZIANkgAwkjAEKtYQ5pNLKnffn7BEZIANkgAyQATJABsgAGag8AxRqFGqcPSEDZIAMkAEyQAbIABkgA2QgYQxQqCXMIZy9qPzsBX1AH5ABMkAGyAAZIANkgAxUmgEKNQo1zp6QATJABsgAGSADZIAMkAEykDAGKNQS5pBKK3fen7NHZIAMkAEyQAbIABkgA2Sg8gxQqFGocfaEDJABMkAGyAAZIANkgAyQgYQxQKGWMIdw9qLysxf0AX1ABsgAGSADZIAMkAEyUGkGKNQo1Dh7QgbIABkgA2SADJABMkAGyEDCGKBQS5hDKq3ceX/OHpEBMkAGyAAZIANkgAyQgcozQKFGocbZEzJABsgAGSADZIAMkAEyQAYSxgCFWsIcwtmLys9e0Af0ARkgA2SADJABMkAGyEClGaBQo1Dj7AkZIANkgAyQATJABsgAGSADCWOAQi1hDqm0cuf9OXtEBsgAGSADZIAMkAEyQAYqzwCFGoUaZ0/IABkgA2SADJABMkAGyAAZSBgDFGoJcwhnLyo/e0Ef0AdkgAyQATJABsgAGSADlWaAQo1CjbMnZIAMkAEyQAbIABkgA2SADCSMAQq1hDmk0sqd9+fsERkgA2SADJABMkAGyAAZqDwDFGoUapw9IQNkgAyQATJABsgAGSADZCBhDFCoJcwhnL2o/OwFfUAfkAEyQAbIABkgA2SADFSagUUm1LI4e6QONTtqUPt6PzIUYZwZIQNkgAyQATJABsgAGSADZKAKGVhkQm0YjTtqbKFWs6MO3Z8t9ExAFuOjLWjcV4fl/zrMBlGFDaLSMye8/0K3Wd6PzJEBMkAGyAAZIAPJZGCRCbVKr6hl0N0rheJBCjU2+mQ2evqFfiEDZIAMkAEyQAbIQPIZWGRCrdIGp1Bjo680g7w/GSQDZIAMkAEyQAbIwGJgYEGF2vBBZ7Wp7vg4ps5vRn2XXH3qXIF1x89iRt8qd6HR2cL48xaM3Z/C0L/WY9kuJ33tG904e1sDUKV1tz2KdI0Y1vOzLIy/vUJui0yj/0vt+3a6cbT0OPkv+82I3LaYReZiNxr7at171+xahtq+RuyemHG3NmaOO+fixNm4Qj91xzNuehuc+zM4e6LRs8Gu5agT9foqWC719x1cfG0rmrZsxb7zd/x5Beq5GMBkHZTfeSULZIAMkAEyQAbIABlYigxURKgt61oeKmjq39PEjCu+VqPxYH76ZQeHkVUCxU2rC6V8oWZ9sRs/kGIqfXLKL3YyLVhh/28ZtlyRjeGzbtQVEl+76t0zcMZC7f44uvv0smq/dzViWBehqo7WOexuakKT+Gk/ji/cz9lwl2LDZZ3JPRkgA2SADJABMkAGFjcDFRFq9qpTb4uzepQbxw51rqtzC0buS4P7xNdyrPtdBlkri7NDalUsRIhZFjzRFPb/LN58XYqiff2Y0sSOu9rW04Jx9flnu9F4sBvDn84gK8uV/XgH6tXK3tExv9iz4m19nDqZdoTqrnq0jDsrc9kvazPH8wAAIABJREFUhtAoVxi9FT0dPm9FbffpLwL31dPxd3ZaZIAMkAEyQAbIABkgA2Sg2hmojFD7+WaM6KtGriirw47rEir3sxrUvTPuCZMrW7DMXuUKj+pYXKhZyJ5dF7L90dv2+IMTgZU2JdrcazExVux/qrFMoX+fIxZrA0LPLbvY7uneT32P12pvbCw/GSYDZIAMkAEyQAbIABmIy0BlhFpvt/8dZ9oWw8YL0nmuUAsXZIUq6IqdkDNq9nfuj2BLpyOUVo9mHQHobnvMP7s2k+nH1n11qJXf8Z1By4vsGEeo6a8Q0LY8+rZYhq0GEupCPufnZIMMkAEyQAbIABkgA2RgsTGQDKH2cQtqpVDZfElCVi6hpgcVef1N+5ybu+3xDedv5eSZC41Y7hNQAWFFoeatdHIFkLYgA2SADJABMkAGyAAZIAMlYyARQm3qxA/ytyOWUahZ7graarx5V62CLcOW/9JnIsax41UpzHq3YuQLufpW9Byat62xJk/Eqby9fH1bOgl1yaBWQptXxRyvZIEMkAEyQAbIABkgA9XGQGWE2qs7MG4H58hi6kqLG5yjRg/wUU6hZk1h915HhK17u8WJ7Jh3LmwMLT+XQu31fkzlLFi5KYwcT3urbCFiTL2CoKazEW+64s7fMNwVvF312HJx3A1UUhweL5gIw/P77VncbkxL+5ABMkAGyAAZIANkgAxUHwOVEWph2wm70uj/TDOggVDzzqUFtiaq+wTPxFlaUBEZwXHF21rAErm6dfbf8l8LUPyMmpavure8+t6jdncYm7sLlHVHDXxp3ZU2hudnB6O1D5cLfkYuyAAZIANkgAyQATKwGBmojFCT4sgWPV11SA/1Y1yPAikGoWUWatbdN7HOLccPsPuLEMDvj+PNg96Ltmu66tF44izOHq93tmqGrKhZVhbjv2tEffcyuZ3TEWR54iuXwdBQGnXqpd+asMtLaw/KvRU1hucP8RWFC7eOkgEyQAbIABkgA2SADCwiBioj1EJWuBajCmadKKjIABkgA2SADJABMkAGyAAZmAsDFGqLSHXPBQB+hx0HGSADZIAMkAEyQAbIABlIHgMUahRqXCInA2SADJABMkAGyAAZIANkIGEMUKglzCGczUjebAZ9Qp+QATJABsgAGSADZIAMLDQDCyrUFrpyvB8bFBkgA2SADJABMkAGyAAZIAPVyACFGlfUuMxNBsgAGSADZIAMkAEyQAbIQMIYoFBLmEOqUe2zzJylIgNkgAyQATJABsgAGSADpWWAQo1CjbMnZIAMkAEyQAbIABkgA2SADCSMAQq1hDmEMxGlnYmgPWlPMkAGyAAZIANkgAyQgWpkgEKNQo2zJ2SADJABMkAGyAAZIANkgAwkjAEKtYQ5pBrVPsscc5bq5gieaWvDC6dvsyNcrO2OPibbi5Xt+dTryiBWtbWj51rMvnI+9+J3K9MG6ePK2J28L3q7U6gR8sRAnrsyiCe2t+Hxvg8xuRj9cnEAq9q60P/fHKwsWnFPHyemP4nL2OQHvXi8rQ1PHB5HbjH2Owmo06fv92BV2368n2XfF5fLaktHH5PtamO2WspbpUIti/f3t2HVzgGcuhvVOEzSRuXF/5cT7I8OtWFVm/jpxeDNxWfra//RhVVtAzh1v0rqdjeDI4d68cRO5Zd2rOk+irEEDPzKyeF88q46Hy9CX340KHjdi+H/idPObmLwVcn39kF8tCjscQ09os3uP5cQ4SmfwT3v4dNFYd84XC21NPTxfJ4b/O5Say9m9a1KoXbr4gDWtLWh9Xw2cvbWJG1UY8lddu4rxET7ZTNDR+W9KP//P+Po6evCU8euRfpJ1P/WZWdF7YmBMXy56B7otzG8rw2rXh0psFo4jpe3K0Gkru1Y0zeAwfGZWPYrKUN3L6G9Q5VDu/YWKj/bg2VF+Zg2mjOjf/kQL/R0oPVM1LbhSRzoacOqrndwLWYf8ulJsaLWjqfevb7w7SxmGV27xbGD3H771PuTCamPFI6HLoWWxxHWWh/T1oY1nb1o/+AablXLpFaUH+P4LSqPhfy/cXmL+9jldyHrwHuFtjf6ovqew9Un1LLjeFkMIPeNRg/mTdJGNurr6O9uw4YD++1zRs+cuMlGEGUze896PEG9+DsPKcQGx8O5+atzfs1ZUfQPWsRnL5xeWLF2bVis/rXjhZMZ3LpXfR1bZXiK8HFUe+H/w9uGZWHyZG+8bcPZc2gVq/IDYwXzqgwbpWlDsexgb79N0GSiFI7PnAx7ZmormvZuikDf1zuCTxeBWIvltwS1f+PyFvVxadiv5nbLspOB+TBQdULt6lAHVm3vxeBfox1vkjbKiLfO78eq7ftx6u4Y2sWM31C8VaKofBfz/5096z04MBntq8VsB7tuUUEm5ODKN5i5N4Ox9/faq8erFnQl6zr6u4qt/tGfobxG+ThBA7HQ8ie4fKcGxAA+xrbha0N2e/G1owTXy9QPcezg9LsJ2j5eLMjEfed56pt4vZfF5MQImuWKfuuF6J0zpnZc6PRx/LbQZSp2P+PyFvPxImp/xWzG/3FcUC4Gqkuo/fc72NDWhmfibOkwSRvVkdyXq2n/IbbGyFnzQvv/b1/zn+vZ3o4nenrwVFcHXr4YADlm2skT4iC2c+biVuZDtPe2O2e52jvQdOQabgXLf+8mTh3Zi6fU2aL2LrxwZAxfhs1MxiyDDWCMtE5ZA7OigZnSdmWH+7dx9YMBNHXI+uzsRd9ExEM5WIadHWg6HKybnKUVPro/g1OHe7Gm3SnTmt5BnJoO+EHZ7/4kBvvasaq9F0diTAQYNcqIIBPO2aawqGiX7IkBfcukMQ+xbKbZRAqOyMkIE86mxzGon3eTTE6GrdaZpI1ZN2ObmZRB8RPh47i82CyILbJ3r6HPbuvtaPrgJqzpc2jvaseq7R3ouRJoJ0E7hPU7YZMBsuzO9rP5BbrJ3RxD374et6093tGD1hOZQP+kzgwP4aqym7w6bcATGN6Z1UL9Sf4k0Jen99p948tXNJ4D97EC3D7etR/DBSaTVH5hW92dwaxXXte/0heqz1m1U2zjC9qhSPkC5TWzg2bfuxkM7u/CGntLdTs27B8NX50qcXldO8h6FA0yIZ/TG+xnq98muQv7nedccMtkrPI6/aadrzxrG2WHIL+r2juwQTy7O3sxqPFh+2Onw++XF4/iBdEmxTNuZxdaT3vbTeP7TfpM1HNyFK1aG7+VeQcviOd42DNpDnbw8zCCq9oZ//jl9ftJ+LuojwM8B/ng3/n2pE1oE52B6hFq9ydxQBz67n4H18IEh94ZmKTVv1fgd/thvX0/3rc7NSkCws4aTY6gSQqC/C1sgQe6QVpnEDWA4csDeCIgevJCHt8eCz9bJKKaDQaimhmUwYqZNuy8gd8W2uDqsoiCGBiEFVk5Eg+tZ/LOcTnf99dNipuB9zDYG8hf3O/AWPghe7lVU5Sp1FtbiweZkGebQqKiqTOWa97yVnBNeIhrs6tDcrAR9If2t+/MiwlnYltnAb/l2dkgbdy6iQ7PxGaWQRn0zrS4j+M/eOwB074h9Ons7t2PVv3MoD54jdk2LSnAV+nftfu8wvzp9Sv2+5fn94f0TU7b869uybMseVvXZRnkANiyboa3XY3HsBU2x8/FA4mETiYV2pKsVujytrrLs3BueR3/5v7yXmHWQ7f+RXFhagdp318PhD4Hgu2t9OUN1qd4kAlXCKvJO/0ZrLaDa7zGLq9k/ZljI3i5M/8ZsGHYfx5RnY/Oex4J3nxBZqQ/Xn0Pp06I7bjBvBV7Jn5zxhRrDh11jnXIPNf078cLWr+p+y62HaQNhR3Czhx7djApr5mPi/Ub/F/QlvybTOQzUDVCzdkz3RHrPSwmaSOhuH8NPR1teMLd6igfPG0D/ghh6jxcWweahy/h05wytjbDqR5CJmktC87MrXhgtOHxVwdxavKeff7i1unX7AdFszpgrwTq9g40n7iGL1UZctcdkauX2aQMhdLmbuKICJARGKzYNpUPyrCZUtfmV456trqfQV+x7XZiy6mYWVR1kysxuclzcgCrhX7+n1G8YD9gxUNU2kKkj7pHdhw94qHeOYD3Z5T/SnGNCjIhV2n1qGi5GVz7z0E8JR7Uga2+sXmIbTPFdHDQ4f/bDd5jwpllwREwXei5PIOcmmTJTeKjEwNoFytFql2YpI1dN8d/sW1mUgat3KULJCIHTNLvB/5y0wlCI3ju2I/3p52BuLvaadQ25SA+OMl0/xLaxf3yxFNM9iffs8/trmrvQc+FSenje/hyQk6s6IE9CvYLRXYqxD7rGi+QyOQHA+j5zwy+FH3C3XNoFrbVxIDOo6XOvAX/rz7XJ30Uk9IO6mxnbuac03cF7e7jJ4at49hBiXG7/+vCyxduOpNSt0fz61nu8tr1k8wF7Sfr7gjrwCSmssvke3hK941JeeV31+wUK9DCDg6Xub+847CqTwiqiRmRTnFhWcjdHbef/f52IRmTAuqJ/hGMzYjn8T1cPSLO9Xag7+OALyP9JtkXeXYM4NRtaTNR9953cHXSeZ657980sYOcaBBjB90ORbmPLG+gflZxH/vak/Itr77nHm0UZIp/60xUh1CbGbVnlvyrJgUcaZI2Rmfx5Qd7sWr7XgxrA3dni4CaOXPKYaezV2K8rQ+OoWUnpg2CTNLaM8sqfHTwYLVckVLbcpytIu1ov6hti8rdxmTmQ0fMaAMmkzIUTivPMoVtA5XbrNxtjlG2VmcVCgQBUMEtfHWTeaqzcO65RTUT29aB9suaLaK2rUaVcc7/lw/iQrP2+uBKPJz1n+0deNlXB+3wfQQPRjZz6yZFm28W2d/WTDgTbcBZrWtH62k5aHTv5c/XJK1Z3eLbzKQMTvtWdYjwcZE6+/ORbapNtWOZb5ucpJKsqEGbWdtUgtw/yaS2mM3tLFAWpw4IZrWVcq2ujkDW7leoX5Bt1rdqK/NR7TvyrKsSTwX6EL+dpd/kgD7svk566Q99YC/KJfte3WYOk3475O7exqeXh5xVtrB+UrNVaPm0/8eygxxk25M72nY9tZqqT5yVu7x2fSSv/lVV1WbkpIT2XNJtkBPnwsUzVa5EGpVX7dYQk1y6HcRKrXieaqJ57C2xmyD4rLCgRLpuM8uSuzXEDpVDl3zbep2V2p688/ORflPcqjakngdq3GH71NsWXxI7yHv46+b4JbK8GpPRPla+5lVnm7+TBxMGqkCoqRWpCrwzLXvJngnVt50J4zodsn6ew9u2M6ZWDFRnJgcgXodoklbALIWe6rRVvnlXma8+yPf93oHWCypyoEkZotOGDXKC500ioVRbjEK3B0kb7P0wNNKn82DRZmXlYHDNoUv+LY6Rg7IydR6BwXWeLWR5dYEmzve8cOQcrt0OlikuD4Y2c3mS3wsOTN3/m3Amy/7XUTcwgDiv0zocVi+TtKZ1i2szkzIE/BLlY9d+ge8FP1eDNsW6WhlQLNsDUNX3mLfN/EHYDI7sjbmlPFhW8bdcvQ72kYpxW6hpoj+vrco81aA8f2IneuJA3ctSfUjeNsXCNldb74qdabPr4Ns1IMXpziF4/b1kzNfnapMu25XPCpfFrUeYna14dnDsG7J1O2+VpNzllfUMiAxfHYtOzqkJACVQzMrr7KoJsYN6nroTpzJf1d5026uJUH1bptqt0TGEq8Fnvf5d9/cYfpPn9Nw2JJ8HaqujM95QO0bM7FCQh0ITJjE58/mxmI9dO8yVe37PZ2vac0muRCZeqKkzOu62qyKgmqSNA78zc6U9bAMPYbWS5c6y5c3kZvHRIefsjzcAUeenguGjw9JaUDOhbidesP7hHfjjHV1o2v+Ou13SqbdJGQqlFSslHfaMp1c31akqcZ0fMKCQ3Z0Hq3ooq3zkVQ6CwwShZcmBpjaQch5OIQMj9XBa6Hfg2fcNKY/0pdoa2P/fgXqH+VraIpIHQ5u5flH5u1t9g2Uy4Uz77j2xlfMdtPZ14HHRjvJWCg3SmtZN1Uk75+fWN8zG4jOT8or0ET6OvJ8qhxy0uSs1gXwdtlX0wzm0TTlgV23WeTdkB14OBidR5Ym6BvLz1VNsGxfbld1BcYFBqwzWFP6ie7mi5eahcRIomxqcFxNdvvK5Zxf9uyOCaRybq4GyBWvmQzQFX5mhBvCBZ8Sazh68cPhDuT2ucNmD98z/O44dlH3341TWfy+nDtpqX9nL69w/z3a6zyTrasXMV2e1nbbjqBN0xrC8zpZKzWfqvsGJ04IruTNyy7FmM5GH5L3pAzXp6bezrw72PaP95kxSdKH/L+E2sycK1LZ4Qzs4K9r5dlA8uLtQlH2s6PIG61jUx26+UXbi/4N25d9kQjGQbKEmz4d5D/oijjNJG6fzuHsOrXIfur7Sof+uZrxcoRbYh3/LDf6hrfaorROx0qoBYBvUwEo5Lv9aeNBWMG2sMsh8C6bN3+rhrgLGGFypsjkPFDUADfi54MPUghLn3qFoNVgZ9J8hdM8e6b4I3CcOF3NIUzzIhCxvnNDj4t5KbOqzvGFlMrKZZgeZf+GJERPOtHz1MopAJGIAX3DVTvteWFrTusW1mV5G/fewMuj/d9kqwG8grWI+7Oqs8HjCwWZHW5HyDdoi+5KQtqmLXCmQglu4wspV8LOwVQdZX2cA1wZXdOatZgg/38On76ugDNoWSWUzOTB1z+Spz0OucQKJ+OshzxupQXBInnZ6mx9vwG5PUAWDWhVh0n9Pje1C9wv7PJYdgsJY3SukTyx3ee06yPsWsK8jUEIm5+5eQ0+3M0Hqvj/SqLzSr3n9SxanBpxtju45Mpmv9yx3bPapGyjEz6QSOJHbcJUPY/jN3hruTjRKm7lll3VRk8BGdpCiy82rCA8G5fXzXNzH/rTq/rzSLmTAhIFECzVnkBLvnWkmaeMYyBlchwx0RIemtiO5qw5y8Np9FFfFAXXx/qsTr3lR0NxOWMBpklYFYvAGCYXLLjvljv0Y/izr3/KnOmH3alKGAmntw8niYeoNKr2yqe8MYSxv615YA5XnBsTsqdhOIgJNDL+GfhViW80iirrJQCqujUU5durbYgsNVrxtYsGw4KLcKurXE4P+cwdencLKHeczeV/tTIQ/T1nevIdpeN6Ky8iBgpHNvHtFD0RMOBtH/96jGM7c1F6afQ+3PhtFa55QM0hrWLfYNrMMyuC2JWG7KB979vX7Pv9zW2y4Z3Zkvi4b0vbupIlqZ4F+p2jblLztP4er7/fYwQs+0kJ0R5Uv7/8qWEHvO96qUW4Spw73OCunr76nhYSX5VUBOES6QRGAQe5aCBvQy4Hpqn0fIvRVDpof1NnhwZuOXXO3JzF26ihe6B/BpJbOq4Msz75R+6xRbiaD4cMD+a/mkGWwJ8uuDeGJvHNP3nkmEfxhbNoJ9uTdJ9/Pxv+LYwfZLrxt9uq+IX2i2mJbrvLa9pb3dXlV5XGuztlVb3Ijd/emE0BJRk72TSCYlFelPXAOt2RArdxdjTV9AlHZdf853JLPHpdd+9mi7wqRoiTupJqwgcq/IL/ynJ57flHaTJ1nlnVxhaSqWxy/SR7yJzlCeFDtI7K8fh+6k7IFfOxxnsXYEadPeKJ/tEB7DObNvz370RZL2RbJFWpy60Osd6aZpFUdUrGrDEhSMIy7GiiqWS5L7acPbJPs3e+czdEfDEZp5UBNm1EvBqva+uMOfNQAKC/cfCnKO4LBQ6K+/hlHp3y3MfzrgC1EWQp25uGhgb2tpVl8NOhss8yr2/ZeHPiLNjCSKwb5gxUZlMF9IPo7Pu8dMmH18act5oP8/0UEmVDb8lzRX+xeJjwY2MxtC3IgEsFbfM7kQFjj0PNf8PC+SVqTupnYzKQMup8ifOzaV/9O2O9ywsJl1MnXHWjJfsfbKlaoHRdrm8rHon3OY8ujW6fwtmv72Y5gp9dTDhADPDxxaAR9IsCDK0j172TQp7+WQH7XHbi65VBBa0L6nYKTJNJvvvKETc456TYMDKG1owPN2ruyvPZehMm2Nnh9mV43k99j2EFuy8tbDQ8dsJe7vN62fY9Xvb5FuBGBOgbOBd77aVBeNXng86vkonMQ/okJ5x2pXr/kpBNM9ovXY/jYkfyGcqrXTf89ym9On+M+r+TzQAULUucuve28BnYoxEPBZ6Qod1R59bpF+VhLq6KO2j5Z+F0tXjvVyqT1Hfw/7ZJkBhIq1GQnHtxeEtqwTNLGg9E5e+XtGc93oBzQ6Z24+3Ja58WX9gumJ0fsUMBuJ6zKHzutHEj4hF6xOmSdF0h35r8TK29gE7sMIoS1evGuePGm84JpMbttb8PSbaDqJ663x9G/T71s1fnehiPjBQ+C3po4imfEKktbGx7vEC+IvebMcKo85Yurn5BpVokXXR/6EFeDK3aFtrkVfThZ+PLCAJ7YLt41V+IVteCDV9VHXSO3Gur+NuQhrs1UWdTWtMiBSHzObl37EO19HfKluw4HT+07iuG/3M5jwSStFbtuZjYzKoOyW5SPVbqoqwyu4J7FlPm6A297ABrYKjaHtqm2JPpWLKLKVuz/9ouV/S+6Fv1f2AqYaOf6C+6dF0HLAXCBiZzcX0ZthuyzjWKgt1OIJf9rHew+WrdFWxvWdEYErhEv6j29HxvkCs6a7r3oU+HsffVVoqIdTSeDUX219imYPLIXT3Xk97/zF2oWouxQcDW80IC9zOV1znMFeFV2VYFENDGlzlOH9Q22f2OWVwWIWaP5wX75+vClUCbdl0zbbHWh9YR49sgthzqTsj26EyeqLhHXon6Tu3Pcow22r7zzzMGt0CZ2MOZB1qNoeYN1tctbwMe+tEpgtmPD4RI/Y3330dojP897xuaPZWmvarBJIoWa0znFm+01SbvQDnEjmcUIXmGStlz1SEIZylW3iuVrCzHvwVuxcsR5aMltL6YDkUTXKU6955ummnx8N+OsFMSOWscH+ZLne47twxEK+YEsym1P56yit6Wy3PdbyvlXysdL2eas+9J7JiVPqMkgHmsGxnzvKAmF0yTtHB82ofcN5nX3HNp7B3HKPRsmXvY64mx73B6IwGWSNnifUv2dhDKUqi4Jz8c5H5X8QYM4wzF8QGwvDXlha8JtHKuNlrEOVeHj+7JPEi90DztjVUb7VNo/vH8lBjaVCjIhV8IK7fQg5yVcZamUjyvBM+/JfrRyDCRPqFVhR+pFiMo/HxHcn2+StlwNIwllKFfdkpWvPB+V2EGD2tLlcVuy7XBV2I7nxk7SfRw4d7e9Cz0T+kvgK/fwmZu9Wd7qsFvx7axlq4MKtqGCcSyZfqgS7aJCPqZPSyi2K8EN72na/1GolaTR38PkhUHv7EVbO9b0DeDItfxzOCIcdfy05QI6CWUoV92SlK88H5XYQYN80MrzPHnnAkvSNpLkj3KUJek+VkKtHRv2HcWpm1rgHfqXA55yMSDPcwUnKk0HKMbpZSARNxhHuerHfN13vC64j2l79ltLjAEKtSXmcOMHH+3DTpEMkAEyQAbIABkgA2SADCw4AxRqhG7BoaNYLMfKDvMkV2SADJABMkAGyAAZWEwMUKhRqFGokQEyQAbIABkgA2SADJABMpAwBijUEuaQxTQLwLpwVosMkAEyQAbIABkgA2SADMyNAQo1CjXOnpABMkAGyAAZIANkgAyQATKQMAYo1BLmEM44zG3GgXaj3cgAGSADZIAMkAEyQAYWEwMUahRqnD0hA2SADJABMkAGyAAZIANkIGEMUKglzCGLaRaAdeGsFhkgA2SADJABMkAGyAAZmBsDFGpKqJ1qRSqVQuupuRmSAC4yuy01Hq4PYGMqhY0HbnA2TfUJibjmcOO3Xdi0Om33T6KPYj+1yPqaCM5uHNhIn0fYiM/fpdUm6G/6eykxsKiE2sRvmrD+R10YnUunvtQG5tJG87LZXOy8gN+ZV92WGg8JEmrz8ts8+VKDYiWI7Gu6AZu2DWD0em7BRez0kSafQFPl4oTS0hmoKCbp86Xj86U0CGVdyTUZKM7AohJqo9vEbHMrhZrBYHVeNjO4TyUa4rzqRqG24KJEMTIvv82TSTUoVoLId31sPfZcLd6hqjqU5jqBPWtTSD22EXt+P43cPOtWmjItZP15L+EzxSSFGnlgGyYDZGDpMUChpgY/S21gLutdyUFxaIdzfxZn9r2Ervevz1sozKtuS42HBK2ozctvqj1HXQtwFjYozn0+gWM71zsrW88cxnRU3iX7/yhaxVbHbaPzbguhba1k5Szfg/PO+X14afeH+OJ+9D1M0laTPcKYrKbys6zR7NJGtBEZIAOFGEi2UPtmFpffasWmH610BkmPpbH+xQFc/kpzqBxQ+2a+5TkO9VneuRuVr3buI5127hE+a3kHF1/biqYtW7Hv/J2IQVNE2s8PY5Mo37PHQgZ8OYz8TKwKbsLhz7U6ivIeaMb6tHM+JZVej6ZfjOBGTkujD7q+uozD2zYhvdJL33zgMmZVmrnYLHcDI79o8sqwMo31W17BiF5OO39ncGnbPJfBsW0bkX5MlGMl1r54GJlCZRbfvT2Bwfbn0NT0HF76zQTuqPKqq/LbIuLh8r+Is0fNePdOAV/eeRfNqRTS/3LZ486Ah9z1UQxs24QGxU4hv4UKtVmMbmuw217DthHMflOgjMo/IVdnkLkRA9f9DK98shkD/zXr1cmYyfJwVnBQ/M15dNk21FfsDcsQuw0pO8cUagY8WHHakPKjSdrYdTOx2dfIDHdha1MTmrYPYuK2skvY1SRt2PdDPpNtovXULEY712KlaIfPHsaNbzI49k+yXewc9fpVYbc4vjDM12FyPV7/xP88zGtDut9iPS9MfCHrFvU8VmUwvuYw2tmA1GMNaD+l9QvG+YT4kXl4/SxtQVuQgapjIMFCLYfRnc7DUAku96rPMBsP8Kbx7osF8i0YTOQcdovBgvhpP44vioIelXYah58RwqUJx6YDD5U7I2gWosY3a+8Nlt36KyELDYkeAAAgAElEQVT69AAywcHzJwPYpASaSmdfxWBZ3s/UZt9kMPC0FH2+PJ1tWQOf6PVwHv5rd+5Ba0P+d9Kd58MbyecfYvf/a0LTlma8cSHsQb04eXDOIGm+CbKlBNQhFeTDhIcbGGjM94HNUUMXLuvsqPu4wURmcbnPCWLQsC0wGA2WscjfziBzLTY+HdLmHtPqbcqkVR7OIoVauguX3foalCFuG5J+yGvrertrHMANtwwmPMRsQ3beBmnj1s3O18Bmso53Lr+B5i1NaNraheOZr8P7jzmkLTR76X4ufbHpWf2c4Ho0v7hWOzeoMWzF9IVhvqoNNT0nV3V1FvQ2ZNsgZhmMfWHAg/SFa8dYfztc2Nz7nn/6s4W/m9mU9qK9yMBiYCDBQk123M8dxrRabcjNInNmD57vC98KFGfLVO63zfZDduUze3D+cxkc4JscZo87n0etqO0+/UXRgYJleStqhdKqMjQdmfblpT5v/q0XtCB3qhXpVAoNPzuGzKz8/E4GI3Irlp7WsryB+fqdI2763GwGo796BceUUNMenHFsNvErZ2DS8NwAzk/nlyH1sxHt/Iz2wG14HgPqbM1XI2gVKxKPteedIbzzp0G8FDkQW6Q8nGm3eXS5+0MX0qm13lko+f/2M06Ha8rD4W2tGDiTwaxaybyTwbGfOaJJ5Wl3ZAGhlpGR5hqCKwYaO3E6QCV8xADMZlK0ZbHqIEXg2r4JXxsQecZh0pJCzRGdpeNMldf1h2VBbH08LG3mn2iIz3rsNmQo1Mx4MGlD8dPGrpvNTnyb+fj6/EO8srXYRI42IDFJW4xnzRcbD2SQO+lEBk6l0mg9OYvptzb52m5sXxjmq5iM04Zil8HYF/F58PmtmH19//NW1Frf8z8X55afxoPvPvyc9iQDZKC6GEiwULvsbDUSg/0/hK2w5Bs6eoA3jWPPCrHQjBEl/lQnLmf09QFa2WBW26h82x/ltsd0F85rKx12nQKf2eX6ZsQ5v7JTE61X92Ct2J7TMuLfjqPqGHKNtpkMaBBWBmsCe54UKzb528FSDa0YnfX7KOxe19+Pu7VpkfIgB21KtGfecGbNXQFjDw69WXsjHkL8bbMTxroshxiQZg5tsrd5zVekiXupQebGNzJ+QfbNKFrF6vHT+uqQw0sYJ/ltUQ4cS8yZKq8tAPWVC/H76vYA03HLYNqGVLuR+es7CAI+NePBpA3FTWtat7g2UzbQrvrW6GMZfB2whY8Rk7SF8lGC6sk9mBB9slr1Vf12oB3F9oVhvorJOG0odhnsOpv4Ii4Pmr8K2ZWf+/tC2oP2IANkoAgDCRZqFmZ/34X19vmmFFLpjWj+1WGcLxIiO3qAJwcVvq1D8sESeOj6HvpFDDjXdOc7xdkkbfuj3Pbon7H3VshCB45i8KgGDWLm/71iq4LhD9BomxUfLDpnrDwh4a50FBlcKpvNnnoFz4ntpP/vDVz5Orx8Kq24Lk4eHPuut4WMM5HQ/OLzSElGnUGaEsJmPAib5a6P4JUt673zipr48E1KyMHj2mc2oSGVwsqfxRf7uo+Cv6tBpu9ednuSdQlpi9FMClaKc6mXw4QzVV69vaVXb0LrgdGQM6Fxy1A8XX4bUm2h+Pf0FXS9vL7ftf5B2MSkDcVLW7yM+XUrnl73W+jvX1/H0HaxDf05vDQcEXDIJG1YH+9OXshtx/IZ4Z559j0zDNqmUb7eZEd0GzIog11fM1/E40Gxy2sov2Gc8TMO0skAGSjCQKKFmt3R5aYx8fYeNP80bc/yi0FIoZn+6AHeKNqF8AsZHKrZ0vyHYZkeOH9yVr/USoqz7XEt9vxJv5/Zg1e9c8mkDnFsVizynDsQu6HKbfbwd1fU/vkNXCkaLEDmv+h4kD4WwtYOHNKMd6+Kl087AWVs+254HRm7EZvxYH0ygI1qokMTaGog7+NEDR7fGHHOI5boUL8SPr576XUJaYvRTAoWysNZ4fIqvvVr3DIUT5ffhtQ9in9vLkLNtE+1Ittb8TLm1614+qKD268zeFsFG4paUTNJW+gBqdqEOre5xIWaMTuF7MrPOSglA2SADMRmIPlCTXfmnQkMPCtWorQzPNr/nQGetkql/c8ZAMiBri8ggBgUeQew8weUatBU6qssiz3jLbc95h2izuHdF1NIrd2Diby6hJRHnmdyt83F+E60zeSWl7Ctj9/IrY8+e5oPxOKdUQup7yLhYaRFbgEUA0GbB4cNIeJt/7z4rjwDaMaDM0hOYWPfeUyrM2qCCd9KgLSrPiidHUX76rBAMSE+iGCsoPBR0U/dunl5RzMp0paHs4LlDa1n3DKYtiFli6j8zXgIFUERbcj3ndC0pnWLqpOqe+AaGWxIS2+SNtSvMi+9TWjtJnxFzcAXRvkWWVHLa0MGZbDrPUdfKJuF8qD5QaXjNfaAzNfeaDfajQyQActCcoXa9cNo3TaA0Y9nkVNntnKzmHjNiUTnC4QgYZ7oc4JebPxlYGCqwe4OXt+YsPPNTZ/HwHNeRLpwoeYFCJl3eH6tLM5h9CYc+9w5r7PprfxD1OrA+vqdxzChgp9oefg6dhU1MtWA5w+c94Kw3CkcTCSOzZxtmvkBTY61OHZr0EPHz2EAbdchanC1iHmwfZDuwp7ONNQg0P7smS50NfpD85vw4AieNMThfPtlyXYwngG0bgh5FUVw8Dg76kTtXLkJ/qieZgMxJXyaj3vtOPfJCNp/7ESj9AfDcfKOw+RchFoczlR5w/uBYN3jD3TN2pC6T3T+JjxYJm3IIK1Z3aLr5OvTLAsmEzkmaYP3yfs72CaKrqhZbnCRyL7aMF/FpK8NfX4ee2QkXr0NGfFg0lcb8JBnx0LPq8DnE6+td87G/tOx/GjGgbRzvQe/p/oWXskCGagWBhIs1MT2r5ihxVUn/ocu+3yN2tqlrmrwaztFPCTztoM14PlftNr3Cx+gRYXc14E3SCuF1fMvNocHOBH1Khb6OuR1ArOnWkNtkErp58i08saxmRq0h/mjUICFGGfU8hpJsQAAcnCjfOq7BkPNVxkPasuqb6XYjv4oVrVS2OiG5jfjYfrt57Uw4lpbkvz7WA8OHoUN1dbJkIAdeb5TNg9c1SDT5y/JUcGw/3GYNBlkBsrke19fYAudKq/PNsHvu38biA6jNqTaZ4z8TfoHkzZkktaobjHq5NrXgrs1OvI9amZpY/EbbBMRQi12X22Yr2IyVhsy4cGkDZnwoPkvlp3t9Dd8r4AJm4iNn5dqP7zSZmSADFQ/A8kValYON377Cpo2eGfTVv4o4kXPloXpk6+g6cdie6Q3MPUJNftA/R40PemsKqx8sgmvnJyGJR9E4QM0b0WtUMh9rzGYpFUvuE4hVUzYqJfJqhc9a3ULK+/sHw6j9acN8kXTKaz80Sa0vqW98DrwII1jMyvkJdrhL902G4h5dpON6f4szux7CV3vBwMFLGIelCjzbSGVW8pCxLgVmwf/S6ZT6QZs6jyGiT+8nj8pERw8SkZc4Z8nyON1fmGDTDs4h+BRrZQHeBRMRDNZHs5UecPaVR6rJgNdUcfYbUjZNmYdY/Ng0oZM0prULWadFH9n9+Gl3R/ii/vKJoWvswZp830Zkm+wTUQJNVHmOL4wzDf3ybvY8+ImrF3tPdfcNhTSdmKVwf6eiS8MeQgrV8RnuTPt7iRjvPYX4rOIe8TyO/PgdjMyQAYSxECChRo7YT5UyEC1M2AmfOjvavc3y0+G58TANzlM//4VZxfNY8/j2DTtOCc7JmhwyfKTYTJQGgYo1NixceaEDJSNAQq10nTUfODRjouVAdVHOLtgVmLTocA7F9k/l61/XqxMsV7sLxcTAxRqfAjwIUAGYjIgt0ppW2/1Lcb+3513v6lBGLcy8cG5mB6crEsYz+b9g7Cj3UesTGP9lldw7E+zMfuisPvzM3JJBsjA4mOAQo2DdD4YyUBMBswHYhRqi++hwYEAfRrOgHn/EJ4P7Uu7kAEyQAYUAxRqHKTHHKSz0ahGwytZIANkgAyQATJABsgAGSg3AxRqFGoUamSADJABMkAGyAAZIANkgAwkjAEKtYQ5pNzKnPlz9ocMkAEyQAbIABkgA2SADCSfAQo1CjXOnpABMkAGyAAZIANkgAyQATKQMAYo1BLmEM5uJH92gz6ij8gAGSADZIAMkAEyQAbKzQCFGoUaZ0/IABkgA2SADJABMkAGyAAZSBgDFGoJc0i5lTnz5+wPGSADZIAMkAEyQAbIABlIPgMUahRqnD2RDNz4zSasTKXQ0DmK3CLjYjHXjQ+a5D9o6CP6iAyQATJABsiAOQMUaotsQD7vRnCqFalUCq2nzGGa970r6osbGGhM2XVPpVoxWtGylNr2pa5byIttt41S8C8qZkrNIPOr7v6R/qP/yAAZIAOVYIBCraSDqyzGR1vQuK8Oy/91uGID14nfNGH9j7rmJjYSLtTmVbcIX6tVp/W/uJz4FTVTO8StW7x8KdQq0VnznhwkkAEyQAbIABlYWgxQqEUM3s0aRAbdvTWo2VGDmoOVE2qj28TK0BxXhRIu1OZVt5L6urIdRbnsYJ6vFG1cUavYxIxZH1VZbllW2p8MkAEyQAbIQHwGKNRKOninUCt34zMXEvEbQ7nLXsr8y2UH83wp1ErpV+a1ONsr/Uq/kgEyQAbIwFwYSLxQy94YwlaxlXCXXKnaVYv00BCm7gcc/tVZ7D5Yj9pOlW4ZVuzbiqEbWd9M9/BB5/91x8cxdX4z6rtk+v+fvfcNjqO697z9Yl/4pd/55TpVt+pR1b6It6auU37qcWUqXNUDGy+wUVEl3VCx2SpU3gfYeNEmJVlF5H9RRExiLOIgYG3BdXTxgrjIuIJlcCybi20RHNBVHGpgHcsKRhiEjTLXdvUNgd9Tp/ucntM9PTPdoxmpR/q8UM1opuf06d/vc06f7/n9zunda+Tu4xOBY12DXpuQgcNZaTLHbV8hq/ZtloHcVf/Y3JEmL4qmImkl/pqO5PzjEzvq5qycf75LNn1rvbeGal1WWh4elPOfWDbQkTC1vqzUX9uBqWAdTLm3Z/3fZLPeOaLXqF2Xt57cKu1btsr+M9eDZRUJ3pjHmjrU9No88eBebz4nw9vaJLtO2WW9bHx4SHJ5y25O/DS+qQNtksm0yeDFWTl/oENasp6t19/VIYO/my22R35KRndvkuz6KJ+ocux6xHif2Mcxry1xuXZdYwg15WPLXplsi7T/dFSmAn6wy0zyPi9ju5sls65Zek5E+KCIyyRlc2zivgp7F/cD2ASbwAAMwAAMVMlAqoXa1XOtsqqE8Gk9Zw2iLvbJN4yQCx+/c7Vsfrsg1oxQW9m7KkJUrZIt71jlfj4imy2BFhRhrTKijV5foZaXsR3NvpAKiDA73SzxYHtGXnm4RLklNxN5Ux5vb5d29ddzRD4qC12cY+t1bZ542LijX7qai0VSdvcZq8OIKWYcRzyhlpWW70TYbV2HjF632HGmZPDe4nMX/LdchNqsjG2LsJeaULh3UHI3bZtV897y331DMlOWyWrK5zeINRiAARiAARiAgcVhIL1C7dqzcrsRX3s2y+FLWmzNTcv4bzbL9reNwaZlYL+OZPXeLQP6uLmpAbnbiKw9nTKhB3BGqLmia2+nnFZRqfyIbNaRuJX/eNofxM+N3a7F3GrZ+o4+/605mb4wIFuf2OoLtQK89Uh91APRB4ZkxgiB/KzkTvXLg/uid9qLk76Wf7XDFX/r7+uXMx/mvWu+mZfZI97nlSJqj5/8yLdT4fqNT9RrIaJW+tj6XJtjR8maH5TBszPe5iCfjEqXioKt6ymx0Yqujy2ArYG/J9Q88dWyQ0eE8jPySqcXkew6bl3/b3slm8lI9v5BmdR+y78/LB1KODb3yvl5CpQ4Pg76pfy1mWNrXW7+RJdrh+YfDEtuVnN2PSejO1pc/jpe1Z9ZdjZ1ifdaiKh1HZ2pwKTln6rPRxnx/IKdsBMMwAAMwAAMzJeB1Aq13NG1WiStkc5cGUd/PCBZHUX7xrHpwECtILSapO+SV4Yv1Ha3yuFrhXL9z+1NQM60+lG3VU92yogRiyUHefUQauelV4kLJTh+Gy+1q/Jge0aG71eCJRwFcsTRkblooVaw13zB835fj2tTddSipLlLxmaDdS5vm/Jixgi15m1jMmszoG1mp5ZOPafSJIsfc1BInwzWK6k9y19HVNnlr82cv9bluuVle+VMWJjeHJUuFVXbET3ZYOrDa5Qv+QwuYAAGYAAGYGA5MJBaoeYLp0c7ZdweFIffv71Zi6km2R5e83OpT5q0iDOpkn65e/skZ5Xlf24LtVsThV0cTUrlzlWy9mCfjITWvnmw1EOoOTJ7tlda3DVWGclk26TjF0Ny5mLpSETlwfak9G/MSKZ1UKYsG7jXsKBCrR7XpjqueKKkuIGX/50RakUiNkKoOad6XKGWfXhYcuGIWqZDXjHR0bD9Y/5f2cfhDrz8tRlb1LZc+/ltJdJA7x8mXTGmz42PeA2zzf8wAQMwAAMwsDQZaHyhds5EvSKE2sXtvlDbrFMlfUEWR6ipAdStqzL+m065fV9oTdtOlQ4ZhqI+Qs1tfPkZmXypXzq+l5X1esOQ5h2hyI4e8FUebI9JjxJ+KRBqtb825ZN4oqS4Uyv/u0RCzcnJU/dEi5Pmn5wPRH6L6xHmqvj/yj4O/6b8tZk61LZchJqxK69hHvkfJmAABmAABmCgEgOpFWrjL66Ol/poRc1uHytsGqIufPrYN3QZWRn42IMhsVCzZ7vz0zJ+7O7CBidFD7W21svZkTm7jFq8vz4pg/erdVEbpf/dYsi9wXa7DM8Uf+cBoQfQ2V45H6hPYeOHoqhR4LhS5dbg83lfm6pDPFFS3DjK/y6RUPttrzRnMtJyb2HXx/Xf2iRdz58Ppk1WadfKPg77ovy1GVvUtty8vPJwRjIb+2Wyyus09eI17E/+hwkYgAEYgAEYWOoMpFaoOblOWWPSDfsKm4Q4ejOR1mNmu/sJ6dwTsZnIJWszkf0DMq0HikmEWu7Y3ZI9PCDj01dlTv9+7r1ClG5FkVBzxC9/d6s8+1FQOFYF08Uh6do2KGPvzUrerPPJz8rkk94aqJ5TxY10ct9GN+2u7ednZKbEFujnf+JtgNH29KRbbn7mjAw+UNidL1qoFTYIqcn2/HW6tjQItbEdGcls6JBXpmZk5pPSaapVMeE4EsfHwbLjCbValzvz/CaXxZYdwzJpNq2psWibfLLFjTI3f3+4BrtIFrenoB35HnvAAAzAAAzAAAwsDAPpFWqOIxNHzIYixc8ns59LNvf2Zlltdog04s689mZlQG8koqDyhVSM1Mey2+7vXCt94TVxjiNzp+/2NyCxt/O365sI7ouD0lbq2Wildg/U0ZzCVvBeCp692YWjyjXr3vzym+XBn3a554sWanG23Dfgxji2XteWJKKm15eFbWX+t22WJKI2+QtPLJty/Nd1WWn+Xq+MfmjsVOVrHB8nuDafyVqXezNX9jEF0ZwlsUnwMQhRExf+tdVYIFJuEj9xLLzAAAzAAAzAQFIGUi3U1MVMv90nrftWy0ojxHavcR94HXxosSPeg7HXWMetlrUHH/e237cGaEmEmpOfltFjmyX7M2t92u7VsvapzqIHaRcMPycTv2mVtX0rA4KtaqHm5GXq1cek/Z7C2rT136r8wOCZ449J+3cKD7JWQsEWHaq+s2f7pf0u7wHX6+9ql8eOz4gr4CJ2K/SurxBRK73lvmmEcY6t17XFix6515RAzCQRas71MenaoHbWzErzxoLvfMGW7ZKxeW4oUtHHCa6twK8jNS9XPfj7p+3SYh5q7k8MFO+Kadcj7vv8qR43zVTZdv7Cz/DLa1z7cxyswAAMwAAMwEB9GEi9UMPx9XE8dq2nXfXjD7JdMqqe02dNFDj5GRl6wItwEv0J2ca2U9z3N/Myc/YxL+q87sEy6zJrcK64deK4IPPYA3vAAAzAAAzAQFUMINQApypwAuIDG4ZsqCN62Q4ZttcWqgeKv6cfep0pt9kLoiIOXybC6UUp18um58y6VewXx34cAycwAAMwAAMwkG4GEGqIjJDISDewjdGhBNdN+emOVspfyy8msbvf9rSwtewTZTPvsy4Z079zhdr6rLRseUyGfx/vYfCNwQ9tED/BAAzAAAzAAAw4glDzB4s0CBpEDRkw67Jut9YJuhuJdMngqSnJw50lVKsTavBaQ17h0eIRu9K2YAAGYAAG0sEAQo0BCgMUGIABGIABGIABGIABGICBlDGAUEuZQ5jBSMcMBn7ADzAAAzAAAzAAAzAAA4vJAEINocbsCQzAAAzAAAzAAAzAAAzAQMoYQKilzCGLqdo5N7NGMAADMAADMAADMAADMJAOBhBqCDVmT2AABmAABmAABmAABmAABlLGAEItZQ5hBiMdMxj4AT/AAAzAAAzAAAzAAAwsJgMINYQasycwAAMwAAMwAAMwAAMwAAMpYwChljKHLKZq59zMGsEADMAADMAADMAADMBAOhiogVCbksHWjGQyGcnevkl6j8+gxhF/MAADMAADMAADMAADMAADMDAPBmoq1JRYy2SapedUHqfMwynMYqRjFgM/4AcYgAEYgAEYgAEYgIHFYqAGQk0772Zeci90SFaJtR1jCDWEGgzAAAzAAAzAAAzAAAzAAAxUyUDthJpbgUnp35iRzDaE2mIpb87LrA8MwAAMwAAMwAAMwAAMND4DNRZqer1aRaGWl7HdzZJZ1yw9J2ZR2VWqbBpg4zdAfIgPYQAGYAAGYAAGYAAGohioj1DrHK0gvsaky13PlpHMfUMyg1CpYC/gjYKXz+ACBmAABmAABmAABmBgqTJQY6E2I8P3ZySzrk36z85IvqQAK0TUuo6yS+RShYvrouOEARiAARiAARiAARiAgeoYqLFQc8R5f1g67lrvbtevdoFsOzBFtKikYK3OacCO3WAABmAABmAABmAABmBgaTNQe6H24SvShVBDnCJOYQAGYAAGYAAGYAAGYAAGqmagxkItL6M/8FIfn/o9z1JjlmNpz3LgX/wLAzAAAzAAAzAAAzBQLwZqLNT0ro8VNxPBofVyKOXCFgzAAAzAAAzAAAzAAAw0PgP1EWoVt+d3ZPLJFlmfyUjz94cld7PxDUljwIcwAAMwAAMwAAMwAAMwAAO1YmCRhNqUDN6b8Tcc6TmFQ2vlUMqBJRiAARiAARiAARiAARhofAYWSag5kj/VI836WWpdJxrfkDQGfAgDMAADMAADMAADMAADMFArBmos1M5LbzYjmUqpjzfzMnP2MWlTQm3dgzI8g0Nr5VDKgSUYgAEYgAEYgAEYgAEYaHwGaifU8jNyZl+bm86Y/cn5kttQTh3wjlHPWMtk1sum53IljwWwxgcMH+JDGIABGIABGIABGIABGEjOQA2Emt7pUacxZjIbpf/d0hVxhdr6rLRseUyGfz+LSOPZEjAAAzAAAzAAAzAAAzAAAzAQYqCmQi37nXbpP4X4YsagtFDHNtgGBmAABmAABmAABmAABiozUAOhVvkkOAIbwQAMwAAMwAAMwAAMwAAMwEB8BhBqoRAj8MSHB1thKxiAARiAARiAARiAARioDwMINYQa+cAwAAMwAAMwAAMwAAMwAAMpYwChljKHMCNRnxkJ7IpdYQAGYAAGYAAGYAAGGokBhBpCjdkTGIABGIABGIABGIABGICBlDGAUEuZQxpJ5VNXZqVgAAZgAAZgAAZgAAZgoD4MINQQasyewAAMwAAMwAAMwAAMwAAMpIwBhFrKHMKMRH1mJLArdoUBGIABGIABGIABGGgkBhBqCDVmT2AABmAABmAABmAABmAABlLGAEItZQ5pJJVPXZmVggEYgAEYgAEYgAEYgIH6MIBQQ6gxewIDMAADMAADMAADMAADMJAyBhBqKXMIMxL1mZHArtgVBmAABmAABmAABmCgkRhAqCHUmD2BARiAARiAARiAARiAARhIGQMItZQ5pJFUPnVlVgoGYAAGYAAGYAAGYAAG6sMAQg2hxuwJDMAADMAADMAADMAADMBAyhhAqKXMIcxI1GdGArtiVxiAARiAARiAARiAgUZiAKGGUGP2BAZgAAZgAAZgAAZgAAZgIGUMINRS5pBGUvnUlVkpGIABGIABGIABGIABGKgPAwg1hBqzJzAAAzAAAzAAAzAAAzAAAyljAKGWMocwI1GfGQnsil1hAAZgAAZgAAZgAAYaiQGEGkKN2RMYgAEYgAEYgAEYgAEYgIGUMYBQS5lDGknlU1dmpWAABmAABmAABmAABmCgPgwg1BBqzJ7AAAzAAAzAAAzAAAzAAAykjAGEWsocwoxEfWYksCt2hQEYgAEYgAEYgAEYaCQGEGoINWZPYAAGYAAGYAAGYAAGYAAGUsYAQi1lDmkklU9dmZWCARiAARiAARiAARiAgfowgFBDqDF7AgMwAAMwAAMwAAMwAAMwkDIGEGopcwgzEvWZkcCu2BUGYAAGYAAGYAAGYKCRGECoIdSYPYEBGIABGIABGIABGIABGEgZAwi1lDmkkVQ+dWVWCgZgAAZgAAZgAAZgAAbqwwBCDaHG7AkMwAAMwAAMwAAMwAAMwEDKGECopcwhzEjUZ0YCu2JXGIABGIABGIABGICBRmIAoYZQY/YEBmAABmAABmAABmAABmAgZQwg1FLmkEZS+dSVWSkYgAEYgAEYgAEYgAEYqA8DCDWEGrMnMAADMAADMAADMAADMAADKWMAoZYyhzAjUZ8ZCeyKXWEABmAABmAABmAABhqJAYQaQo3ZExiAARiAARiAARiAARiAgZQxgFBLmUMaSeVTV2alYAAGYAAGYAAGYAAGYKA+DCDUEGrMnsAADMAADMAADMAADMAADKSMAYRayhzCjER9ZiSwK3aFARiAARiAARiAARhoJAYQagg1Zk9gAAZgAAZgAAZgAAZgAAZSxgBCLWUOaSSVTyhWXukAACAASURBVF2ZlYIBGIABGIABGIABGICB+jCAUEOoMXsCAzAAAzAAAzAAAzAAAzCQMgYQailzCDMS9ZmRwK7YFQZgAAZgAAZgAAZgoJEYQKgh1Jg9gQEYgAEYgAEYgAEYgAEYSBkDCLWUOaSRVD51ZVYKBmAABmAABmAABmAABurDAEINocbsCQzAAAzAAAzAAAzAAAzAQMoYQKilzCHMSNRnRgK7YlcYgAEYgAEYgAEYgIFGYgChhlBj9gQGYAAGYAAGYAAGYAAGYCBlDCDUUuaQRlL51JVZKRiAARiAARiAARiAARioDwMINYQasycwAAMwAAMwAAMwAAMwAAMpYwChljKHMCNRnxkJ7IpdYQAGYAAGYAAGYAAGGokBhBpCjdkTGIABGIABGIABGIABGICBlDGAUEuZQxpJ5VNXZqVgAAZgAAZgAAZgAAZgoD4MINQQasyewAAMwAAMwAAMwAAMwAAMpIwBhFrKHMKMRH1mJLArdoUBGIABGIABGIABGGgkBhBqCDVmT2AABmAABmAABmAABmAABlLGAEItZQ5pJJVPXZmVggEYgAEYgAEYgAEYgIH6MIBQQ6gxewIDMAADMAADMAADMAADMJAyBhBqKXMIMxL1mZHArtgVBmAABmAABmAABmCgkRhYWKF2qU+atq+QFYG/VhlBLMWYwfiLnH5YZMUKkdX/75eSW1I2a8xrmzneK5tuz0omk5FM66BMLSmf0JE3UkdOXeEVBmAABmAABpYeAwi1Wgyu//ClNK3wRFTrSyFIXvrKFVdKYPX9IfRdonP/VVr1OeZf1nzqUY/fxr22v8jEc19K6zdFVv3Xv8YQt/Woq1dm/kSXZJVAM38ItUX1Bzen+rGObbEtDMAADMAADCwOAwsr1CxhkjvSpCNrSyCitiBCrTGjTvEadtxr+0L6/oMniFf8/eIKtbEdSqRlpeOFnORvLk7jjWdb6oadYAAGYAAGYAAGYKARGUCoWeKxagcuiFCjgTlOioTatoxkNvbLZC34oQyicTAAAzAAAzAAAzAAAyEGaibU5qYOy9b9TbJqp16DtnO1ZA8flulb0QKjckRtTnJv9UnrvtWy0i9zpaze1yqPT14tduS1CRk4nJWm3sIauFX7NstAbp7HhgwWKeYSCrWRv/eiQk29X8j0//5K1q7SUaKVInf/8ovgtVmpkyrl0fv7qmhd38S2wncD02GbfyGd/977fmW7FYm68Rc5/XPr/P9OpOmuL+X0R/8WXYfVX8r4jS/k8H8VWanrslodfzV0vqtfyMB//0qazHWtEFmV+UoG3vpLdLn+dak6Fl9brtdcW+lXZUvlm6rsEMfHoWPGlFAj3THoz5CNItsKx2AzGIABGIABGIABGIjFQE2E2tVzrbIqsEFIQSy1ngsN4rVjKgq1yI1HjAhcK32XrHI/H5HNlkAru1lJkmPjQlSlUFtpCZmCCBPZctISSjGFmvPHL+UbWvBkfxkSRL/7Utbo77ac1Ha78YX0rSshfFZ9JSO2+PLr8JW0apFp13fl3/9V5oytPvurbC5xXUUizC/Xrsf8hFpZO5z5UlZrO3T+zuLH1D3B62gnQg0hNj+GsB/2gwEYgAEYgAEYKMfA/IXatWfldhPx2rNZDl+a8xTi3LSM/2azbH872gGVhdrj0nqwT0Y+uCpzOio39952WavPtfrFcV+Jzo3drte7rZat7+jz35qT6QsDsvWJrYHoU5Jjyxku8F2VQs0VOxkdwZr7q2xe6QmWlf+fFfWyxEMhslQsZhznL/Lst7Xg+eaXMm39zo8y/fsvZUJ/Pv3LwiYnnSc9YTc3/aW0apEViLyFBNXdT38hc86/+btQ2gJs7rlCuVuPa8F44y8yfeZL2fp/fxnwhW3D8tdmGIqT+ljKDv8mo+3aPuuC9rHrEed9/v1h6chmJHP/sMxYdo7zW44xvuQVFmAABmAABmAABmCgHAPzFmq5o2u1SFojnbn4xq4o1CIHwDnp26ujagdHfKHmnGn1t/xf9WSnjBixGFVGkmOjfh/1WbVCbeVXctiKXJmUyFIbZVQSMwWR9JUU0h8LaY/f+LlJq/yLDHzTEy2rfxgUhf45VJqjuVZLqDXtNGU44pz8yk+B9He0/N8Fobbqti9l5F9C0T1TZujVP29E6mMB4DhCzZFIO9z4q2zRQvju5+LVqXBej+upA23+Lo/r7+qQ4ffj8x4ui/+xHQzAAAzAAAzAAAzAQDkG5i3URg5q4fRoZ2FgHxqER1UgjlC7mhtw172t3l1IpfTTGm2hdmuiIOBMCubOVbJWReSmdITN1CnJseY3lV6rFWr/Ifg8tPkKNccSI7cbMeKnPdriLbgdvp3GWHhvRe0soeYLslI2USmVGR25MmvP/p3I2r//Ukb+YKV0hn5fS6Fm28FPAzXXsPIrGb1RXaeAUKvOblHtn8+wJQzAAAzAAAzAAAyUZyC1Qq3cujdXrNlCTQ36b12V8d90yu37VvnRNfe4nSodMmSEJMeGBEUkUGkRavZmGt/+0l035qc93uX979W/jkJN2evGX2T86S/l9rBgWyGy1V5/Z9m2pkLNtoObBvoXefYuTzyu2WZFBK3zR/o18vu8zJztl7Z1Gcn8YFTykceEeOOYQvQbW2ALGIABGIABGIABGIjFwLyF2viLq+uQ+jgh23+mo2h7t8roRyYqViL1Mezs/LSMH7u7sMHJP1hpkvM5Nvxb8/9nX8rtJTbysNPwRvTxfuSs1hE1Vb4VQXv2s0Kq4JbjdjTrC9n+f3nCJZDKaK4n/GqiUdU8tHvuCxnv/0pWmeja94KplkYgxRNqhZTNUumhpjzbDo//S8E/891ExCs/L688zGYivq3DvPB/rM4X+zGhAQMwAAMwAAMwUI6BeQs1J9cpa0y6Yd/dMmDWh+nNRFqP5SIHLeVTH8el81Et1J4akOm8I05+WkaPZAviy4qo5Y7dLdnDAzI+fdXffVBtPNJk6mUJtSTHljNc8LuCIFqx6is5PO2Jornpv8pW84BmK6JVV6HmfCGP690c7972pTQpgWSvN9ODaD/StkJky5EvZK5cOmACoZb7+VeS/e9fyvj7f9G++DeZe0vXQ9VlXkLNEd92K7+SZ7Wdg74wDb5gh1VmF8p5biJin4ft+Y2debW54D08wAAMwAAMwAAM1IqB+Qs1lWZ2xGwoUryWrOlIQagVxFnxcW6a4t4+yWkhcfofQymMRnSZV1uoHWkKpjuaY9TrzrXSd7EATNk6hI5NYuSrL1lRIxM9Mq//7isZ+GOhDr7YiBFRK0SaQuu+TNmhMlSdC1G8Mul+ahv91SXKXCFinkvm2iCJUKvwzLO+fylE9mpxbWZNXaC+mqGwHardRCSKA4Rageco+/AZ9oEBGIABGIABGICB+TFQE6GmnDD9dujh1LvXuA+8zqlomB44lxVJSlRZQs25NSHPHlxbeNh171ppPXZaThtRaAk1N9p2bLNkf2aJu92rZe1TnXI4vJmIiszFPVbX29S//Ou/ydWTX0prpvAw6BV6E43wA6TrLdScz76Uu42QW/GVPG6JxMA1zH0hh0MPpo4UPgmEmjP3hYyqqJpOrXTLWymy9ttfyuHQZiLVCDXH+TeZePorWRsSmVFCLWCHf68e1l1gMWCHRH72ykCo1c6W8/UFv8cXMAADMAADMAADS5GBmgm1pWgcrqnBG/3Vwtq07C/nu4lI0BauUMv2yvkqRB5cBW2JPbAHDMAADMAADMAADBQzgFBjoO1HPJdUA/nor9Jpdp2scTRN2en8T7LuM9Xa9p2RGStqvKRsSNtYmm0Dv+JXGIABGIABGGgIBhBqgNoQoMYWQFaapknjtNfFxS6nEhfv9svGTMZ/AHamdVCmKv2G75cWa/gTf8IADMAADMAADNSRAYRaHY1bM1FAHeN3ApZQW/PNr+TwHwubl9TaH7On+qX9O15kDaFWHK6vtb0pDxvDAAzAAAzAAAwsJwYQaoig+CIIW2ErGIABGIABGIABGIABGFgQBhBqgLYgoC2n2Q+uldk+GIABGIABGIABGICB+TKAUEOoIdRgAAZgAAZgAAZgAAZgAAZSxgBCLWUOma/y5vfM3sAADMAADMAADMAADMBA4zOAUEOoMXsCAzAAAzAAAzAAAzAAAzCQMgYQailzCLMfjT/7gQ/xIQzAAAzAAAzAAAzAwHwZQKgh1Jg9gQEYgAEYgAEYgAEYgAEYSBkDCLWUOWS+ypvfM3sDAzAAAzAAAzAAAzAAA43PwJIQaiMHV8iK7Stkxd4+yVUSXpf6pEkdG/hrlZGyv5uT0y80ub9Z/dRA5XOULavxoaHh40MYgAEYgAEYgAEYgAEYqC8DCDVXsFUSaiPS6gu7Jum7VF+nAD32hQEYgAEYgAEYgAEYgIHlzcDyE2pWtCt3xIuSrdheSagRUaOjWN4dBf7H/zAAAzAAAzAAAzCwsAwsLaG2f0CmLSFWCab4Qm1hnVKp3nyPP2AABmAABmAABmAABmBgaTOwoELNrCVrOjIh02c2y9pevVZs9xq5+8hpuWqJLHNseN2Z//nBEX9nmsJnh+XqRJ/c/Wjpcm2gKwq1c62htWyq3PLRt7mpw7J1f5Os2qnrsHO1ZA8flulbUSBdl7ee3CrtW7bK/jPX/eux68j7KLvxGVzAAAzAAAzAAAzAAAwsbQYWRait7F0VIYBWyNqjOV+s+OIrtEGI/3mUUOtdJav8tWRaKG0PlmsDXWuhdvVca+T51cYlreeiQHpTHm9vl3b113NEPrKEql1P3kfZjs/gAgZgAAZgAAZgAAZgYOkysChCzduhsVNOf+KIk5+Q7XtNBGyLjOrIky/Ikgg1JdL2li/XhrmiULOEU8Vjrz0rt5so2p7NcvjSnCc656Zl/DebZfvbURAVImqPn/zIF6l2HXkfZTc+gwsYgAEYgAEYgAEYgIGlzcDiCLVHN8voNcuwfophk2y/6H1elVCLUa4NdEXxlUCo5Y6u1VHCNdKZs67NKsM+N++xEQzAAAzAAAzAAAzAAAzAQCkGFkeohaJkjvVsM5MiWJVQi1GubYhaCjW/vo92yjjijOggDMAADMAADMAADMAADMDAPBhIh1B7r1NW67Vlm3WKoC98QuLL/zxqjVroWCeiXIQasxY2A7yHBxiAARiAARiAARiAgTQykAqhNn3sGzptMCsDH3ug+ILMFl/5UdlidoqMIdSiyrWdUMuI2viLq0l9nMeMge0X3tNZwgAMwAAMwAAMwAAMLHcGFkeo/Wy7TLibhszJ9DudstZswmE9B23iZf0w6t2tclhtOvLJaek0m46o6FuUUItRru3wWgo1J9cpa8yOk313y0BoM5HWY4UdLQt1KGwmwvb8dEYFLrAFtoABGIABGIABGICB5c7A4gg1I2js196sDFyygLSFj3Xcmj1rvMhVlFCzjnN3llT/q3L1BiXK2QVxVti+3z9WHW9F8JIcq8qeOGI2FCkuu+lIlFBje/7l3gC5fqvNE5Eljx8GYAAGYAAGYAAGfAYWR6iZCJorpJoke3hAJuxdILWD3Idi79aip3ettP5mQubMDpGWUJs+1ymt+5tktTnWKndcReMshycRX0mONeeYfrtPWvetlpXmGnevcR94ncsH6+EdX4iosT1/lH34zHDFKyzAAAzAAAzAAAzAwPJiYHGEmhW1ArjlBRz+xt8wAAMwAAMwAAMwAAMwUJkBhJoVbQOYysBgI2wEAzAAAzAAAzAAAzAAA/VnAKGGUAukhtLo6t/osDE2hgEYgAEYgAEYgAEYqMQAQg2hhlCDARiAARiAARiAARiAARhIGQMLKtQqqUa+Z2YBBmAABmAABmAABmAABmAABhxBqKVMOQMlHRMMwAAMwAAMwAAMwAAMwABCDaFGmBsGYAAGYAAGYAAGYAAGYCBlDCDUUuYQZk+YPYEBGIABGIABGIABGIABGECoIdSYPYEBGIABGIABGIABGIABGEgZAwi1lDmE2RNmT2AABmAABmAABmAABmAABhBqCDVmT2AABmAABmAABmAABmAABlLGwLIWalO/2iTrMxlp3j0m+ZQ5Zr6zKKm6ttkx6bqnS8ZmI2ZGZsek596e6O+WmE/m61N+H8EPjHBThQEYgAEYgAEYWKIMLGOhNiWDrRnJZNRfl4wtKQen6Npu5mTw3oxkmrtk9JOIgfaHr0hHs/d9pJBrAL+MHFwhK7avkBUHR+bfUd66KqePtcraXl2mKnf7Cmk9F2G7WtrmUp806XO51+K+b5WRWp6DsubPBzbEhjAAAzAAAzCwbBhIqVAbky4loFoHZaoIRi1CIr9LNpg1UaeWn55fshG1Stc2+at2aflWb52E6qyMbWuWzLo2GXy/jG/eH5S2dRlp3jYms0X+LvO7lBxbO6F2VUYOrvJEX0g0pU+ozcnEWKe07m+SVf9QA4GaEl8StUx/e8NH+AgGYAAGYGC5MLCshdpycXK56xzbVr+IYv5El2QzGWl7bqrizEfu6TbJZLLSdXy24rHlrmcxvquZUJvuk7VaoDUdHpXp/OJ0xLkjTVoslouo5aRvbw0jiQi1huN+Mdoa51ycPgG7Y3cYgAEYWBwGEGrLfIBYP6E2Kf13ZSRzV79M3owB983z0qtSINXxDeaTmgm1c61aIDVJ36UYNquTnRBqi2d7boTYHgZgAAZgAAZgwDCwJITa1AEVjWmTwYuzcv5Ah7RkvbVn6+/qkMHfhSM0Oq3SXZum16htGyuezf5wSDapY+4flpmiAXFeRn+gfrtJhj60YLoZPH8m2yLtPx2VqaLIiFeHtgNT4uRzMrytTbLrVHnrZePDQ5ILH6/Kfb5LNn1rvbembl1WWh4elPNFa75iXtuJLr02T1+/bQv93q2buu5q7KB+d7bXjaZten6m2LZF9vRsOPP8Jjeq1nvWsmmJYw3AC/6az8nhw1lpsteQ7SwRWQqvN9u5Spqe7pPTRX7T1xtLqM1J7q0+ad23Wlaa8+5cKav3tcrjk1cDtvYF5N4+yVl29D8vsaaunFArfBdcQ1dY17ZCmo7kAvXwfJSXsd0qDbZZek6E22SK/W3ZbcFZ49wRHMEKHMIADMAADCwfBpaQUMtKy3eaiwXIug4ZvW47NKaYcWZk6D4lZNpleMb+vSPO9VHpUMLqviFLxOn1WBGiJ3PvoOQCUSWvDht39EuXiiKFfpPdfcYaoORlbEfEdanfFAnMmNeWRKg5MzJ8v6pjSJSqQaSxww9Gi9b4nf9JNtp25QafM8PSnslI9ifnresP2b7c7+v93bURabUFWmgdWWAzkVsT0revhJjpbZWRa/q6IjfxCP3OFlrljt+5NhCJ8wWZ/XvHEf/zBRVqFpuBdpMi/9abH8pPZ7vGL/gFBmAABmAgpQwsIaHmCZ6WHTqClZ+RVzqVWMhI1/FSg0E9eCwSPN7x+Vc73N+3vxCMCpnPO17N+2Cb9VjNPxiW3Kz+/HpORne0uGXYxzqONWhtflAGz854QueTUelS0cB1PdbmHvrYB4ZkxgjO/KzkTvXLg/siIoE+aOWvzczGxEl9NNcbjo7ljyr7ZKU4AqY3fLnnqUAkx5yz9Ouk9G8stYlMKR8Wf/5mf7u0t5f5635JLvt2Kv59dP3m5NmntYDauUa2nJuWOVXGLetzS/hMH896aYw710rnhBfpmvvosC/0Vv5q1GOnnPAyQtAWWpcel9aDfTLywVWZu+XVfe697bJWR9dWvzjuM+kLMvv38xRqBdskXaNWiKh1HQ22p0KZcX3BcdgMBmAABmAABmBg6TOwpIRa0a6BOnLkp/EVDc4riJmbZ6RXCadA+qNOe8z2yhkrSuYKntBnbgO6OertYLnDFlX6vM3FzxYrFk7nvTooQffbJCljFa5N26L4fBHQGzsEdtrMyysPl1pTps/dqcVIkd0jzuEeo8uc5+MS6iLUPn9WbtfCaY0lhpSPfUHkC7VpGdjviTpbOKlj/dTBRztlPGyXWKmPUbaLFk1+vVIh1KLqzWfcZGEABmAABmAABmCgFANLSqh1nQg5er5CzXHkzO5QCp9O9wumJ9rPLStOZXRTGwNiL56IMk6bPdsrLe4atoxksm3S8YshOXOxEM0zxwVf450jllBzHJn8xUa9DlDbWKcphqNsXh3inTtYX6/cuPWJ+m1dP7MiX+Gt8n1B5Au1EWk10bCSrxE7KsYUaldzA7J1f5Os3h1KkVTn8utgCUiEmh9lrCsjYeHN/9gdBmAABmAABmBgHgwg1CLXelmC7/f9sjGTEZP+6KUBbpT+31vHOPUVau7gMj8jky/1S8f3srJer2lr3lHuuWPxxFJsYaTtsPEXk26Dczf+KFr/Z2yiz/3wK0Vr1yoNlEc7ldBN4QPIUyLUrp5rlVUlxR9CrRJffG/aKK+wAAMwAAMwAANpZyClQi0nT92jokfB9ELXmNdfkQ4lVO4tPAzb2/UxI/WIqDlGhLkRMZ32WLQZgk7Z2xh3a/l4IqokPNcnZfB+FenbKP3vlmpk8c7hCbWIDVOK1L/eXMXdPt97H4wq2vXQwjW2Pcxvtd8DKZbmu/ivdUl9tJ5xdvvYXGF26NaEbC96ntiEbP+ZF+1qenmicGyRTUPXVDGiVih3xd6tMvqRqUeC1Mf8qGwxG6JY0TebNT89c3tE1M+/hkJ6px3Fs8vhfci/vu34HDZgAAZgAAZgAAYqM5BSoeaIJyAyojYHyelNNPKzkzL0gLcDoonsKCfXV6g54m0b3y7DH45J17qMRKX7eceo+g7L5Ie1SUt0Ab44JF3bBmXsvVnJmzVx+VmZfFI9kiAjPadKOTmeUJvcp1IaM9L28zMyE34sQGhg6UUTs9L7/FPSpkRiIKoYrIe362PETpGhMgONtEa7PtZFqDnj0vmoTjXcu10mlK3mxoM7O1rCZ+KlNf5mIlvemvA3/ghcb9gWFYWaVYenBrwHYuenZfRIthBls+vwsn5w9e5WOaweCfDJaek0ojKUJmnXK55Qs1Ird7fKs75oDHJglzv5ZIsbDW7+/nBoF9TSv7F/z3vsBAMwAAMwAAMwsJwYSK1Qc94flDazLkun+rlrvdT723tlzOyAmFSoVdiaPnLjEb0u7cGHOyRTKt3vZk4G7y2xPk3tPBlYPxdPRLkgXhyUtvD1m/+be+W8EW9q0F/Ntf22V5pNedZrpB1uekI1o/xSKeq1BJ+j5u/kGEo9XLNHizJLJDmfj8jmvog1ZPq3kc8aqyjUHDn9j6v0Q7FLlG3XIdcpa0J1Vc87i6pvQZyVKDe0zk2xOXf67si6RF6bikxb7aP0BAM3oOV0A+Ja4R0GYAAGYAAGSjOQXqHmOJK/OCqPbWnRD4NWqZDRD5BOFFGrRsw45gHXUc8us4ybn5LRn7ZLi3kwtSV8qhZqTl6mXn1M2u8prE1b/61oO1Ql1BxHZo4/Ju3f8R5lYMRwpFDzN1eJjioGG9qk9N+VkUxYTIajSOb/m/p4N7XSsqn5PhWvczLxm1ZZazbx6F0rm/85J3NGYNkiSdU36uHY8xRqzq0Jefbg2sLDrnvXSuux03L6yFpPNIXqMH1mc6C+rb+ZiKxvNULNcbQ9+lYGBFu0UHMkf6rHnxQItoe0+pt6Bds09sAeMAADMAADMLCQDKRaqC2kIThXnIY3623JXyqqGBJTs8e7JKvSKp/OVVynNfWcSuVslp5TldJG49STY1LH8828zJx9zIsOr3uw+CHyIXZSV3/qV7EN4zP6HRiAARiAARioLQMINQZg8QZg13My3OmtD4wjvLyGOiuj7kPH2+Sp98uAq9Nci56Dh2/i+SbldjIRby9au142PVdZuNPRl2kvKfc3vsN3MAADMAADMFAbBhBqDHrKi4Fwqui9g8k2gpgdk65mlQLZIa98GAHtJ6Pe90nLxW/l/ZYi+7hCbX1WWrY8JsO/T/LQ9gheUnRd3ITwDwzAAAzAAAzAQD0ZQKgx8Cs/4DdCLdssm3aPylSFnSEjYZ0dk557e2RsNqIxKyF3T1f0d/imvG+wD/aBARiAARiAARiAgSXLAEINuJcs3JGiEX/jbxiAARiAARiAARiAgQZgAKHWAE5CcERE4vAbHSwMwAAMwAAMwAAMwMASZgChtoSdi8BD4MEADMAADMAADMAADMBAYzKAUEOoMRMDAzAAAzAAAzAAAzAAAzCQMgYQailzCDMejTnjgd/wGwzAAAzAAAzAAAzAQC0ZQKgh1Jg9gQEYgAEYgAEYgAEYgAEYSBkDCLWUOaSWKpyymNWBARiAARiAARiAARiAgcZkAKGGUGP2BAZgAAZgAAZgAAZgAAZgIGUMINRS5hBmPBpzxgO/4TcYgAEYgAEYgAEYgIFaMoBQQ6gxewIDMAADMAADMAADMAADMJAyBhBqKXNILVU4ZTGrAwMwAAMwAAMwAAMwAAONyQBCDaHG7AkMwAAMwAAMwAAMwAAMwEDKGECopcwhzHg05owHfsNvMAADMAADMAADMAADtWQAoYZQY/YEBmAABmAABmAABmAABmAgZQwg1FLmkFqqcMpiVgcGYAAGYAAGYAAGYAAGGpMBhBpCjdkTGIABGIABGIABGIABGICBlDGAUEuZQ5jxaMwZD/yG32AABmAABmAABmAABmrJAEINocbsCQzAAAzAAAzAAAzAAAzAQMoYQKilzCG1VOGUxawODMAADMAADMAADMAADDQmAwg1hBqzJzAAAzAAAzAAAzAAAzAAAyljAKGWMocw49GYMx74Db/BAAzAAAzAAAzAAAzUkgGEGkKN2RMYgAEYgAEYgAEYgAEYgIGUMYBQS5lDaqnCKYtZHRiAARiAARiAARiAARhoTAYQagg1Zk9gAAZgAAZgAAZgAAZgAAZSxgBCLWUOYcajMWc88Bt+gwEYgAEYgAEYgAEYqCUDCDWEGrMnMAADMAADMAADMAADMAADKWMAoZYyh9RShVMWszowAAMwAAMwrgmTswAAIABJREFUAAMwAAMw0JgMINQQasyewAAMwAAMwAAMwAAMwAAMpIwBhFrKHMKMR2POeOA3/AYDMAADMAADMAADMFBLBhBqCDVmT2AABmAABmAABmAABmAABlLGAEItZQ6ppQqnLGZ1YAAGYAAGYAAGYAAGYKAxGUCoIdSYPYEBGIABGIABGIABGIABGEgZAwi1lDmEGY/GnPHAb/gNBmAABmAABmAABmCglgwg1BBqzJ7AAAzAAAzAAAzAAAzAAAykjIElJtTm5PQLTbJi+wpZ/dSA5FJm7FoqbMpixgYGYAAGYAAGYAAGYAAGli4DS0yojUjr9hWuUFuxvUn6Li204+ZkYqxTWvc3yap/GGFWAqEMAzAAAzAAAzAAAzAAAzBQFQNLTKgtdkQtJ317tVA8iFBjhmehJwo4H8zBAAzAAAzAAAzAwFJhYIkJtcUGE6G2VBoG17HYbYnzwyAMwAAMwAAMwMDyZmBBhdrIQS/a1HRkQqbPbJa1vTr6tHuN3H3ktFy1w6LnWr0Uxkc7ZfzWtBz+h7Wycqd3/Oqn++T0Nctx5lg/7VEd1yojdnmOIxMvrdFpkVkZ+Nj6vXvchHTu8cpf+atRHZ6ck9xbfdK6b7V/7hU7V8rqfa3y+ORVP4SZO+Kti1Nr40r9NR3J+ce7je7WVTl9rLVgg52rpEld1yfhepn/r8tbT26V9i1bZf+Z68GyQtdJozY24xUWYAAGYAAGYAAGYAAGGpOBRRFqK3tXRQqatUctMeOLr9ul9WDx8SsPjsicESj+sbZQKhZqzkePyze0mMoenw6KnVynrHG/Wylb3tHOvNQnTaXE1861/hq4xELt1oT07bPrar3vbZURW4Saa3TelMfb26Vd/fUckY/8zxsTPDoM/AYDMAADMAADMAADMAADpRlYFKHmRp32dnrRo/yEbDfrunZvkdFburIB8bVK7v5NTuacOTl92ETFIoSY40hBNEV9PyfPPqVF0f4BmbbEjh9t29MpE+bzS49L68E+Gfngqszpes29t13Wmsjei+NBsefES32cPp71hOrOtdI54UXm5j46LK06wliI6NmOK0TUHj/5Uei89nG8p8HDAAzAAAzAAAzAAAzAQKMzsDhC7dHNMmpHjXxR1iTbL2qo/M9WSNPLEwVh8s4WWelGuaJ3dSwv1ByZO313RPpjIe3xG8dCkTYj2vzXcmKs3HemsUzLwH5PLK4OCT2/7ird0z+f+R2vjd7YqD8MwwAMwAAMwAAMwAAMxGVgcYTa3r7gM86sFMPWc9p5vlCLFmSlLtAXOxFr1Nzf3BqVLbs9oXT72JwnAP20x+K1a1dzA7J1f5Os1r8JrEEr2tkxjlCzHyFgpTwGUiyjooFAXcrnfA4bMAADMAADMAADMAADS42BdAi19zpltRYqm9/WkNVLqNmbijz1rLvOzU97fNr73zj56rlWWRUQUCFhhVArRDqJAGILGIABGIABGIABGIABGKgZA6kQatPHvlGcjlhHoeb4EbTb5dnPTRRspWz5nT0TMSHbf6aF2d6tMvqRjr6VXYdWSGtcUSTiTNmFcgMpnUBdM6iN0ObVMMcrLMAADMAADMAADMBAozGwOELtZ9tlwt2cY06m3+n0N+dYYW/wUU+h5kzL4094Iuzulzq9nR2L1oWNS+ejWqg9NSDTeUec/LSMHskWomwRYsw8gmDF7lZ51hd3wYbhR/B2rpUtb034G5WUh6ewmQjb8wftWd5uHIt9YAAGYAAGYAAGYAAGGo+BxRFqUemEvVkZuGQZMIFQK6xLC6UmmvOE18Q51qYiegfHNS9ZG5bo6Nbpfyx+LED5NWpWuebc+jXwHLXPR2RzX4m6bl8hgWP9SBvb89PBWO3D54LP4AIGYAAGYAAGYAAGliIDiyPUtDhyRU9vk2QPD8iEvQukGoTWWag5nz8rd/v1+IY8/lEE4Lcm5NmDhQdtr+hdK63HTsvpI2u9VM2IiJrjzMnEb1plbd9Knc7pCbIi8ZXPyeHDWWkyD/22hF3Rse6gvBBRY3v+CF8hXEgdhQEYgAEYgAEYgAEYWEIMLI5Qi4hwLUUVzDUhqGAABmAABmAABmAABmAABqphAKG2hFR3NQDwGzoOGIABGIABGIABGIABGEgfAwg1hBohchiAARiAARiAARiAARiAgZQxgFBLmUOYzUjfbAY+wScwAAMwAAMwAAMwAAMLzcCCCrWFvjjOR4OCARiAARiAARiAARiAARhoRAYQakTUCHPDAAzAAAzAAAzAAAzAAAykjAGEWsoc0ohqnzozSwUDMAADMAADMAADMAADtWUAoYZQY/YEBmAABmAABmAABmAABmAgZQwg1FLmEGYiajsTgT2xJwzAAAzAAAzAAAzAQCMygFBDqDF7AgMwAAMwAAMwAAMwAAMwkDIGEGopc0gjqn3qHHOW6sqo3NfdLQ+dvEZHuFTbHT6G7aXKNtcF2zAAAzCw4Awg1IAuMXT5dw7JnY90y237XpfLNbRfvcpNjZB8a1A2dPfKwP+JKexqaNvU2GCpX9MS9fGSb5tLnUuuL/F9jj6T+9RSZ+Dya3vltu5uuXNoQvL0EantIxpUqM3Jr5/plg07BuXE55U6kyTHViqL71XH9cZz3bKhW/3tlUNXameTepWbls72wj/1yobuQTlxq3Y2S8u1UQ/Pp0vVx0u9bcbh941Dqs97QkY+Xd7tFzukwf8XZM+ObtnwzJvpGWDPjMu+/Xvkjh49PnikR+58Zkw+TpkAgF/D7xU59DPjq0PyRsr8FKdPXi7HNKRQ++ytQbmju1u6zsxVVMBJji3r9FvX5N3XBqV9d48WKd1yx+69suefL8tnywzwz857EbU7B8fLd8KfTsiefb3y3eELFf2kbB+73Ia09zUZ2d8tG342GhmFvHx8r8+VJ4K75bZde+ShF8bl8g3TsTb4a0IeyrbHhWAgcX3L+3jRr2ceNqtL2/zj6/LQnl3SdaoRUoEvy4E93bKh92W5MA87NjIDXt2xQ919GKdd6BTr7/76cqx7a93rfHlU7ntED/rdSVz9/tBEOurnt9mE/MbxhV92492fPziuImo98t1XLtbOT0vcZnVvSxE8NZ5Qm5uQH+/qlg37Y8zUJDk2wji+Qy6PScfuiE7I7ZCYYfXtFLbhO4dc8RFHUJcsI1xmw/4/IT9WN7ISN65CxCKCs12D8kbFyHED3CQajYfE9S3v46XPeDIGvcmJBkkFnntTulR/PzheuwFNI/Zl2KHu/o/VLtwU627pOZ+szdWnD5qTEwfUfatX9py/Kvk0Z4wk5DeWLxqxHdexztis9m2y4YTau4d3yYZH9sqhP1U2RpJjS3Zgn78tPUoYqjzegZfljUtzOtXghnx26W0ZGDwq79YR+pL1aoBzfvDrPbKhe48cuFzZV418nbHqXnaTCT3Lt+NwgaVbiq9x+XGfx949IzWc8VokdhqNh8T1Letj2kC4nZwYVGw3SCrwhcNuFsd9x6/UfaAetlOq/scOdfd/nHbh9U21XXpQNWdG/Dz3dt1tU3UdzT0vIb9xfDHvOpm6LZFXbFb7e31jCbX/87Lc090t98UJ9yc5tmQD0evb3HNejJcLfu2CvPDcXrlT5Y+rGdgdu6R9aFw+tmaZ3HUsKgXu8wuyb69KpeyR9teuiDPzpvT09siGR3bJnndMWqfOI1a56LeuyokXnpB7dA74HXtflPGoSEuMOvidy8yEHLLr29NbnG5n0j536bTPHXtl36SpXxDKy8eUONPXXuK15y39mwTl+vWNdW0hmw3t9fPm79h7SE7MBOvsl33rshza1yMbevbKCzEmAvzfleTHOk+5TSbMjS5qvcEfPeaLUiZvXHFZ+K7hTPvN5sxxQnaohh21zmDPHvlu7y75sfGb44jnZy+a/FnudelxOe6WDT27pP2FC346cBIekrULbdtq7FCGhyT1LfJ/OR8bRuK0N3Nsktc4drh1UQZc4V+cBfDZ+UG5U7XXvaPygeqrqmibn116M7hGZcde6Xntgnxm9X1lI8dufzG/iZ38leA6GZU+3HUs5/Po+ext6enulnv+6aI4n+fk0DO9coebttUj9zwzKu9G9Kkfn3zC7dd+/I7VpkP+8QbP3VJ8zBU5tFf1ic/Ir+dK/76Ip1D54WtTbe0e1TZ375VDocmwOL6odL6o7+PYwfwuXN9a+SJcbjk7mLrEeU1Sbq3tm6xdmHX3h+XdIn7HvPYbYsfR901//ZjbNsPtoko2deZBpd2Mk9jXcW7I5XMvS9e+Xe5mF2qMdMe+QXnhgp0mbdkhdL3eWuFiIRuH3yS+qHebj+W3z9+ULtV/2RO92h4fHPOWVNz53NteHxi6T9zW+4yMhPqOcFuJw3oSm5ny45Rrjl3ur40j1G5dlgNq4WPfy3LBuvFHOjDJsaEGHijPDJLjpFmqNVa5l6PztFU07lBhVx0X6v2HZZ9789ai5olnpEtH7lyh489O6XSqwaOeiAiLnwPjAQEZtw7udf6pRF65EqbHrJnj82q3wpD42hu91spbqBs6NvBbayCWoFxV3/jX5g3ENiib2TY29QjZzPe5vuGoaw1cfzlGYn5XdpMJPcsXvd5AX4u9tu3auB/lDfvF5sxxkrHjXB6VdrMQ3NjKfw3e9Dw/D8qIGeD7xynf98ieC95NPwkPydqFI05sO8TnIUl9fW40A2V9rI6J295iMuWfP7YdHPnszDNuW25/7Wph9tusLzEiTZ0/Ydt0d4UMMFDoAwrpWUawFL4L8zufCNvHZ57xxGZEPQKRMOUH1caHRyPbUVT02uOiWOD6PlA20/1Hcd+hN36Yx/o2s0aw2F7dsuGR4EYA8XxR3aA8lh0cR+rliyR2CPimQptKUm7t7Zu0XWiefjkYyW+Yv/wfj5YclwTaRQUbFeyp1+JGtDObT39C1lp/bn/vvw/x69y6LCO/3FU85lDns++DjrZD0fhM1y9CuFTmN6Ev6tjmk/jNu/f0yJ7JQrs2k2++SPMnWEP9b4nlGMrf8VhPaLPY5RaupcDe8vysYYSal/e6yx8AlnNckmPLlfPuYS/aZcNf8vjPx6VHRTce2SUdxy7Ix3oDiPzlN7UAM7OpGmo1A/LIXjnwxyveJhOqE9r1jPx6xut87jisN+C4Ne7O/t62Q9XFKlsNztzzWTfp2HXwYPcadyivPH9Z3jg2KD0qwmc67ndelI6Rt+WDvJppz8m+3nCHGdF4dBqYO2ttygm/Jik3ybV9OiYPKXu6s+SWzSrVfW5C9qi1iLsH5ddXI64pXP/Y/5ffZMLjNWomXtnb879/gzKTEIYz5RNVj/xFbyKje7Cwe1MSdsx6TsWY8bVb7hV5QW2CErrpeekNno1v+9khOXH5hluPz04+6d5gO8IbRFTkIWm70BM3cexQDQ8V6xvmo7yPlY9it7fYXCk+EtjBLVdHWZ943dsIaEb3T7sPBddBJmmbjp7ZfuQJecFPDXckfzUnIy88IQNRUSg9wKnZ+tXLR13xtaFnj+w5d1mvk7khH0/qyTNbJOmJEbd/eKRXfmyO//xN6VD9hj9JZnwccwMCw1n491oY+n16Ev+qY43AV3X951zh3vL5hOwpWq9dhS9i1yemHerlixJ2cJyLMqDuSUUDduO/Cq8lys0vuH0LYr9su9B9kyt0XH6veJO118aK+TX3Td0uPjPjkqtveuOHgPCpYCefE21v1VZK/llrTxPa943nPJHm3ldMf3JLteVR6Ri2Nicp2UfrCcqiDJWY/JrrjNNH1avNJ/Xb3NuuP+943hs3mknt2/bpDAl9TZdfG5Q9pg8p2d8ZDqroS+LYrJr7hfHJMn1tDKF2dUweeiQYlfJFRNhxSY4N/zbwv27UMddQXBhRW6/3SM9bxSmBZq2Lt67OdHLmWN2pdGsRqjsfP41AdXJuZ7hLes4Hy/bCzYWBefw6eA3RCNGuk7qjD1y/aayhVyMcKi2qN4udrXS5kj5T561QbqJrK2mzUh146Brj2CHRMfq8JWauvFk+I+RDddEpvGYTkvw5FREx7Ohj89fkcu51b0LAHpCWtIN5xEKBnY9f81K77jsW3kVM8xq46enBvuLSjsIom+hITCGKoutYkYdk7aI2dijDQ8X6hvxkopclfKzYr6q9VeAskR1MWRcOy53qeX6Tev1tpc1qKrRNxzEz7HtkXyA1KWyjwv+mT6zN+lWzmYEVrTfX6jhi1kz420+baKFa62yn/ZQa+JnU5Ep9nhEMocGv13f1ysAfC9dfti+06q6OG3/em6QL9/+OrldwMiy5L2LXJZYd6ueLknbQg+VqhXDJchfavo4jsdqFHgy7a/Ur8OuxF2wX+c+vyQfnD3tRtkC/Xg2fut8ukWGTmF+TxRS+r4TahMtsqT5a3/eKMlRi8VuwQSxf1KnNV+M3N63zkWfk1zmdKVXJhpePyne7u6XITr6tk/cl8WyWvNzYfZRf94Ifl8JvG0ComTzkhX5mWkTKWUkIdAjezFKHjvPg1aljprMwx+rGcsdzb3uzYu4gwpqN0p2y/71ftobdj3QkqIMp409j0mHSLXfsla6RN+XCtQqAx1yM60UPgulyZRtM2XITXpvuwItsVrFjqnDtxm5JX8PiO/B7PSGw56h8EPjcq4vXYXeLJ9xNB1dqJnOXdJ2zUtpis1NgaTycVhx509P+eOQJGYkZeazIQ6J2kdAOVfBQsb5hX5X1seaqmvYWPk/g/4R28H9rZkpVFP/JimsUnLJt07u2/IUX5btuBLtbbut9Qn587O0yj5Uw57eyAfy6VdEGzUBdzyaH+xlXqFnpVV5/HJHeXGrgZ67fTgcvUV8jCv1nJd7SbeWZN0Pr5OJeZ5m+z0yKhCbDkvkibj0c8TkoZ4e6+aKyHcpGoUr4yzHpc+Z+bB+30Pb1Iw3l20VJfouiGdpmpaJej1jjDPu6k7w3EaWSE1SV/WanSJqsgziTGoFxlVXnvE7vtst1+4QE7diJ6QtVbt3afFK/mTXIqh/uOxy9f4Flpzjr9ZL1JfH79WTlJuijrOsL3wca+f/UC7Ukz0FLcmxlpyUQanqQFj0zcVVeeMJKHdMRkq5zOjrmDg4KHabX+RR2Qiu51emtt6VHNUgzI5akDjbMN67KhX+2Fu0+skt+HIrc2bby6lNYg2R/V3hvxLW1i6F9zoj3ZctNeG2eDQs29etlBmILvaVxyMd+fZQdjECJutGZ9IdHntQP2Y2+8d62q1fan3nZTz805cdmxzFruIq3Hnd3Tu3ulsBNT/vDpFmY85V+jcFDonaRzA7JeYhR3zDD5XxsH5uwvZW2qbp5JbODX9bnb8uPVYqve0OvvOa3bNu0r81Nmz4kD/XpTYd6QhEr/1g9C19tqppfjr6B6wFqgFFzjBFK1rm8gVVxBNvjZI+EdxT2rr9EarI5j371ji1EMNzNaWLuUuz7xy4zcqJEXfdVnTJfOFfg97F9EX8QFMsO9fJFSTuY6H4JO9i2jHpfstyFt2+8FE4zGH5GToQ2pjH8+lFqI6JCA/47du+Rh4Zel/GrXrp6gJsoG5X7TPvbzwAKH5vIvkn6XWOHkKg1YqW7eJI4Fr9+/eP3UTVv89X6zawx1+PCSs/3rbxeT/cNsfuS+DZzmYtdbvw+al4s+75P3/nSLdTUTbYoB7+EEZMcG8shevDa/aSMROwCFgCiZGfkiBGPZoG6N4tRWJTuziBZs73uIMKKrrj/W9+b83qdcrf4a4ES1MGUUfRq1r2VSWMomj2KtKUeQFqDo6JzhX5XttxE11aiA/fXCBV34JXqNt/vvVnCgvgOlKcFStGNzlpQfadZr1hGUAXK1LaNzY4pN7S2xixGVo9YCAxejeANzeRH1cH7rDIPydpFaWFZXIdqeKhc3/B5yvo4xLr/2xjtzT82sowkdtD95ucXZI/a+dGNpHnX+dBJKwobcZ6ybTPieFXn/B9f9lK2oyYgTNTF57pEn16i7CKblIh8qONMP+lPjJlUpaI+rjQnsQc0qr62UNG7sRWnEye4Xt33hTeIMLu5qc1X/JTOEvYq64sSvymyseNILDvUyxeV7BBxj4y6hqLPKpW7gPZ1YrWLUn1TBL9l7ptFdkjAgf1br31FTIqa8hLZV4tuP0uoXDuJssMN+eDX3i6HUe0iFr+m3rF8oetXpzYfPfFfwibqWb9qrKwiaZfVGv1K+zmUz+SxfWy/L9uXJLGZsbN+LVtu6Fi7PsvlfaqFmidi4j0zLcmx8ZxbSCu6bd/LMj6jZ5/c51u9LYeeOypvmDQxDajaDGREb6rg3Lgq48eelDvV7MaOQtqm21n464j0OfxBg56R8AfM+v89L8u7n+vz53W5apZs12F5t4o6qN0AB554UUZyV8QsLlbb4X52aUy61AYlfn3CnYLuSHe96J1XzYiMPBmxWYAeQKpOo1IqpdsIK5SbwL5+lKFIJGpbl7gJmF2/7jykt7GtWeegzxtat2IY9ASKNRucV+sHXi48YD2QZ655UJyZRdYl65mAHSPU+l6Ud9Vic5tdxW93YWJB1dsTJVadS9bB8FOZh6raRSw7RN3QVb3K8VC5vsZ/3mt5H1ff3oz9Sr0m4cFxt6IfULugWmuz3HVzOwbljdDsfOH6KrTNP70uPc+NyhuXrhUedOsu/H+xtFDTg7cN+18vkx5Z6pojPtcpTRv2vlyIEuQvy4mhPd7W3j87WtiyvORgohQnZj3nE3Loinfu/LXLMn7iRXloIGLnW13+Pf80IScGe4rXcFZsK6HrM7ZSqZOqr7evy723WFkL1fgiQX28NdEV7FAvX0TZ4ZBaF67TwIv6+5AdS11nVLmGmwW2r7tpjLqecu3C5yv8XM0Ifk22hmoXZvxSyg5Vfl5xEieJff3JgG65758uyMd6o6z855flxAuHZCTwyBzdR5sdnFW7sHmwJrtNXxaLX2MHU+9yvjDH+j6pUZtP6jezIZS/1rjS/Ui1DW2//WNuSra78dPQYOGxRNX0JXFsVk25zpyMv+D15XcOjMllY/dl9JpeoaZ3jor1zLQkxyZxrtm22twM7NdARzAnbxwqsZ2su7OjSTHQgx6Trqg3IPAXQesG72+Zq//3b0b2+YvSiuLWwWqkdnn+++JNS0xH5z6XK2K7+6KNI9Qg+JcR66h8ARq+iUZv71ooN8G16bS84AJ7db4yG0eoG8Rzpr6VZ6gL9ghfR9T/cTYSMecOvqoJgvAznUz6RhQTgVn3hOycOBA8t1v+3lE55NrFtom+CSSawa7EQ8J2obYZPm5mTovrHbBDVTxUqm/Yz+V97N8U/TZm17lcewufp/j/2HZQzwh0227ofHpgXYjahs9RoW2am3PUtVmCMNhmcrLPrI21fhfwW5J+Wj0vMKJfchneNSgn7MkiPftdtJ6pJCdmExjbZ/p95OSLFs9qkD+flEf/+s2z74Lnv/O5UXFFt12HqnwR9nfp/73NcIL1cG1s16Fuvihhh2eekfbubvHvob7dSl9HkMUS5S6CfR0nRrsoxa/u74N2KHPfVOns814CoFkvObGrfJDAvsp37kZHEYyFszpKpH2rdrFPPcYpok7x+DXcxPCFz1qt23wCv32uN4QK9bVm/VnpbAl9z7L630DmTFV9SQybVVOu2c3UrevCZ0QF+wvDx8K+plSo6RtvnGemmRtDrGOTGzfqIY3tagb5ihFfukz1MOqh0IOun3td3rUHCXr3ND+krQcH/qDBHTRZ67/0IOq2Xeahjyo6px6gXWLTjzh10J3LZxdel559u/SDXr0HFX93/4sy8kf7gZLF9vps8kW5Tz9k+bZdxQ+09aG+NiED+82DZL3y73nB2lrX7+S8c1QsN+61lUrLKzMQU3X++NygG/2seURNn7cotdG9frOzqHVj2rFLvrv/kBw6X2onzjl597VBad+t1wFZHW1goJuUHf/h6/qh1UPjbrTDnTENDMR0B590BrscD0nbhWu7mHaokgenXH1D7Dplfaz5rrK9+e0pfE7//xh28EVaj7QfD+/qqWfiiwZChbZfvm2qB9O+KA/tCfVRUX2kX2eVGjnm9j+3GX537JKOk9YjQaxjK9vAixYeemaP/2B79XDlh17wGLZ/X7SOx5yn1ABYfW+3DSUKdpffeMmLMqjNSsK2LtjUrlPF95fHpKtXt/cdvdJ1TD1EXPcdgcmv6nxR8fzGRnHt4D6EuQ6+sOzg3XtyotKzlVj076GmrklerXI3LKZ93ZTh8u0iMb/qvvnCE/LdXcX3i3kLNTMZGJXebNs/tn11X5nzxiamb7ij7wnZd674fqj6pXZzXf4DvHV/FmgXut3F5VfXPUkfVfM2H8dvvkiL2FfA+KZMtsQHJ5+Re/RzU4ttXF1fUtlm1ZRrhGuP3DNU64ynKvtkm+8FeJ9KoebNBuySH78T3I4+6oaS5Nio36f5s/Ai1TTXlbqVaPBxN5mocWOHnRL+qLGdXe4Xyce0uQX0cVxuTBpS0omMuOVzXOH5nlYadmANLTYK2Khu/YQWydGTkClsm/Xigja/MLzVy38NUG76hJpegH3H4Hjl7YyTHNsAzgh3qCb/u9Ji8fDv+D89N4mqNpmoAauws3AMLJaPaecL5+OKtr4xJx+cOyTfVTPU/lqRFNWvBn1KRRvU8xz/52V3TaC/1urWDc/eKsVUZdPU89yUXTQQz89c8FJv/R2JlyHrtPkiLha1j1jC7TR9Qm0JGzsZxHHyv5dh59hQfMRZ1FsPH8JOsrY2Hx8slo/nU2d+WzM+wmsu4jyXrqH6sDSwckPeOFScuueuj+uOl3lTM38va98Vr2uqWXpvI9mVNo9AW2BeEWoLbPDYN4zIxcFpuGlSh9g+NBuYVMrhrzWDsLOAN5JKG4nQXuK3lwa0lRm0PdIj94XXJNe6XS/n8m5dk3ePPSPf1eujNzzSI2pN9YnwWvHlbKN6X7tZ99TdI3fsiV43tqTburEvbX4B768NeE8IP/1fAAAgAElEQVQwnNTwFaFWQ2Mui04Ke9FJwQAMwAAMwAAMwAAMwEDdGUCoAVndIUPAMisEAzAAAzAAAzAAAzAAA8kYQKgh1BBqMAADMAADMAADMAADMAADKWMAoZYyhzDTkGymAXthLxiAARiAARiAARiAgaXIAEINocbsCQzAAAzAAAzAAAzAAAzAQMoYQKilzCFLcTaAa2KWCwZgAAZgAAZgAAZgAAaSMYBQQ6gxewIDMAADMAADMAADMAADMJAyBhBqKXMIMw3JZhqwF/aCARiAARiAARiAARhYigwg1IxQO9ElmUxGuk4A+lIEnWtaylznZerVXtl0e9Ztw6odp68tj0mXrpepX2bbGDOXpv+N8Tpz3PJx66BMxfgN7X4pt3uuDb5hAAaWPgNLSqhN/qpdWr7VK2PV3MCXqVCbl82qsXNVv4kY5K7LSvP3OqT/1SnJV1Vm+hp3Y/iiYLe01HfmhfaAQDNCKF2TLhEMVxBqabFvGgYC+RNdkrWFLkINkb9E+v00tC/qULivYQtskTYGlpRQG9umZtK7EGoJbmDzslmC88wP/IhBrjVoa35gWHI3G79zaQxfFOycjvpOSv/GjGTWtUn/2ZkGEe2a5wpCLR32Lfh7fm14fuWM7VB9e1Y6XshJfgm09cW0JeeeH4vYD/vBAAwsJAMINSM2lmlELXWDwVuzcmr/j6T31xetGWM9sLVn0a/PSu7VXmlZ76W5tR2Yso5vzE4kdb4wbaPEa9z6Xj+zX370+Ovy0a16+CWe6FnITrXyueLVOa59K5+vHnZf2DJdW2zsl8kSLC4HG3CNC8sc9sbeMAADaWAg3ULt5qycf75LNn1rvZfatC4rLQ8PyvlPLHi0wDLpTlGvRYN4U661piWb9c4RnS51Xd56cqu0b9kq+89cryAIKhz74ZBsUtGg+4dlpmjQkZfRHyjhsUmGPrSuUdX3QIe0ZD1Rksm2SPtPR2Uqbx1jl/XJeRnatkmyWsSo4zsOnJdZc0w1NstPyehP2wt1WJ+Vli2PyahdT7d8bxDq2jyfk+FtbZJdp+q9XjY+PCS5UnVWv702KYd6HpD29gfkR7+alOumvk6EUDPfvdsvG5U9s71y3nymXmPabOpAm2QybTJ4MWjj9Xd1yODvZot8nb84JoPbNkmz8cV87ZDEFxcHpc1dRzkrY7s3yvpMRrL3D8nUzZwMf7/ZbSPNO8YKfq6HHZLU1/XHv0pupFe2trdL+yOHZPJaCWZt3yV6H0/0xPebrl+lNuQ44rETsa5V26io3/Gvq0ydk9i3mr7Er0Ot/VDf8lyhZk/UNOh1pOGmTx3qyyr2xb4wAAO1ZCDFQi0vYzu8wWeR+LJThpIMbNyb+4y88nCJcktuJvKmPK4Gmuqv54h8VHaQUOnYGRm6TwmXdhmeCcF8fVQ6lKi5b8gScbMytq1Efe8dLE75e39QNhmBZqUHemJEny+pzW7mZPBeLRIDZXopZ4Pv29fhDUI37uiXrubi32R3nykSPy7QH74uj/+Pdmnf0iFPnwsLpDJCzTH2VGLL1CO+zbzB9kZpuzfCxuvsMlXZUzLYWnxNLp/NvXI+kJIV0w5JfKGF2qb77TVZLdLx8EZrjZZd56R2yErLd6Ls0CGj16tkR7eV6+eflo4t7dK+tVeO5P41moGy7cr41hFH26GoX7DZDAzqk/jNESdOG0qDUHNmZPh+xWNoYkfZ0fQlPxhtkHRQy78RHIx2ZiQT8Gn542t5k6QsbA0DMAADMLBYDKRYqOnB+QNDMmMGiflZyZ3qlwf3Re+WFidVKP9qhzuoXX9fv5z5MO8NGG/mZfaI93mliNrjJz+qMMgsRNRKHWvq0P7CTKAs83nHq7pejiNmEX3zD4YlN6s/v56T0R0t7nXYx9pComXHqH98fjYnY794TIZ9IVNocHFsNvkLTwg0PzAoZ2aK65AJDAa139SguflBGTTrhj4ZlS4VhVrXU7SG8PrvD8mPyg7iywk1R7z1K4XIRhKbmaiIGvS7NlOsqWjcPhVpy8jGfZOWj6ZkaFuXDJ7KyayJDF7PyfAPPHHTc6pgV8dEARPYoaIvLIHSdiAn+ePeTqVq7U7X8VmZeX6TW2fD8Hzs4EZr8zPySqe3k2LXcfvavPcV6xsecH/4ujy2tZQYLy6/ZKdo2aGkWAsM6pP4rSDqKrUhw46xt19fLb6riqhZNotjX9NnbHo+1JccVf1ZVnrPJrCrdW7/WmJ89ma/nsQyk1nh1+6X5HKMckqdM//+sHSoviMyC6H+11eqXnyO7WEABmAABurNQIqF2nnpVTdnNdj/bTjCEg1G5YGNnoFeZ0UIzABCD66KBl3m+1q+3jzjXVtg4KHTHrO9csaKzLjXFPrMheLmqLfd9w5LtOo0wGznaDD9rUzdK9tMb9YQVQdnUvrvUjP69gYuWlQ1d8nYbNBPUee6+Os4aXHlhVp4wJzEZua3bU/nLEGmxNqYdKno5r0xtgGPZCeZHZRPo+wT6ACMQLmrXyYVIyYaZzgK1aMaOzRvC6VO6jKjREfF+kZxZ6e3DufkX6OOSfSZtrMdZY/7+5C9XFsnaEOGnaI+o4zNPH/Gq3Ms+5q+JCBM8/LKwxnJKE7i2mIex9VLqBn7KjGuUpGHA5H7YN8SaCfzuBbKwa4wAAMwAANpYiDFQs2R2bO90uKub1JrkNqk4xdDcuZiIdoUNmTlgY0WHYFBjQYyatBWxxv+md0qUmGlP+pUpWBqYGF2v2TkwAzSVfTNnUUvRJbC9on6v7LNyg8qz/9EXYedblf+eLsOsycekwfU7Pv/eFre+ddyHYMuM8pvvsDJiBfRSmYzMxgsGmybNMfQOfMXR+WxLS2F9X9Wul2wjPh2MDap6Ast1HzRFBYEAYZrZIfwOaw2UbG+1rHmGt3Xf70ohx9RUZgH5Ecj9qYx5Rgo9V08O8f1W5I2VJKdMjbz7BCvznHt60W8rTY4MyztmYyEo2wBH5TyTYo+N/ZFqJVin88bjWnqC7MwAANJGUi1UHMvJj8jky/1S8f3su7mCeqmXbRhgh5cVB7YjEmPEn6hwbd7nsAgdwFA+r23CYZJf/RSmDZK/+/tcycbbJvnSQUFg11e8fs4NnMf1FsiYuELtSlTdrxBqAHVj6j98Gl5p+RGE7rMKL/5UT0jepPZzAwGi22my7HP+f6gtJmJA0ugGREdLCOZHZQ9KvpiKQi1f83JS2bDmIWKqCXwW5I2VJKdBRZqju5LNv7CS9N1U2CjsgZSJMJM+6/8mpeZs/1euwukWJv+htfKNsRG2AgGYAAGGpWB9As1e3BxfVIG71cRnI3S/24xdN5A1wzYi7/313CFdwh0CpsuBAfbUWXU6jMtBNyImE57DGwios6jU5jibkt9qidiXVX5+la2mU5BjUp9vKlTHwP2TC5Q5rNGbfa4fhCub7tkNis52DY76j38ir8ZgydKM9K274zMmDVqis9IkZ/cDhV9kUio1cgOZURHxfrabVe9L7thTHlOS3ewle2cyG8J2lA0O7NyZre3ptOPfIbtYNYvlpj8MNca3756Qx031dF7H4zMV2vbeL+rV+qjsYPfD9qTJkU2jVfXQpkcjy1gAAZgAAbSz0B6hdrFIenaNihj780WHnCan5XJJ71NHoIbN3iGntynB0g/Dw2krZu6P2h7etItNz9zRgYfKOx0Fy3UChuEzHt7fqsu3uYP7TL8obceKipVyWwQ0bJjWCbN5idWGYFGZnZ6yzTLgwfOFDZhuV56M5E4NvPSNDMS3tBkuNOzW/NPzlvruyoPnAN1NtdSdhCvy7QGat4GKQ9KsxvhapaeU4WU2CQ2M4PtjiMFzvLvj0rPd7zdHe3NWryBc1a6juoHK7ub2wxK1z1Rj3ZIboeKvkgk1Bx/c5E47Bg7FPFfRqhVrK/xreNIZTFebWdZ2c6J/JakDWnbZB8e9h6VoR5hoTf5UVHW+Qq1JPb1IvJZ6X3+KWlTE1mByHy1to33u/oLNR1tttp/ZB9i8cb38XyHnbATDMAADKSbgRQLNe+ZUSatLPBatBW6NvJve6U5IiUtMGBSg92i9LVmefCnXfoZVVEOq7Tlvv2bBMfqQeGDD3dIplSqUrmt8SMeJzB7oivSBsF1ZFZ949hsdixyq33XJ7f3hDYNqTxwLtkplNxoQpcZ4Vv1fLZNz4U3AinzOIGQzYxACfClzxPeWGPmpQfdiGXRsZqnoMipwg6VfJFQqDkJ2DF2CF5DIVoYaENmQFypvvo4P711kZ6jlsxvjsRuQ76oCz6yofk7LZINCzUt6orY0azNx75uezKb3ygWl6CgccX2Eryukn2haWO8WpOA1n0Lu2AXGICBZcJAeoWak5epVx+T9nsKa9PWf6vCg54dR2aOPybt3/G2FDeDovAgaPZsv7Tf5UVB1t/VLo8dn/GfzVQ0UHVBKETUSm25X7jhJjnWPOA6I5lyaVDmYdPmwd+WYImq7+xvh6Tre836QdMZWf+tTdL1vPXA6xDccWzmRDwAOPqh21UIFLs+t2bl1P4fSe+v7U0mioXa+m9tlE0q4lpqc5mYNjMCxbCiXrO3a3tZu296/g0+FDuTbZZNu4dl8rcqihHexKU6O5T1RVKhpuya0A5FPJWJqCmblK2v9uvs6f3yo8dfl49u1WOgFcfOSfzm1TFuG5r93aB06L7Ef7D87CvSUQuhFtO+pu8xke+oyLw5plFfEWr1aDuU2ajtgXrDLgwsHwZSLNSWjxNocIvnayPUigSKLR55z8xd6hmY9bbkLxWZT339y/cBrlALrIUtfzx9KvaBARiAARhYCgwg1Bp8ALMUIFzMa0Co0ZEvJn81Obd66LpeL1r0PMAl0r/5a4vDG/kskeurCQfYggklGIABGFhyDCDUgHrJQZ1k0INQQ6gl4SVVx4bXvd07KLmidF3l3+LUYTvVN/jefnh9itjQDyL368p6tWXdb6eqHTKGgEUYgIE6MoBQq6NxuZmkaKBXws8ItfT7iHZUwkdGqLlrJUe9nScjOV8CQs1xZPZUf2H9MUKNgVEk6yXaCsfCCwzAQIMygFBrUMcxeOWGDAMwAAMwAAMwAAMwAANLlwGEGkKNWRYYgAEYgAEYgAEYgAEYgIGUMYBQS5lDmBVZurMi+BbfwgAMwAAMwAAMwAAMxGUAoYZQY/YEBmAABmAABmAABmAABmAgZQwg1FLmkLgKm+OYjYEBGIABGIABGIABGICBpcsAQg2hxuwJDMAADMAADMAADMAADMBAyhhAqKXMIcyKLN1ZEXyLb2EABmAABmAABmAABuIygFBDqDF7EmZgdky67umSsdnl2ZHM/K//Iq997Wtyous1yYdtsxz+nx2Tnnt7lq3/4948OG559g/4Hb/DAAzAwMIxgFBbDgNPrjG+GL2Zk8F7M5Jp7pLRT4ob4gff/5orYl77/mtumeH/q+m8ZvZ/2y3z3LHi81VT3vx+c1Em/pO+xq89JB8sEXbCfgr/H7DZh69IR7PHwHIV6wF7LBEGuKY09C/UAQ5hAAZgIAkDCLWaDELGpCuTkYz9ty4rzd/rkP5Xp5ZMVGLyV+3S8q1eGauJzerfUJPXd1bGtjVLZl2bDL4fXb+Z/r/zhNoPPaF26ZGvu/+P9f8hvhgM2S9dQs0RE1E7uX28Zuxe+V+tMvYfuxdN+CX22/uD0rYuI83bxmQ25K8kHSzHRrcj7IJdYAAGYAAGYKAyAwi1mgzCIoSaJdqaHxiW3M3Kzkg7sGPblBjtahihlrS++RNdks1kpO25qZKiy4iqsf0X3WPC/1fjQ1NGOiJq9eHUi2AtXoTO2DiJ33JPt0kmk5Wu47MleajG3/ymPoxhV+wKAzAAAzCw1BhAqNVSqLUOypQp7/qs5F7tlZb1XqSt7UDpwX+jQJVU+Cz2dSWr76T035WRzF39MllGVF99yktTTDLgr2QHIyIQavW7wVTlt5vnpVelQComTLvmFdEKAzAAAzAAAzCwQAwg1GpiaB1Rs4WaKffdftmoomvZXjlvPlOvN2fl/IEOacnqlMlsi7T/dFSm8sHB6tQBNavfJoMXg8evv6tDBn9XPNOfvzgmg9s2SbMpd31WWrY8JqMfBst1HK/OroDM52R4W5tk16m6rJeNDw9JztTjRFcwpdOKFJpUT1+EXhyUtkxGuk7MytjujbI+k5Hs/UMydTMnw99vdstp3hFKJau1HZLU1/bH2V43mrbp+Znync+xh9xUxzcOXXGPy7/UXnZ92a2r4zL5/f8iJ5r0uq+v/528uX9c5qxze0Lt6/Lbs3+WK88/JGNf18d+s10m3vq0uD43PpXL+9vlpDnu638nb2w/Klf/bPn4gydl7Gtfk3PHPpUPuja4dTzRelBmbvxBLvzXv/X+/+FrVj1ek3NfM2vT9KtehxcpNFUdnn1I3viPTW5Zr/3N1+Xk/U/K5atWHbSt1MYkpf6M4PXO4dXB/ezPf5AL3/+2nPgb9dsmOXn/Qblirm/6oLyhymwdks8sO3pl/Fly/0395r/I5HRxXeL6zVzzzPOb3Kha71mrrKJz8p2xF6+wAAMwAAMwAAO1YwChVpNBVxmh5szI0H1KACmxZRyn10JFiJ7MvYOBNElPqG2Utns9oWPEkfuq1lL5Zaqyp2SwVQu/cNnNvXI+ECny6rxxR790qahB6Pjs7jOeQEgifLRQ23R/u1Vei3Q8vNH6365zUjtkpeU7UXbokNHr2rZJ6mv5/vxPspLJtMvwjPHR/F9vvfekvGEEWkCsfFsmPiiU7wm1DTLW4gmogKj5m3bJXSsc6zifygffjzhOlf+fn5SZG/pYLdTeaG21RNLfyZv3e6LNO4ddjyRC7c9y8Ycl6mCLuyqF2skfPirn/rZY3J3oOi23XJ9dkQutEWJMfXftqJxV4u6/Ha3N+rqZYWlXEw4/OV8smC1+uCnZjPIeHmAABmAABmCgFgwg1Goy2Con1BwZ2+EJoa4THrRmLVTzD4YlN5v3BoDXczK6o8UVNB2v6s8cRzyh5v2+Zceo5JQgUVGofSrSlpGN+yatAeSUDG3rksFTOZk1EbHrORn+gSduek7ZjUbXWQm05gdl8OyMN7D9ZFS6VDRuXU/RWrSKqYRaqKl6tR3ISf64icZ563y86ISKuM3fDm7kMT8jr3QqgZWRruP2tXnvK9bX970WuPc8JTn/s+LykjW4wu6JJ394VK58+mfXTzc+/YN8sGenXCgSap4wOfHgkMwoYfbnK/Leg95GJWePFuqSP/aQnFBb5/+3Ib/MW9f+ILkfepucnB3xzuNooaYE2dj+P8iNo14k8LWvfV3OHv1UZp/1tuCPTrfUos0WXQG76O83HZRZIyL//Klcee1RefMn3iYrYVvFW6NmicW/3SQTp6/IDceRW1ePylkVPfyb/ykXdT3yI14k841nvcimOZ8X4fy6/PZ0wWbmu+peJ6V/Y0YyUdHygE1qdT7Kqc5P2A27wQAMwAAMLD0GEGo1GWyVF2pGbBmB4gqIbK+cCUS4lAAb9XaP3DHmiy/z27anc/5nbkO8OSZdKlXxXmtdXKlr0VEmc36vIes6Nxc/L6yUwCn1ud8xGKFm1nmZ6Nb9wzKj6haqRzV2KNqFT5fpp19aNqhYX/9YbYvO0aCN/e+raPjnH5WTSlA9eNRKL4wux6xRO/F9OxXREUdHpOz0QFfwfL1bLpnImanjjaNyVkXV9G6UvlD75qPyJ3WsiW61Dnm7GOr/qxNq4/JbJZyUmDr7qY5yRV+bYSORUPvbh+SDT4PlFf3+xmmvDv/pSY8t1w5/lvfu/5q89s1H5Yqxy7xf8/LKw2qipHE20TE25zXIEPbAHjAAAzAAA43GAEJt3gM5BX15oeYJhox4Ea0y6Ykm/dAIGyuiFhRZ6py6nNBMf/7iqDy2pUWyehMTO6UxWIau87aCKKwEb0Xho4WaL5rCIiog1Gpkh/A5LH9WrK9/bHJbVLJVpbVr9u+NUCsSTUVCrRClC6RH2mmVZt2Wjqj5Ii9c1ryEmiNzp7vlpLt+7Gvy2te/LW/uOSiXPtDRPN+uhRtCkdCKOMZxKkXyCuUp+13Zo9I4rfTNK0Pu2rVwlM22dTXv43MUrF815+I32BAGYAAGYAAGYMAwgFCLHDAmBaScUNO7Cfrrn2okUKKEmn72ky3O7PcItVJ+1f57+JXarGtyHPnskLc2rEh8RfDWiELN7UD+fEX+9Pyj8ubdXoqmEo8nAhuUFOxdD6HmvOtFLU/ueceNhLrpnEVr+gp1MJ1e0tfRTiJqSW3G8fPnDhtiQxiAARiAAYRaxMA5ecMoLdRmj3vP5srcN6RTtHQq1cZ4W36b1MegyHLE+XBINqkInCUuvA0xMtK274zMmDVq6voCkSwDffIokhdZKLPhRqKIWo3sUDGiVqa+vu+1eI7pk1h8vPY/3U08Tv7knYqpgfGFmk7t+38elT/5dTf+DL3WOaIWtsGta+/IZKsSbBvk/PlQXRxHPKHWKheuFH9XKCtZRM1xrshki0l19N4XNhwpd54k3+XkqXtYo1bwURLbcSx2gwEYgAEYgIH5MIBQqzTgjfV9sVDLz+Zk7BcPSrO75X2z9JwqbBBiNtVo2TEskx8WPo9ypBFqHUdmJa/XtOXfH5We73gbjNgbj3hCKitdR/XGIPlZyZ0alK571nsbbuhNPLzzJBdqk/u83Rvbfh4SgsZGiYSaI9XYoUiwlhFqFetr6u044oncTTJU9BiDKjsYs/vg1/5W3tx/2t90Q238UWozkaLoWzhd0XH8TUBO/nBI/jT959IisJ5C7YODcu77/3979//axp3ncfz+FUN/6G+hDAnnH8qJbrWUrUu3MYGINWf6Q0yWSwjU11K5HF6X4NA2lI25ELJcooY9E1hc6MXQKsZESWidXvC1wd0WxZi62xiRWm2oRRzmt9cx3+SZ0deRJ/ZIehaKZWU0+sz78xhZr/nMfOaCVr/ZVMW7Vm5rUz9+6Nxj7s5Cbc1+POPMNlk4fUs/e9Ps++rvmIwa1Ew5k4oc0N2P/qzCwPP66uva9663X7X9XFuzPpZVmLIm7BnU0OnQ7SdqtjHm9rH++K4rpZbUEgMYwAAGEmaAoBZLh7ihx7vGLPBzUKNXwhOBFJUbcYKW/9RE77E/jHhBzfs3/8/wxBqlj0/Ygcy/jP3YDos7sy12GtTMu9NKB7bN2YbqNWkRg5q5Hb0O/trY29EkqLVsr7/v272Pmv81LR7/6s7QWHs9me+6KtNU+yNqpszH3+reK7VT13vvUQ17UYOaGwq99YR/Vq91s7bZXXd4Gfv3g3UmOrFmblx6x56tMvyawHojXqNm9//jBd2xrpWz/g9MLBJPIGrvPmoFTbr7mH0bjvV43rvtMNnCIeuhPzCAAQxgAAPdaYCgFsuXnNqgNvjCkEYnciqsNRgxq6wr//6Yhl9wRrv84cofRuoFtdRLo8peXVY5PGukGbwptpFKa/T0nFbuXnRvRO1HGn1EzdrJS9fPauywMyW+1+aOg5pV+4h18NfG/tBpFtRatTfQ9+61hDX3m/PXLPrjR0uXdef3B90bNw9o4bnXdOejeje8tm5OHVp/nRE1e5u31lT801EVvJtN+yYTqa7jaQY1c0sPP3lXt3+7c23awnN1brodqK+p8vy7uv0b32vsWwes+Y7eRR9Rs+rxfdZZZ9yTiJjbrglrFtPQttj94HuuPD/uHiTx3ycw1J++5cOv53dqhQEMYAADGMBA2ABBLeFfnrygVhNQEt7uMLRu+N27nrDmVgjU2hemkvYhuulMyf8UJhFZv2LdqzB42nJdx5Wy1hcnNWSNNte77QZ+EuwnaZ5pT919jH2IfQgDGOhTAwS1hHc8QW0vv7iUlbdvoJ3Rxft7+b68Vydfzqzr/b47cdCetKUw823j6/U62cfdGVTDpxeH2+lcF+qdxpxWdrHMH9NO6s1rcIMBDGAAAxioMUBQSzgKgtoeh5hyQdm0ISM9rmtxTSyScGPh8JH438PX071yQSVvUpM4av1T3jEwklOx5vTioEc7qA2mNHz8rPKNTnOOo02so+aPV+Kd0mf0GQYwgAEM7NIAQW2XBXzaXxYIasEvxk+73vb6ywVNjkyqUN6H9064xz2pf6saeEHtwEHdzs7rYcNZJDvsPyusH8nS/636gX/nCwgGMIABDGDgqRogqAHsqQJLxBd7+pg+xgAGMIABDGAAAxjoMgMEtS7rMIJPh6Mk9DMfzhjAAAYwgAEMYAADXWSAoNZFnUVII6RhAAMYwAAGMIABDGCgPwwQ1AhqHFnBAAYwgAEMYAADGMAABhJmgKCWsA7hCEl/HCGhn+lnDGAAAxjAAAYwgIFmBghqBDWOnmAAAxjAAAYwgAEMYAADCTNAUEtYhzRL1fwbR10wgAEMYAADGMAABjDQHwYIagQ1jp6EDfT5fbRK//WaFgYGtJhdUCVcmyT9zv3u2HeT5JG24BEDGMAABmI2QFCLuaAc4ejyIxzbReVGDBnprPI/1W7L6qkBO8QsnFqwP4zCv3fS/6XzL9vrvPNZ7ft1sr7dvWZN937nbuPASa3u8f4Rrmf498C2Pbim8bTTV9ycPAl2aEPA5x7vO7w3/jCAAQz0ngGCWix/TAvKGoYM//+HUkr/67hmPl1P9qhEhO1f+e8xDb8wrUKE1+znh0b09pZVmEjLOJRR7n79nb0086IT1N5ygtr3/3HA/r0w823HR5GSFdRMeSNqN/705Z7bjVzf+zllDhlKTxRU7hKX+7lP8N7192vqQl0wgAEMYCCJBghqsXy5qxPUfKEt/W9zKm53/w5QmLDCaLZrglrU9lYWs0oZhjJX1huGLi9UFc6v2cuEf+9kJ/fWkYwRtf116tUiSn2Lf8nIMFLKXi837LdO+oXX7K8F6k/9MYABDGCg3w0Q1OIMakdzWvfW96is4qfTGh50Rtoylxp/+e8WhFGDz35vV7T2rk8+Z4AAACAASURBVGjmVUPGqzNaaRKqH150TlOMEiRa1cELJwQ1Ux3Vd3tZ09YpkFbfefsfPwmtGMAABjCAAQx0uQGCWiwd6I6o+YOat96vZzRkja6lprXsPWf93C5r+dK4hlPuKZOpYY29n9d6JXj0ZP2SNVqQUW4tuPzgq+PK/V/tCEJlraDcxKjS3noHUxo+flb5B8H1mqbTZjtAVoqam8godchqy6CG3phV0WvHYjZ4SqdvpNA71bMaQtdyyhiGsotlFU4PadAwlDo2q/XtouZOpe31pKdCp6jFXYco7fX3x9K0PZo2erXU/EPts5P2qY63/7phL1f5eKzu9WVO+HpZ91Y39cP5Md044F739S9juve/m4H3cJY9oLtLW9q4elKFRsv+47JuDwxo4eisfva33X68peIfrfd4TSv/8PX140398NFJ3X7uWeeUzWcO6MaxC/rhoW8Z+/ULumOt2/+/ex1eo6D55OGXWjn1mhafdV934EV9fv5L/RpuW9ttMGW2Wd9wm0pXR+1Rteml8Hbxe7hW/I4JDGAAAxjAQHcYIKiFv1R29HuToGaWNPu6FYCssOWhcK+FqhN6jJFc4DRJJ6gNKTPiBB0vHNk/rWupquu01r2u3FE3+IXXnZ7WcmCkyGnz0NSMstZoRGj51OkvnDARJfi4QW302JhvfcMaf2PI97u/zVHrkNLw4Xp1GFf+kVvbKO319fXymZQMY0xzJa+PdvfTCV/Pq/DKwWD4sYLQMy9rZXVn/dVlh+stO6biL96yG/r70TphzNqOX+a19MyAFv4477uubEtrb9VZp9WGmhAWLag9+e6CbnsBzR/uBqxw6rXX+hmlDf7XRXxcmtOYdWDgzHIgBPOHKGIdffsEtaN2GMAABjCAgf01QFCL5YtJs6BmqjDlBKHsotPZ3rVQ6TfnVCxXnC+Wj4rKTw3bgWb8U/c505QT1JzXD0/lVbQCiTUKdc4aaTM0dG7F98V0XbMTWeVuFlX2RsQeFTX3phNuJm/6sblttgJa+oRySyXnC/5PeWWt0bhDkzXXorU8ldANala7MpeKqlz3RuOc64ecUQ9rxG33dbBHHislXXvbCliGstf92+Y8btneat+7AffIRRWrz9WuL8qHlRO+nJGmG2/Nq2SFLWtk6Yxz6uSNM19V+82/7OKJWWfZrQ19d8KZqGRpfqctlU+cEbzbHzkjel6bnJG9A7p7a2dZ03TD1+hllb2wt7WpjYX39PkZZzIU7/XBn+7rasKct+6dmSGtbdvY3LK35fHmt1r94F39PRDUOm2D917t/lzRzJAho96odkx9GqxRu+1iOeqGAQxgAAMYwEBnBghqsXyJax7UvLDlBRQ7QKSm9UVghMsKYHln9sipQvVLvPfazF+K1eds7NsFZa1TFUd818U12hZ3lMl7f2dncduczio8tXmjgNPo+erO5wU17zovb3Tr2JxKVttC7eikDjWz+7nrrJ5+6atBy/ZWl3Vr8XY+WOPqv0ffubzwZc0G+cS/nscLumONfL1yQQ/d571lF08tBE8bdE8D9K6Hs+v8+JbuWqdG/u6CU1N7HVv67tiAFv7lPW3438v80ln24KjuLW0G2xFYLrx9LYLa8nu6Yd1n7cR8sL1119lpG8JtavV7RdfesA5odM9kN9X9pm7dWm0v/079MIABDGAAA71ugKAWy5ek5kHNCQyGnBGtJqcneqcfesHGN6IWDFnWjumuJzSCUFnL6+zxYaXcSUz8pzQG1+G2eWInFLbC3jL4uEGtGprCISoQ1GKqQ/g9fP3Zsr3VZaPXolWtvPBVO0GIOxrlC1oNl60X1ExTGx88rwX/KYYbs/a1a+FRNquNv956RzesYGidnnjgZX3+wWV9v+qMgDXehuZBrdF1eY3W11kbov/xab+/o6+70bbxPLXEAAYwgAEMYOBpGSCoVb+s7wZZs6DmziZYvf4ppoBSL6i595TyhzP/Y4Jaoz52+++Na77ruxot297zDcOXufugZn7tjGjd+MA5fbL80WtaeMZ/LVuojVsb+vHqe/r8986plFZoW3wrNHoX2A+aB7Wf/3rUDn61ITT0vv51Rm5Dk3X51+t7nH+bEbWn9YeC9Ub3SM2oGQYwgAEM7NYAQc33Ra/zYjYOauXrzr25jNdn3VPV3FO0htqbStw79TEYskyZD2Y1ao3A+cKFMyGGocy5L1TyrlGzti8wkuXtNNFHkZwRiyYTbkQaUYupDi1H1Jq0t9r3bnhus0/acdIwqHkzNx6bq4bChss2GFEzzQ2tDHunOjqPF7O32jq18ckvX2nlqBXYntfysmch/LN5UDMX/t0OatZ1doHTOqv1DK8v+Ht7bQi+pnXNi7p4hGvUWtcpal1ZnppiAAMYwAAG9ssAQa3NL5fNO6g2qFXKRRX+84TS9pT3aU3e3JkgxJtUY3hqTisPdp6v9x5eUBv/n7Iq7jVtlft5TR52JhjxTzziBKmUsvPuxCCVsoo3c8oeGXQm3HAn8XDeJ3pQWznnzN6Y+TAUBL0aRgpqpjqpQ01gbRLUWrbXa7dpygm5o5qtuY1BZx9OXvha+tumKo+ddVS+m9ed3zinIS59snP6obdszQhVw6BmyplU5IDufvRnFQae11df12nn6mXdOXVBq9/stMHc2tSPHzoTmtxZqPMauyYtgpo3w+TAQX1+/lZ1opInv9SZTKTjNjRqW4Pn25r1sazClDWxzqCGToduE+GzUG8/5LkGdadusV3XijGMYQADGMBA2ABBLZYvGm7o8a4xC/wc1OiV8EQgReVGnKDlPzXRe+wPI15Q8/7N/zM8sUbp4xN2IPMvYz+2w+LObIsOguhBzbw7rXRg25xtqF6TFjGomdvR6+Cvjb0dTYJay/b6+77d+6j5X9PksRe+Avclc6exD08a4i0bJaiZ3qQk1vVnvuvdAjv46gUVAlPnu9eqWc8dfEffuwHSfo0bCuu113ouMKGJde3bZye1WHfdoen5o7ShST0D21Vnufbuo1bQpLsv2LfLWOcPQqu68u8YwQAGMIABDOyfAYJanS990UHWBrXBF4Y0OpFTYa3BiFllXfn3xzT8gjPa5Q9X/jBSL6ilXhpV9uqyyuFZI83gTbGNVFqjp+e0cveieyNqP7QOgpppqnT9rMYOO1Pie23uOKhZtY9YB39t7H5qFtRatTfQ9+61hDX3m/PXrP3HXvjyB5/Ff35Ndz76Uo/8Aclq43l3hOuz0PqbjKhZ2/591rnmrN4kIo7hLT385F3d/u3OtWkLz72o23+a18Ot+u/lb6//cTioWet/tHRZd35/UIveZCXPOdsXvOF1hDYE+iPUvmb/tu32nTXbaLPlTFPl+XH3YIb/fn4R3qvF+p26sz7qgAEMYAADGMDA7g0Q1BL+xcsLajUBJeHt7sad07uesOZWCB3UumH46mBd9Wu56UzJ32wSkdjea/cfNPW3IZ71rl+x7ikYPL247vtVylpfnNSQNSpc7/YYfVKvurVh2zmFEQMYwAAGMJA4AwS1hKMkqMXzZb69L6dl5e0baGd08f7u3vdpBjXrWrDvThy0J/SouU9bwj231w8Rau/OdBo+DTj8Ps71m97pxmllF8uJ+zAOt5nfIzjoN/dsL/svBjCAgb4wQFBLOHSC2h5/WSsXlE0bMtLjuraLiUWeSlALX0f2ygWVQqdR9tWX+5/yTl+N5FSsOQ046MYOaoMpDR8/q3yj05ET/lnQV31LX/TFFxBMBz+nqAf1wAAGwgYIagn/QkBQ24edtlzQ5MikCuXO3/upBrUDB3U7W+c6s4RbDn/47Pp3K1Qfye6qn3bdhn6rOdtLgMIABjCAAQzsmQGCGtj2DBtfijsPftSO2mEAAxjAAAYwgIH+MkBQI6gR1DCAAQxgAAMYwAAGMICBhBkgqCWsQzhS0l9HSuhv+hsDGMAABjCAAQxgoJ4BghpBjaMnGMAABjCAAQxgAAMYwEDCDBDUEtYh9dI0z3GUBQMYwAAGMIABDGAAA/1lgKBGUOPoCQYwgAEMYAADGMAABjCQMAMEtYR1CEdK+utICf1Nf2MAAxjAAAYwgAEM1DNAUCOocfQkbID7c7U2EcO95up9IPEcf6gwgAEMYAADGMCAY4CgFv6Szu+tv6T3co22i8qNGDLSWeV/qv2gXD01oIWBAS2cWrDrFP69mz9YwtsS/j2wbQ+uaTzt1Gk3NwYPrLOXXbFt/f25Qv/T/xjAAAYw0IEBgloHRav9cllQ1jBk+P8/lFL6X8c18+m6KrG8R21oqG3H011m5b/HNPzCtApdsj3R21tWYSIt41BGufv1a1maedEJam85Qe37/zhg/16Y+XZPP4A2/uuoCs+9o9UY+yLytt3PKXPIUHqioHKM7dhr17xffevUhbpgAAMYwAAG9tcAQS2WL5h1gpovtKX/bU7F7f3t6Dh2tMKEFUazXRPUora3sphVyjCUubLeMHSVzr/sBLPza/Yy4d/jqHM763BGu07GG9Q62LbiXzIyjJSy18sNa9bO9rBM938+0If0IQYwgAEMYCBeAwS1OIPa0ZzWvfU9Kqv46bSGB52Rtsylxl/+uwV11OCz39sVrb0rmnnVkPHqjFaahOqHF3s3qHW0bdvLmrZOgbTq5tnnJ6EVAxjAAAYwgAEM7NoAQS0WRO6Imj+oeev9ekZD1uhaalrL3nPWz+2yli+NazjlnjKZGtbY+3mtV4JJfP2SNWKRUW4tuPzgq+PK/V/tKEZlraDcxKjS3noHUxo+flb5B8H1mqbTZjtAVoqam8godchqy6CG3phV0WvHYjZ4SqdvpNA71bMaQtdyyhiGsotlFU4PadAwlDo2q/XtouZOpe31pKdCp8nFXYco7fX3x9K0PZo2erXUfKf67KQ9onb7rxv2cpWPx+zf73wWrq+px6sLunfqNS0ecK9re/aACn94V8V/hJdd0J2BARWsUbqtb/X3Uy9r8RnrNc/qxrHL2thyl3ff275GzrpOrs7/9jr82/V4Uz98dFK3n3vWWf6ZA7px7IJ+eBhugykzwrb5Q3jp6qg9qja9VGed/rbwuLkt6kN9MIABDGAAAxjwGSCo+Yrh//IZ7XGToGaWNPu6FYCssOV9kXWvhaoTeoyRXOA0SSeoDSkz4gQdLxzZP61rqarrtNa9rtxRN/iF152e1nJgpMhp89DUjLLWiEho+dTpL5wdJUrwcYPa6LEx3/qGNf7GkO93f5uj1iGl4cP16jCu/CO3tlHa6+v75TMpGcaY5kpeH+3255ru/a5+mFo4+I6+f+xfvxPUbrz1nu4crH3NYvaWnlhtjRzUtrT21sG6gc6bDCWac3+bfY9LcxqzQvmZZT5cfaZiqS3rwxQGMIABDGCgbw0Q1GLB3yyomSpMOUEou+h8ufWuhUq/OadiueLge1RUfmrYDjTjn7rPmaacoOa8fngqr6IVSKxRqHPWSJuhoXMrPrzrmp3IKnezqLI3IvaoqLk3nXAzedP35dodUbMDWvqEckslZ9KTn/LKWqNxhyZrrkVreSqhG9SsdWYuFVW57o3GOdcwOSMv1ojb7utgjzxWSrr2thWwDGWv+7fNedyyvdW+dwPukYsqVp+rXV+0L95rWjl1UvcWvtWv7ojYk1++1Xd/dILTnQX/+p2gZo+QHRzVvVsbemyaevJwXkvWaNwz/661ULvau0bNXe/oZZV/cd9va1MbC+/p8zPOZCjRtsnfZv/jFc0MGTLqjSiH2h3P+/nfm8fUFAMYwAAGMICB3jRAUIvli2TzoOaFLS+g2AEiNa0vAiNcVgDLO7NHThWq4ct7beYvxepz9s64XVDWOlVxxHddXKNtcUeZvPd3dma3zemswtOrNwo4jZ6vfjh4Qc27zssb3To2p5LVtlA7OqlDzQyD7jqrp1/6atCyvdVl3Vq8nQ/WuPrvMe787qhY8FRJN1AdPKnVzeB7NQpkjZ6v9oXd9i911wp6Vvhb2nRG5Z7GNpkVXXvDOpjQPRPNBOsUrDn/Rj0wgAEMYAADGEiCAYJaLF9cmwc1JzAYcka0mpye6J1+6AUb34haMGRZO4+7ntAoRmUtr7PHh5VyJzGxR8zc9QbX4bZ5YicUtgLZMvi4Qa0amsIhKhDUYqpD+D18/dmyvdVlo9eiVa2sf3+8Oq/lP7yoxWdrT2esG9Tce7O1s+72gpqpX2+9oxv29W4DWjjwsj7/4LK+X92KPZC2X2s++NvpX5bBCQYwgAEMYAADBLXql/XdYGgW1NzZBKvXP8UUUOoFNfe+Vv5w5n9MUGvUx27/vXEttnvePfnuggpeQKoz6cdeBTX7Q35rQz9efU+f/96555t1iuXiWwv6NRb7Tk3zbzOixh/URvsXz2MDAxjAAAYw0IkBglosX1YbB7XydefeXMbrs87pf95pYkPtTWfunfoYDFmmzAezGrVGynzhwpkQw1Dm3BcqedeoWdsXGMnydpToo0jOqEmTCTcijai5p8vttg4tR9SatLfa9254brMt7exo1Rthn7mln71ZG633a3bqY+QRtaP6+4bXn+39fPLLV1o5agW257W83N5rWm9vURePcI1a6zrFVW/WQ60xgAEMYAAD/WCAoFb9sr4b8LVBrVIuqvCfJ5S2p7xPa/LmzgQh3qQaw1NzWnmw83w9cF5QG/+fsiruNW2V+3lNHnYmGPFPPOIEqZSy8+7EIJWyijdzyh4ZdCbccCfxcN4nelBbOefM3pj5MBQEvRpGCmqmOqlDTWBtEtRattdrt2nKCbmjmq25jUFnLpxTEw9o6WNnYhDTnsTjgu781pkmf7cjaj+eed6ezbFwOhQEfdtkrl7WnVMXtPrNpireLJNbm/rxQ+decMEJTTrbTttSW7M+llWYsia1GdTQ6dAtGvxt5nHsp6XW+1zhuV14xyhGMYABDGBgjwwQ1GIptBt6vGvMAj8HNXolPBFIUbkRJ2j5T030HvvDiBfUvH/z/wxPrFH6+IQdyPzL2I/tsLgz22KnQc28O610YNucbahekxYxqJnb0evgr429HU2CWsv2+vu+3fuo+V/T5PHPV0frT4vvng6526D2ZOkdLdY5pTJwH7XVCyrUWcaZXTJ8i4DOv7i2dx+1giZdh/atKtY7fz9CBrXDAAYwgAEMYKAfDBDUmnzZbh9AbVAbfGFIoxM5FdYajJhV1pV/f0zDLzijXf5w5Q8j9YJa6qVRZa8uqxyeNdIM3hTbSKU1enpOK3cvujei9u/U0UfUrHqUrp/V2GFnSnyvzR0HNav2Eevgr43dP82CWqv2BvrevZaw5n5z/ppFebypH86P6YZ3s+sDB3U7O6sfl/5sh6fdBjVr28vz7+r2b3auO7MCWCComVt6+Mm7uv1b3zLPvajbf5rXQ//pmIE6RNlGa6ZSt27WTJ8t1lOeH3cPJPjvpRfx/Vq8R/v7LO9LrTCAAQxgAAMYSLYBglrCv/h5Qa0moCS83d2443vXE9bcCoFaNzzFYf2KdT+/4Km9dfu+Utb64qSGrBHZeremoMYNa1y3ntSLemEAAxjAAAZ63gBBLeHICWp7eaSjrLx9A+2MLt7fy/ft0vdyZxkNn4IbDhbOtZPeqb5pZRfLPf/BGq4Bv3ep8YT/fcAVrjCAAQz0tgGCWsL/EBPU9ngHLBeUTRsy0uO6FtPEIj35IfpT3qnTSE7FmlNwg31mB7XBlIaPn1W+0anACd8Pe7IPqTkHDDCAAQxgAAOJNkBQSzhQglrwS/+efGEuFzQ5MqlCeR/eO+Eeq/W3Au2RLDXqlv6inYn+Q1zdr+gn+gkDGMAABnwGCGq+YvDHkmCCAQxgAAMYwAAGMIABDCTBAEGNoMaRCwxgAAMYwAAGMIABDGAgYQYIagnrkCSkd9rAUSQMYAADGMAABjCAAQzsrwGCGkGNoycYwAAGMIABDGAAAxjAQMIMENQS1iEcudjfIxfUn/pjAAMYwAAGMIABDCTBAEGNoMbREwxgAAMYwAAGMIABDGAgYQYIagnrkCSkd9rAUSQMYAADGMAABjCAAQzsrwGCGkGNoycYwAAGMIABDGAAAxjAQMIMJDiorSt31JBhGEq9NKrp6yXwJAwPR1n29ygL9af+GMAABjCAAQxgoHcNdEVQs8KaYaQ1ebNCWCOsYQADGMAABjCAAQxgAAM9byDBQc1Nx9sVFf82rpQV1qYKPd8hHBXp3aMi9C19iwEMYAADGMAABjDQroHkBzX7aMGKZoYMGRMEtXY7luX4EMAABjCAAQxgAAMYwED3GuiSoOZer9YyqFVUOJ2WcSitycUyo28MiWMAAxjAAAYwgAEMYAADXWmgu4La2/kWRS4oa1/PZsh4fVYlULaoV/ceYeDoEH2HAQxgAAMYwAAGMNDLBrokqJU0d8yQcSijmaWSKg0D2M6IWnaeWSJ7GS7bxgczBjCAAQxgAAMYwEAvG+iSoGbKvD+n8VcH7en6rVkgM5fWGS1qGFjZaXt5p2Xb8I0BDGAAAxjAAAZ630D3BLUH15QlqBFOCacYwAAGMIABDGAAAxjoAwNdEtQqyr/pnPp48RvupcYRlN4/gkIf08cYwAAGMIABDGCgvw10SVBzZ31sOZlIf3cmOzP9jwEMYAADGMAABjCAgd4w0F1BreX0/KZWLgxr0DCUPjWn4nZvdBI7G/2IAQxgAAMYwAAGMICB/jLQY0FtXbkRozrhyOTN/upMdl76GwMYwAAGMIABDGAAA71hoMeCmqnKzUml3XupZRd7o5PY2ehHDGAAAxjAAAYwgAEM9JeBLglqy5pOGTJanfq4XVFp6awyVlA7dEJzpf7qTHZe+hsDGMAABjCAAQxgAAO9YSD5Qa1S0hfnMvbpjKkzyw2nIl2/5Cxj3WPNMAY1eqXYcFnw9gZe+pF+xAAGMIABDGAAAxjoVQMJDmruTI/uaYyGMaSZrxtDtIPaYErDx89q7psyIa0P7i3Rqzsl29V4P6c21AYDGMAABjCAgX4x0BVBLXV4TDM3CV/9gpLt5AMYAxjAAAYwgAEMYKDfDSQ4qIGz33Gy/ewDGMAABjCAAQxgAAP9aoCgximCnCaKAQxgAAMYwAAGMIABDCTMAEEtYR3Sr0cM2G6OlmEAAxjAAAYwgAEMYGDHAEGNoMbREwxgAAMYwAAGMIABDGAgYQYIagnrEI4i7BxFoBbUAgMYwAAGMIABDGCgXw0Q1AhqHD3BAAYwgAEMYAADGMAABhJmgKCWsA7p1yMGbDdHyzCAAQxgAAMYwAAGMLBjgKBGUOPoCQYwgAEMYAADGMAABjCQMAMxBLV15Y4aMgxDqZdGNX29RCcnrJM5MrFzZIJaUAsMYAADGMAABjCAgW4wEGtQs8KaYaQ1ebNCWCOsYQADGMAABjCAAQxgAAMY6NBADEHNTeTbFRX/Nq6UFdamCnRIhx3SDemeNnIUCgMYwAAGMIABDGAAA0/XQHxBzQ4mK5oZMmRMENSA+3ThUl/qiwEMYAADGMAABjDQywZiDmru9Wotg1pFhdNpGYfSmlwsM/rG6BsGMIABDGAAAxjAAAYwgAGfgacT1N7OtyhyQVn7ejZDxuuzKvka1MupmG3jqA8GMIABDGAAAxjAAAYw0I6BmINaSXPHDBmHMppZKqnSMIDtjKhl55klsp2OYhl2aAxgAAMYwAAGMIABDPSPgZiDminz/pzGXx20p+u3ZoHMXFpvMbrWP8Vmx6KvMYABDGAAAxjAAAYwgIF2DMQf1B5cU5agRjhtOJrKjtnOjskyOMEABjCAAQxgAAP9bSDmoFZR/k3n1MeL33AvNXau/t656H/6HwMYwAAGMIABDGCgUwMxBzV31seWk4nQYZ12GK/DDgYwgAEMYAADGMAABnrfwNMJai2n5ze1cmFYg4ah9Kk5Fbd7v9DsTPQxBjCAAQxgAAMYwAAGMNCugX0KauvKjRjVCUcmb9Jh7XYYy2EFAxjAAAYwgAEMYAADvW9gn4KaqcrNSaXde6llF3u/0OxM9DEGMIABDGAAAxjAAAYw0K6BmIPasqZThoxWpz5uV1RaOquMFdQOndBciQ5rt8NYDisYwAAGMIABDGAAAxjofQPxBbVKSV+cy9inM6bOLDecnn79krOMdY81wxjU6JViw2UB2PsA6WP6GAMYwAAGMIABDGAAA7UGYghq7kyP7mmMhjGkma9r38grvh3UBlMaPn5Wc9+UCWncbwwDGMAABjCAAQxgAAMYwEDIQKxBLXV4TDM3CV9eKOVn48BObagNBjCAAQxgAAMYwAAGGhuIIag1XjmFpzYYwAAGMIABDGAAAxjAAAaiGyCohYYYQRQdETWjZhjAAAYwgAEMYAADGIjXAEGNoMb5wBjAAAYwgAEMYAADGMBAwgwQ1BLWIRyJiPdIBPWknhjAAAYwgAEMYAAD3WiAoEZQ4+gJBjCAAQxgAAMYwAAGMJAwAwS1hHVIN6Z92sxRKgxgAAMYwAAGMIABDMRrgKBGUOPoCQYwgAEMYAADGMAABjCQMAMEtYR1CEci4j0SQT2pJwYwgAEMYAADGMBANxogqBHUOHqCAQxgAAMYwAAGMIABDCTMAEEtYR3SjWmfNnOUCgMYwAAGMIABDGAAA/EaIKgR1Dh6ggEMYAADGMAABjCAAQwkzABBLWEdwpGIeI9EUE/qiQEMYAADGMAABjDQjQYIagQ1jp5gAAMYwAAGMIABDGAAAwkzQFBLWId0Y9qnzRylwgAGMIABDGAAAxjAQLwGCGoENY6eYAADGMAABjCAAQxgAAMJM0BQS1iHcCQi3iMR1JN6YgADGMAABjCAAQx0owGCGkGNoycYwAAGMIABDGAAAxjAQMIMENQS1iHdmPZpM0epMIABDGAAAxjAAAYwEK8BghpBjaMnGMAABjCAAQxgAAMYwEDCDBDUEtYhHImI90gE9aSeGMAABjCAAQxgAAPdaICgRlDj6AkGMIABDGAAAxjAAAYwkDADBLWEdUg3e/BC7QAAAH5JREFUpn3azFEqDGAAAxjAAAYwgAEMxGuAoEZQ4+gJBjCAAQxgAAMYwAAGMJAwA/+0+fOv4n9qgAEMYAADGMAABjCAAQxgIDkG/kn8RwWoABWgAlSAClABKkAFqAAVoAKJqgBBLVHdQWOoABWgAlSAClABKkAFqAAVoALS/wN6b/Q8YAJM+QAAAABJRU5ErkJggg==;" parent="1" vertex="1">
                    <mxGeometry x="150" y="1740" width="725.15" height="570" as="geometry"/>
                </mxCell>
                <UserObject label="https://www.freecodecamp.org/news/inserting-uml-in-markdown-using-vscode/" link="https://www.freecodecamp.org/news/inserting-uml-in-markdown-using-vscode/" id="12">
                    <mxCell style="text;whiteSpace=wrap;html=1;" parent="1" vertex="1">
                        <mxGeometry x="140" y="570" width="450" height="40" as="geometry"/>
                    </mxCell>
                </UserObject>
                <UserObject label="https://plantuml.com/starting" link="https://plantuml.com/starting" id="13">
                    <mxCell style="text;whiteSpace=wrap;html=1;" parent="1" vertex="1">
                        <mxGeometry x="140" y="600" width="180" height="40" as="geometry"/>
                    </mxCell>
                </UserObject>
                <mxCell id="14" value="" style="shape=image;verticalLabelPosition=bottom;labelBackgroundColor=default;verticalAlign=top;aspect=fixed;imageAspect=0;image=data:image/png,iVBORw0KGgoAAAANSUhEUgAAAWUAAAGACAIAAAD6buTdAAAAAXNSR0IArs4c6QAAIABJREFUeAHtne+PXNWZ5+9fYTmOBMEbZgbcDlhqQ4ZgsF3EvQpEJvQmxguBFCvSdPBuJQqGjC87mym2e7c7cUKJHTlStTOxaPX8QF6hdoNV6hiNUPeLwYVikxc4L1rlFwz0bDeKriz5jYV6h3rgm0fn/qhbdU9V3R/fKwtOnXvOc57ne8751Dn3Vt/rbPGgAlSACsRTwIlXjKWoABWgAlvkBQcBFaACcRUgL+IqxXJUgAqQFxwDVIAKxFWAvIirFMtRASqQSV5sbGys8qACWVZgY2Mji/TJHi/m5uZmZmaWeVCBLCswMzMzNzeXOWRkjBcbGxszMzMeDyqQfQVmZmYyt8rIGC9WV1eXl5ezP1QYARXwlpeXV1dXs7XEIC84cKnAcBQgL/rOymKuLz766KOlpaVXXnllampqdnb2zJkz77zzznDGOFu1pwB5QV7YG01tS41G47HvPr5jx47SNx44OvH4U889/b0fPfXwY9/aM7pn9K69s7OzGxsblpukuUEpQF6QF9bG2kcfffT9Z76/Z3TPD6d//Pf/8trZy4vGv5P/WBt/8tsju0cWFhastUpDA1SAvCAv7Ay3S5cu3XPvPY8/+4TBCP/H6d/M7BndMzU1ZadhWhmgAuQFeWFhuK2trY3etffY31T8dAjM+bt/nt93cN/s7KyFtmligAqQF+SFheF25OiRp557OhANYZlzvz1z+8jtS0tLFpqniUEpQF6QF0nH2pkzZ/Yf2h/GhYh895W/vm//fUmbZ/0BKkBekBdJh9t9+++rzk37uXDq/NyRyaO7RnfvGt19ZPJo9fTUsaq5YXngwa/z2mfSDhhgffKCvEg03N5+++29f3lXICycoOPU+Tld+Ce/dI8cPRLtQb1ed11Xl2m1WqVSqdFo6Eyd7lhAF+4q7bYPz/MajUa5XF5fX++qetYLkxfkRaIxPDs7G3hPRFiBBUX19NS2HdscxzF48erqP9z8pZujPeiBF9EGrZwlL/o+cyw1wN+DWxnwdoyUnyr/5JeuXjKcvbx4rFpxHAewkLOSaZQ8e3lxz+ieS5cuRXgTzQvXdaenp0ulkhBKFh1YX2A5IPZhan19vVwuSxUsE5rNZqV9OI7juq4YkTJY4IjBRqMh+aVS6bXXXiuVSq1WC03AYERQGT3F9YUliIWbyffvwb95+JvTv5kxKHDg8Kez11hKGGXwcf+h/RcuXIiYP5jkKAMceJ7nuu7IyEiz2fQ8r16vy9RFgUajgcksjGg0GpKo1+tiEExpNpsjIyOSr8voNApjfYG2PM9DE3A1ZwnyInyiWzpTQF7sGt3tOA6IEJ1Izgt8+TebzYMHDzabTcxhJDzPazab4+PjrVYLU10mc6vVGh8fb7YPqY6ZD6Zg2vt5IcwSH9AEyucsQV5YokK4mXzzInA/Iryonp6KJoWcTb4fieCFnsxYp9TrddlN4L+yQgFuZJJj06H3F4G8AIAajQacyRkpJBzyInyiWzqTb14EXu+snp5yHOfA4ZLBC/8OJfn1TkxgWUEY6wu5kVEqld5///1yuSxXN+r1ukYAJrbBC8mXTYpc0dD0ASM8z8MKxXXdiLs2aCi7CfLCEhXCzeSbF4H3U0+dn9u2Y9u2HduOTB4VZJw6PycXNYxFR5z7qXpmYg5j49CRF7IlqdVqshkBQXCFErM3kBdyFtdB0JzhlVx2LZfLfrOwn4MEeRE+0S2dyTcvPM8L/L2WIAMLfknsGt1trDji/F5LJry+lOC6LhYImMBh6wtZFDiOgypyVRIbB7BA80Jf49TLCjRn8EI2L7CZAzQEhkBeWKJCuJnc8yLs9+Cnzs8dq1YOHC7J7zuN26tnLy/G/z24zF7QR09LTOAIXshk1sQRBolB3EDRvBBrIyMjUgasQXNiAbdm5GO+NyOex+fxhc9zW2dyzwvP8/j3Zq1WK/ebEfLCFhOi7BSBF/x79tzfGZHtCfcjUVPdyrki8MLzvM+el3PsSeMKhf9jzp6XI3slbGoCt/25ySQvrDAhykhBeOF5Hp/HlxsuhAVCXkRNdSvnisMLGWR43u8DD35dnvf75A/5vN+wCZixfPLCChOijBSNFzIDPvzwQ75PIGMwiOEueRE11a2cKyYvYow9FsmeAuSFFSZEGSEvsjct6HGIAuRF1FS3co68CBl7zM6eAuSFFSZEGRFeLPOgArlQgO9bjprtyc+RF7mYJgziMwXIi+RMiLLA/Uj2lt30OEQB7keiprqVc+RFyNhjdvYUIC+sMCHKCHmRvWlBj0MUIC+iprqVc+RFyNhjdvYUIC+sMCHKCHmRvWlBj0MUIC+iprqVc+RFyNhjdvYUIC+sMCHKCHmRvWlBj0MUIC+iprqVc+RFyNhjdvYUIC+sMCHKSHJe4EUY+gmUPY81PKVSHvTS70dORrQS9lz/nkPzV8ST/v2nus3Rj/yUh3ri4Z3dmopfHu9MiV8lfskexCEvoqa6lXNhvPi3dy4G/vP3t+u6VkghlskLv8Jxcvyzq9Fo9BsZ5EXyOZiT9y2vnaxdevg7xr+1kzU9dvVzseWJb3h9juM4erDqfIGL8cRqfJkLL1ZXV/HCYRmUeOi2NBpBqIgCeHWY+Kb9116J85VKRZ67rV1F2t8KuKnN4sndxhO96/W6XhHIMkrnIEDjNctaf7FZqVTW19f9vJA3tsKBQK/kDYkLCwuyJIHI8hoUyXQcB4/zq9freH30Cy+8oJ9O7rpurVaTXhN5XdeVAogl0AfxvFarSWFpS0vRaB/aN0MEfOT6Ijm/OlgIW1+snawZdPDnSD9hnggUZOjLyIiYb5h4YsTgRbPZFAtiDe/gkBmCV/tgoMRJaCNI61bEJRncEgsmW6B9+KzfISYGMUOMB/xrLjQaDT3Jdes6LZ7AIDyRbSA81KZQBi9MDfNKhyllZFrqtYk4I/n1el1/Dej1hX6ztJBCfDakRiCGMhKI9sGISOIFuRCjTpAXHWZ78tMWeaF7Tn+56XmFMjIKZf7owoH7EV1Yj1FYi5PAwNWFZYD6qaRd0uV1Gq7Kt7GMeONFQRj0YSLIu5T9zcFb3Yq0LrPR+L5FQ9pDZIZ5ZRhHo9qIfh+SEYXuC8x/4xVtHX3Qnat1QEXtjABOM0ufJS+SA6GDBeu8kO43VqrG4JYv5FKpFJMXMmTlq6nnl4AKGsQxtKt5YUwGY47pcSlpqQuvJIEtjzSEfZmeTjClp4RRAEsDY0pjNQcjktCmcAqZYV6hFalitCWTUwLB+gIrGpnb6Fntv5auow9d8SIiWL5/pMNUt3LaIi9ACswcGVt6JOmh3BUvZAi+334vccKXgMr3s76EIfjolhf4Mnz//ffDlgmIN0wEVDQKYCYbcxjvT8REjZhCMGKEBq9QQHLQFkghysA3w07E+gJY0bxAJhyI+OZARV2Y6wsrs753I9G80LdIOl6/0N8qmEvr6+vGIJPuD/tWwZDV3/y4QFCr1Yx5ogdT/DSWBroVYzUe6LbRhHgr1/nW19eNpbguHGhNTwmjAJyBINoarkdiBmpTKAmbsIZTkjCMo5gGQW/7Eb9jMG74EDYSjIh4/aL3SW6xZgQvjJsjlx7+jnEFVDoeK2Q9IPTVOD0gjIkqk18KyAjDCNYzGQ05joOthDHsOn7U7gW2At9wLwODPsy4VHEcBxSTHHxEo4Ei6CkhBWRpptNwNdAHuXsSeH9EX7MM80q+rsVbHT5AI9xHgDq/2/1ImA9aGf01o8WJ+X42Xr+wSIZgU2G8CBydgZngBZbK8rbx119/HdelsL7FyMOclNt1CwsLBi+MkRrx1W14pce9cQp3+DR3ZG+vySUuTU9Pi0t6QOu0GJfqmmJSRrb9+np+oAj6VoKuKOAQlQ4ePNhsNo1YjI+6rr9pLPuNUwKjSqWiL1J4nicaIrNer0sgBi8kIjmFPYv0FFCrp712EspIJgTUTWhxjHgDP5IXwZPcYm5yXgT2XD8yY37J9KPpvNqMXrxkLmrywiIZgk1liBc93xnJ3LgfmMPkRfCsGGBuTn7fObAhG6chvc2W8nptL8tmY6UdxyzLkBcDJENwU+QFpyEVGI4C3I8EM8libob2I8MZg2w1OwqQFxbJEGyKvMjOdKCnHRQgL4InucVc4cXLPKhA9hUgLyySIdiU8OJfeVCB7CtAXgRPcou53I90WOPydHYUIC8skiHYFHmRnelATzsoQF4ET3KLueRFhzHI09lRgLywSIZgU+RFdqYDPe2gAHkRPMkt5l68eHFpaalDP/A0FciCAktLSxcvXrQ4OwZgKmO/79za2jpx4kQWBgN9pAIdFDhx4sQAZrjdJrLHi6tXr77IgwpkX4GrV6/ancwDsJY9XgxAlII38cYbb9xyyy1vvPFGwXVg+H4FyAu/JoXO+eSTT+68887t27ffeeedn3zySaG1YPA+BcgLnyTFznj++ed37ty5ffv2nTt3Pv/888UWg9GbCpAXpiJF/vzWW28JLLa3j507d7711ltFFoSxGwqQF4Ygxf2InYjAQv7LXUlxB0RQ5ORFkCqFzMNORPOCu5JCjoXQoMmLUGkKdeLatWt33323JgXSd99997Vr1wqlBoMNU4C8CFOmcPnnzp279dZbgQlJ3HrrrefOnSucFgw4RAHyIkSYQmZPTk7edNNNQMZNN900OTlZSCUYdLAC5EWwLsXMvXbt2m233QZe3HbbbdyJFHMkhEVNXoQpU9B87Eq4EynoCIgMm7yIlKeQJycnJ3fs2MGdSCE7v0PQ5EUHgQp4+tq1a7t37+ZOpIBd3zFk8qKjREUssH379iKGzZg7KUBedFKokOfJi0J2e+egyYvOGhWwBHlRwE6PEzJ5EUelwpUhLwrX5fECJi/i6VSwUuRFwTo8brjkRVylClWOvChUd8cPlryIr1WBSpIXBersbkIlL7pRqzBlyYvCdHV3gZIX3elVkNLkRUE6utswyYtuFStEefKiEN3cfZDkRfeaFaAGeVGATu4lRPKiF9VyX4e8yH0X9xYgedGbbjmvRV7kvIN7DY+86FW5XNcjL3Ldvb0HR170rl2Oa5IXOe7cJKGRF0nUy21d8iK3XZssMPIimX45rf3ggw/mNDKGlUgB8iKRfHmtzPVFXns2YVzkRUIB81mdvMhnvyaOirxILGEeDZAXeexVCzGRFxZEzJ8J8iJ/fWolIvLCiox5MyK8uH79+sTEhOM41Wo1SYRiZ35+PokR1k2DAuRFGnohdT4IL1ZWVsbGxjY3NxP6B15sbm6OjY2trKwkNMjqw1KAvBiW8qluF7yYmJi4fv16Ql/Ji4QCpqc6eZGevkiRJ9u3b19ZWXHaxx133HHlyhXsTRzH0YuO+fl5KSZkuXLlyqFDh65cubK1tYXVhNT99a9/Lbsbx3EuXLgwMTGBhcb8/HzCLU+KtMu1K+RFrru31+CwvgAaMKWxWNja2tIblmr7iODF/Pw8CLK1tWUYBDt6dZn1BqEAeTEIlTPXhp8XCEHmvFy8FEbg1NbWVnxeXLly5dFHH93c3ERC22E6nQqQF+nslyF75eeF3p4cOnRofn5eLzTgbnxeSPWV9sHNCARMeYK8SHkHDcc9gxcaDTqdZH2BLUm1WuVmZDjd3H2r5EX3mhWgRiAvZBUgCw3Zj+jrF/Pz8xMTEx988MHY2BjOOo6zsrICxOjrF7J5uaN9yPXRAuia+RDJi8x3YT8CMHghlzblPoisKbCDwP0RfWVUSh4/flxugoAXW1tb1WrVcRwBiuRbuWXbDxFo068AeeHXhDlbjzzyyGBUqFarwo7BNMdWEipAXiQUMJ/VZX3R79j+/ebIo48+ys1Iv3W2aJ+8sChmfkwNgBf6OsjW1pbsTWQjo/+LjU9+xM1yJORFlnuvb74PgBd9852G+6gAedFHcbNrmrzIbt/11XPyoq/yZtU4eZHVnuuz3+RFnwXOpnnyIpv91nevyYu+S5zFBsiLLPbaAHwmLwYgcvaaIC+y12cD8Zi8GIjMWWuEvMhajw3IX/JiQEJnqxnyIlv9NTBvyYuBSZ2lhsiLLPXWAH0lLwYodnaaIi+y01cD9ZS8GKjcWWmMvMhKTw3YT/JiwIJnoznyIhv9NHAvyYuBS56FBh966KEsuEkfB60AeTFoxTPRHtcXmeimwTtJXgxe8wy0SF5koJOG4SJ5MQzVU98meZH6LhqOg+TFcHRPeavkRco7aFjukRfDUj7V7ZIXqe6e4TlHXgxP+xS3TF6kuHOG6Rp5MUz1U9s2eZHarhmuY+TFcPVPaevkRUo7ZthukRfD7oFUtk9epLJbhu8UeTH8PkihB+RFCjslDS6RF2nohdT5QF6krkvS4RB5kY5+SJkX5EXKOiQt7pAXaemJVPlBXqSqO9LjDHmRnr5IkSfkRYo6I02ukBdp6o3U+EJepKYr0uUIeZGu/kiJN+RFSjoibW6QF2nrkVT4Q16kohvS50QoLzY2NlZ5FFWBL3/5y0UNnXGvbmxshJEqmBdzc3MzMzPLPKgAFSieAjMzM3Nzc4HICODFxsbGzMyMx4MKUIGiKjAzMxO4ygjgxerq6vLyclGFYtxUgAp4y8vLq6ur/iUGecHBQQWogKkAeWEqktrP77zzzpkzZ2ZnZ6empl555ZWlpaUPP/wwtd7SsVwqQF6kvVs3NjZmZ2dH79q7Z3TPw49968kfPvXUc08fnXj8gQe/vmPHjse++3ij0Uh7DPQvLwqQF6nuyYWFhZHdI+NPfvvkP9bOXl40/v39v7z2w+kf7xnd8/1nvv/RRx+lOhI6lwsFyIv0duPU1NSe0T3Tv5kxMOH/+PixJ++5955Lly6lNxh6lgsFyIuUduPs7Oy+g/v+7p/n/XQIzDn2N5XRu/aura2lNB66lQsFyIs0duPS0tLtI7fP/fZMIBrCMp967ukjR4+kMR76lBcFyIs09uR9++9zX/nrMC5E5O8/tP/MmTNpDIk+5UIB8iJ13biwsPDAg18PhEL19NSRyaO7RncfOFw6Vq0cmTx66vycLlmdm75v/32pC4kO5UUB8iJ1PXnk6JGf/NLVFJD0gcMlp31s27FNEo7jHJk8apTc+5d3vf322xFRtVqtUukzU2JnZGSk2WxGVEl+ql6vu66b3E6ghVarNT4+3u8QApsuWiZ5kboev/lLN7+6+g8GBY5MHnUcZ9fobsk/dX5Ocg4cLhklH3/2idnZ2Yio/LOr0Wj0GxnkRUSPZOgUeZGuzrp06dKe0T0GAs5eXpQ1hc4/dX7OcZxj1YrOPHt58Se/dMtPlSOi8vPC87x6vV4ul9fX1z3PW19fL5fLsvRAZrPZHB8fX1hYkHy9WGg0GljvlEqlVqslBqenp2Uh88ILL2hrruvWajVpQjjluq4UqNfr4nmgD+J5rVaTwtKWXi7xp2sR/W7lFHlhRUZrRi5cuLD/0H4DAWcvLzqO419KGBcvpNb0b2a+efibEQ4F8kJw0Gq1ZKJi3rrtw/O8ZrM5MjIi+JAyggy9NpGpK/n1el2vWfT6wnVdnBJSSHONRkMQEOaD2Pf7EBhRhAI81bMC5EXP0vWlYiAvqqenAi9V+LFy9vJib7zAlGs0GlhTeJ6H/GazefDgQVwjwNw2VABf9IJFlhtYkqCM53naDtoK80F4gUUEmkBFwxl+tK4AeWFd0kQGA/cjsvXwry8CedHbfgRTrl6vY3MhCVkLYAEi4Rn4kNWHlMf6QnPHWF+AHRoNHX0gLxKNLRuVyQsbKlq1EXi9c9fo7m07thkbEOOj4KOH652y3RgfH2+1WvjSNmIK4wVIIV/7WDsYdrrlhWYNPCEvIMWwEuTFsJQPbTfwfuqxakXuj1RPT529vHjq/JxsUrbt2GasMuLcT/XffcT01hsE7aKxoEAxDQLP86zwAsa1A7I5KpVK3I8YsgzyI3kxSLVjtRX2ey25gWpsFoz7I3F+r4VlP7zR1yz1tUx9fUHWEbKP0NcjARq5SOE4TvL9SJgPXF+gy4aVIC+GpXxUu2G/Bz91fu5YtXLgcOnA4ZL/x51nLy/G+T24zDrNHdwEFZ90AZyS9UWl8ukyB1Awbr66rluv16WK5ghur8gprEGER9h6aJAF+hDGC1nXOI6D2zpR4vJcAgXIiwTi9a1qCv/ezNiP9C10Gk61AuRFSrsnbX/PTl6kdKAM1i3yYrB6d9NaF8/LefaJfj8vh7zoputyW5a8SHXX8nl8qe6e4jlHXqS9z43n/X7vR58977f0jQf4vN+0d17u/CMvMtOl/vcJ8Bm/mem8vDhKXuSlJxkHFei/AuRF/zVmC1QgLwqQF3npScZBBfqvQNe8KN5b7BkxFaACf1Kgu/ct/6keU1SAChRPge540f8lD1ugAlQgpQp0vR9JaRx0iwpQgf4rQF70X2O2QAXyogB5kZeeZBxUoP8KkBf915gtUIG8KEBe5KUnGQcV6L8C5EX/NWYLVCAvCpAXeelJxkEF+q9AfnihnwrZf93itqDfr6HrGI+i1Kcspo2Hd1u0jCd34mnd2rjx8E59qh9pK831oJX/XS14FmnMMPEqyaw8edQCL/7tnYuB/2JKZqsYeeFXsoc54DcSliNP8S44L/DiJVHJdd2ukCFPSA5TOIX5FnixdrJ26eHvGP/WTtaMaOXpz58+MGpkxHGccrn8/vvvy/t48TZNvGPCeAi1jHu8lbfRaADt6DDpKr9BPOfecRw01Gq1yuXy9PS0eLK+vg7jeCK24T8+Rr8dQ3uObw/YhNvlchmv0tBfj0gbrejXBcEIwgnUDcVkBMv01u5JLUMHhCkriEqlIu9AhDVpVFuT70Y80XtkZKRSqUijehmFNBLSlgZ9s9msVCrr6+uwpp9FLs8TlxAcx9GqYpbql7PqWJD2jyU9QsSOvBF6pH3gFZCw4LquUNKPY3RTvV7H66ZRWDwXt7WA/hyEo33T3W10h/imbWJeiKTyYHeROhDxjUYDVRCpP2GHFwYd1k7WjBwMaD2MED9GjB5JEryMRVFH6y6x6YdKyoSXMvqFGpiB+m0a0hAE0mV02q9XWI72Vqf1fgTP2sfz7wN7TprQUsigEW+1e2CKblGnMaAlUyzotKEDopN8dBAa0hqKHQlByktn6Tczw6CRwPeqVMT0qLcPyRTLOhzdrVLG0CTO17uMJe2qNAStpHcAI3gunjiOg17TVaSY5gXUk+6DQWMYiCc6TP3ap0DlAzPFgr+LpTukFXFSZoqURHRgMfzUp5AeNC+gNRghjsqIMTpAq48hpRkhGolNbRDq61daQKx6va5HpHQn7EOarhJo0agFXhgFDAeMWvIRESHMsHD0ANKmoKdRABr63ZA1kTFojOrSBLzSEJFTGmraH6QhS7PZLLePZrO5vr4uyxm4LeUxDFBdEtBHmqvVaobbRnn5aPimjWAKIVOqyJTT8x+mUAUXdCRHt2KIrEcCuAlBxDI6OlD5OJnoYiTEMv4r3PQP+7BgpeIweQHmQSxsCow1p1Zfjx49ZCG9BCZdLsHDmiT8vJAe1RsWyBo/gd2H7gOEFjhoQM/AVjAsEHJYOFofbQoTzyiA4Wh4BW+1EcwEUQ8+a/EN+2F2YBYRyYJCVvjYjIQNA6muRcDkFN/07EVbRgKaSD481/maF3DVsKN3Chhg6HqYlXc16Vfby/JBBj8GLfYXMCV4EpEDlTcydYuynJe3XobxQsIJ6ymMECPq1PEisMu1Frr/9JCF9BIheGF0lZw15olkom/ifE0ZOuIjRrMEgv4wWtSeo66RQBUM5bC+1/poI6hoFMBoQBOoFbi+wFmZyXooCz4M+4gaFY0EwhdSyOZZLkvp1bhRC9oaK8p6+6Vq7777Li4JGRX1R2gimfBc52te4OVsHdcXRitgh7/XMFaRgBvaiE5r5ZGvMw0L6GJ/61J9yOsLfYsk4voFvp2glLEfgcoQxdgvRPACrJHh6F9HwKZ/nsQ5hTIdE1gaYObAJakb4YA27rquXDsU3cJqoTldV3QDtjQEMYbCDEq+f4ZgrVGv1zHne9iPiG/T09PlcrnVasnKwnVdXFsNGwboYo0VTBUBR6vVMnTQH1FYMoGGCF5ISYk3+voFGtKtGCLrkYBZENaDMKiVD8w0LKCLkUAtoYxWUk5Ff1VIGTvrC+PmyKWHvxN2vTOaF6Is9ikQHQmB/fj4uIwJPWT1hXE9bnQaPYeEqKDtG7pD5eiEHgR6KIMXxqSSPoMaYcalC/W8DQwnrHXMASkgQ0SnDR0MN9Y/v6CgNcH4EzsSgnZAVgGBE17bl9CkmLiBKvIxehjI16NEhO7Toem2dFoqituIRbNVd5+uiHTE/RGUgUuSo3tNp8ELw3MIjoTe1wRmags6rWOU0AJH3eDuj0Cj6IQxNKGUXl9g7Sd7MwwgrX7E+gJ3sPQEE42wLRSxDGdEXylj1PUHpXtLn8VqGfdocVcINrFNFVfFGR2dTqM6dJDmhDXG9lUiMnQTl2RloWPEd4uhgw7HSAc2qictHCiVSrJwwG3RQM2lPKCA73lpN1BMIwRMPC2aVAycEmK5Xq+Ptw9DQK2V4YwhBT4Cx8hBQrskmeh6vdDTswAC6lvFgaM3LNPQR9o1eAEPe0tYWF/01jBrUYGhKOCfyUNxI6ONkhcZ7Ti63aMC5EWPwrWrkRfB6snuWpas+r/G1iC4MnOHrYDePenuk9u37MSe+4e86Fk6VqQChVOAvChclzNgKtCzAuRFz9KxIhUonALkReG6nAFTgZ4VyAMv5LZzxC13rU5E4d6unEcYtHLrGz/s1b/Y0Y3G/w2F1oFpKtCDAuTFn0Szzos/mU6Q0ryAGfICUjAxSAUs8GLtZO0PL/7U+Of/PTh+rSj3t/ATQxn6RqZMklqtJvn6J3H4nZz8aFJXx48FoWDHwvhRnX7Ki9gUazotvxoWlwJbNx7Ds7q6Kn/tFhEOfsiofxYJ/+Ge/NmCLFhWV1fL5bK44f8bGSNkmGKCCiRXwA4v1k6wODBgAAAUEElEQVTWrv76DP4F/r2ZnnhISyLs7xrkPrkuo3+LjbQU8O9HUED/7YYuLLNRuCDzNvrOfEyDQCH2I9KQP5w4Duj1BQz6o5Dw9RJJe5t8oNACFfA8zxovtJqBvAgcvkYm5oNMJCAA08AoL43qyaPd6FjYKIBWtBGdNsr7WzfcjhOOJlTg46Hi80KXFN/0nyfoQJimAr0pMDheBM5GIxMj3ph4KCZokKU4aBLGi46FYVa0azQaevb6Be1o0HC7Iy+MP1gy/BEHoEnH653Y2og+2LD4A2EOFehNgYzxAkHKD371RQTgA2WQCCtszM+OvOhocOi8CHw4ENxmggokVGBwvAhczBuZHb+QdbTybW88uEUX0OnAwkbrBj50dX860GC3vDAIlXw/EucBU/5YmEMFYipghxfGzZE/vPhT//0RTDDxTB4xIJlh1zuxZMBM1jMccBEjKIzIOxbWLnV7vTOw9W55IeWjL7jG34/I7RvcSzKcgSxMUIGeFbDAC9wWMRJ+n2QEy74aVwpk0kom7iwYYx28CHtSiNxERHU0rf9OEUDRheGSvp2pOaLTHVs33AZTjHwdDi46iAP+ENBovV6HQdzZdV3XMB4YMgRhggokUcACL5I0z7paAePypz7FNBVIgwLkxTB7Qe+YjGXCMN1i21QgRAHyIkSYQWX3e/ugt3v6Pqt+zvWgYmU7mVeAvMh8FzIAKjAwBciLgUnNhqhA5hUgLzLfhQyACgxMga558R4PKkAFiqpA17x4lQcVoAJFVaBrXgxs5cOGqAAVSJsC5EXaeoT+UIH0KkBepLdv6BkVSJsC5EXaeoT+UIH0KkBepLdv6BkVSJsCXfBibW3t9OnTaQuA/lABKjAwBU6fPr22trblOxxfzqcZL7300uLi4v/jQQWoQPEUWFxcfOmllwLJEMyLra2t5eXlGo9CKjA5OXnLLbf84Ac/KGT0DLq2vLwcCIutra1QXoRVYH6+Fbh+/frevXt/9rOf7d279/r16/kOltF1qwB50a1iOS9//Phx13W3trZc1z1+/HjOo2V4XSpAXnQpWK6Lv/nmm/fcc8+NGzf+nRc3bty455573nzzzVxHzOC6U4C86E6vHJeWnYjeuy4vL3NXkuMe7yE08qIH0fJZBTsRHR53JVoNpskLjoFPFbhx48ahQ4fOnTtnyHHu3LlDhw7JDsU4xY8FVIC8KGCnB4fs3334dyjBNZlbGAXIi8J0dYxAjd1H4A4lhhkWya0C5EVuu7aHwPQ9EX2vpAdTrJJLBciLXHZr70HJruTjjz/eu3evvlfSu0XWzJEC5EWOOtNSKK7r7tu3T361ZckkzeREAfIiJx1pMYwbN27s3buX90QsSpobU+RFbrrSZiDbt2+3aY628qIAeZGXnrQaB3lhVc78GCMv8tOXFiMhLyyKmSdT5EWeetNaLOSFNSnzZYi8yFd/WoqGvLAkZN7MkBd561Er8ZAXVmTMnxHyIn99aiEi8sKCiHk0QV7ksVcTx0ReJJYwnwbIi3z2a8KoyIuEAua1OnmR155NFBd5kUi+/FYmL/LbtwkiIy8SiJfnquRFnnu359jIi56ly3dF8iLf/dtjdORFj8LlvRp5kfce7ik+8qIn2fJfibzIfx/3ECF50YNoRahCXhShl7uOkbzoWrJiVCAvitHPXUZJXnQpWFGKkxdF6emu4nzkkUe6Ks/CBVGAvChIR3cXJtcX3elVmNLkRWG6uptAyYtu1CpQWfKiQJ0dP1TyIr5WhSpJXhSqu+MG2z9eXL9+fWJiYn5+Pq4rLJcmBciLNPVGanwhL1LTFelyhLxIV3+kxBvyIiUdkTY3yIu09Ugq/BFeVKvV48ePT0xMOI4zNjb2hz/8YWxsTNKbm5viaLVaddpHtVpFTkQt2Y/84he/EFMTExPXr1+XivPz82IKmeLAHXfcMTEx8fHHH4snjuOgrVSIVSQnyIsi9XbsWMGLO+6448qVKzLJx8bGNtvH2NiYXICYn5+Xua2vSlSr1YhaUlIXkMm/srIi9re2tqrtQxLInJ+fl5JiYWVlJXY0LGhNAfLCmpR5MgRe4JsccxhoMObtysqKsAMl9cw3asEsMFGtVnER9MqVK48++ujm5qY2NT8/L5TJk86Zi4W8yFyXDcLhOLzY3NyUPYVsIrBP0ZMcaYMXBho++OAD7DXEmqAB1SVmbFgIjkEMgqA2yIsgVQqfF4cXxvoCmulJjnQYLwLXF4GmkCnLFlzj0PlM91sB8qLfCmfSfhxebG1t4fqFnsNgRMR+RK5KCET81y/m5+elQKApaRc7mkzqm1mnyYvMdl0/HY/JCyGC7CBwYTJwkhvri+j7I9huaFNiwWirnxrQdoAC5EWAKMwSXlAHKmAoQF4YgvDjpwo89NBDFIIK+BUgL/yaMGcr/esLvT3BDRr+lKvfY5e86LfCmbSffl5kUtbsO01eZL8P+xABedEHUfNgkrzIQy9aj4G8sC5pPgySF/noR8tRkBeWBc2LOfIiLz1pNQ7ywqqc+TFGXuSnLy1GQl5YFDNPpsiLPPWmtVjIC2tS5ssQeZGv/rQUDXlhSci8mSEv8tajVuIhL6zImD8j5EX++tRCROSFBRHzaIK8yGOvJo6JvEgsYT4NkBf57NeEUZEXCQXMa3XyIq89mygu8iKRfPmtTF7kt28TRPa1r30tQW1Wza0C5EVuuzZJYFxfJFEvx3XJixx3bu+hkRe9a5frmuRFrru31+DIi16Vy3k98iLnHdxbeORFb7rlvhZ5kfsu7iVA8qIX1QpQh7woQCd3HyJ50b1mhahBXhSim7sNkrzoVrGClCcvCtLR3YVJXnSnV2FKkxeF6epuAiUvulGrQGXJiwJ1dvxQyYv4WhWqJHlRqO6OGyx5EVepgpUjLwrW4fHCJS/i6VS4UuRF4bo8TsDkRRyVCliGvChgp3cOmbzorFEhS5AXhez2TkGTF50UKuh58qKgHR8dNnkRrU9hz5IXdrp+Y2NjNUfHV7/61RxFs7qxsWGnmwtvhbywMATm5uZmZmaWeaRVgZmZmbm5OQs9XXgT5EXSIbCxsTEzM+PxSLcCMzMzXGUkHetbW+RFUg1XV1eXl5fTPVnonbe8vLy6upq0swtfn7xIOgTIi0zQiLxIOtDb9cmLpDIOhhdra2tnz559+eWXp6amfv7zny8sLLz33nuZmKgpcZK8SDrQyQsrCvabF6+99trhbx2+ZefOsYf/42PPPvHUc09/979+75tHDt+++/b7D9z/q1/9KiUTMuVukBdWRjvXF0ll7B8vfv/7349/e/zeg/v+6uUXz15e9P/7n7/+398Yf+je+/Y1Go2UT9ehu0deJB3o7frkRVIZ+8SLRqPxZ3/+Z8+4z/oxYeT81csv3rJzZ71eH/qcTLMD5EXSgU5eWFGwH7xYWVm5+Us3v/h//oeBhrCPtf/7t7fvvv3VV19N84wdrm/khZXRzvVFUhn7wYt99+/78czzYXQIzJ9d+MUXv/jF3/3ud8OdlqltnbxIOtDb9cmLpDJa58XU1NQjT/ynQChEZz7jPvufH38stTN2uI6RF0kHOnlhRUG7vNjc3PwPX/7yqTfqfjScOj93ZPLortHdu0Z3H5k8eqxaOVatGMW+sucrKysrw52Z6WydvLAy2rm+SCqjXV68+uqr3xh/0KDA2cuL1dNTTvvYtmObJBzH2bZjm1Hyvxx/+oWfvBA2YxuNBupKolQqtVqtsPL+/PX19XK57DhOtxX9pgacQ14kHejt+uRFUhnt8uKZyWd+9L+eMygAWMiCQhYaMuGNkif/qXbvffvCpmKj0SiXy+vr6yhQr9e7mvnNZnN8fLwrxKCt4SbIi6QDnbywoqBdXtx/4P6T/1QzKHCsWnEcp3p6SucfOFzyry9e+93rX/jCF/74xz8GTk4/L1qt1vj4eLN9VNqH4ziu63qe12q1SqWSUElu1urliT8HvwHRFcWUOOO6rn9RowvjlnCz2TScCQynq0zywspo5/oiqYx2ebH7jq/M/faM5sLZy4sHDn86b43MU+fnjBz5+Be3/8Xa2lrgXIrmxcjICGasTGP5qNN6fdFoNLA2aTabBw8ebDabsmGRijpdr9extEFaW9bpZrOpnQmMpdtM8iLpQG/XJy+SyjgAXmzbsc2/lAiExdnLi13xwnVdmcaY8DIPMaXlI9AAXggLsKbwPK9er7uuqxmhp7RhsGMrQh9tIWGavEg60MkLKwra5UXgfmTX6O6YvHjtd69v3749Yj8iOwL8179AkGnptg9MUWACCVkOwI4kZPeBbQsWFHp3MzIy0mw2O7ZCXlgZnNaNcH2RVFK7vAi83nlk8qjjOP67p/4tyafXO/fdi3luJPz7ERQw1hcxeaHXFzAlCdlT4GqIZMrqA7dXIlohL5KOy/7UJy+S6mqXF4H3U0+dn5O7p0cmj8o25NT5uV2jux3HMZDR8X6q/s7XM9zghbF9CNuP4HqHNqXTqKgzZW3SaDQiWiEvko7L/tQnL5LqapcXn/1e603z91qCDGP9v2t0t3EVI/r3WvHXF/rqo05jP+J5XqPRwOYCly2QEEBgBaHRAIhoyzptwEuzpuc0r18kHejt+uRFUhnt8sLzvLDfg586P3esWjlwuCS/7zRWFmcvL3b8PXh8XugrDo7jYB2heSHXOIEwXWZkZETysZzBTsRxHFAmohWuL5KOy/7UJy+S6mqdF57n7bt/33OzLxhrh+iP/Huz6KUH1xdJB3q7PnmRVMZ+8EL+nv2//+1PoxmBs/x79mhYeB6f95t0nEt98iKpjv3ghVwd4PNyOlIgfgGuL5IO9HZ98iKpjH3ihed57733Hp/HF58I0SXJi6QDnbywomD/eCETwP+83yf+G5/3Gw2HgLPkhZXRzvVFUhn7zQsZ+3yfQAADuskiL5IO9HZ98iKpjIPhRTdTg2UDFCAvkg508sKKguRFwOxMXxZ5YWW0c32RVEbyIn1wCPCIvEg60Nv1yYukMgovlnmkXgG+bznpWOf72ZMrSF6kHhSfOUheJB/tXF8k1ZD7kYDVf/qyuB9JOtDb9cmLpDKSF+mDQ4BH5EXSgU5eWFGQvAiYnenLIi+sjHauL5LKSF6kDw4BHpEXSQd6uz55kVRG8iJgdqYvi7xIOtDJCysKkhfpg0OAR+SFldHO9UVSGcmLgNmZvizyIulAb9cnL5LKSF6kDw4BHpEXSQc6eWFFwQheyHv95H2lOi3DWZ5wi+dfGg+2DBjyn2fhBR8vvfSSledc4qm8n7cQ9X/95N6oct2c68cDfo32yQsro53ri6QyRvCi3j5k4Oq05ODdpRjZ+onbyPQnXNfFw3X9Z3vIIS+SDoLC1CcvknZ1GC/W19crlYq8y0unMZ/9vJAnbgc+U1sy9VO2S6XShQsXZH0hpmq1mqxW8NYyz/N0FVj2PA/vEyqVSuVyWb8YGR5iIeM4Dl5NpNcXHV+hjDeewSVZVWlr9Xpd1heVyqevlXYcR/sZ5sP09LS8DlpM1et1qasfPo5A+PzOpKP88/rkxedK9Pr/MF7oDYhOYxAH8gIP7A97kYfneVhfYBkvk1AzRSZqmBGBhcw0mZB+XuAtIQIXbHzACyQ05jQO0LqOVJqT9dH650gVf8QHsSAFInzQXNCe6CqQmrzodXSb9cgLU5FuP4fxotFoYBLqNAaxnkX+TONdIbpwGC/0l7awI8yInmACILgqnshUh0G8TlmjwTAiFeWtywgH+IPP9Xq90j7W19eBUYBPKsr+KI4P8gaT8fFxvJNV8xRukBfdjuqw8uRFmDJx88N44bou5ptOYxBrBPgzscCWZba+Goq5h2mmv9WNKY3qerluXLAwJrnxGiFYEKYAE9KodkzmKspLQnYieHt7pVIRirVaLVzTQSCaF7CvDRo+6I2VLua/vsPrnXEHdGQ58iJSnhgnA3nRarXK5XKr1ZK5hzS4EPjFKKN/fHxc5pLexuuKXfEi0EhMXoB3unXwQjJlFRD2CmVUlIXGu+++K1IIQKenp2VdEMGLjj4YddGikSAvYozlzkXIi84aRZcI5IXegOi0HsSB6wvMxrB9uF5vY6qErS/CjKAV8cfAB66S+r+l9eLFiKVUKvlfoYwycqmiVqthgTA9Pe26Lm424/oI9ke4/AEjSGj/jdhRxkiQF9HDOOZZ8iKmUKHFAnmBlbZMsMCJ5+eFvp8qswWXFfTMj7++CDOi51jE9U5cU9RTF3MVCXm7kuw7xDLi1WXkZoqc0lc9jeup4EXYK539zKrX62H3X0AN8iJ0BHdzgrzoRq2gsn5eyHdpxJ1UGcQytfSuG4PeX0Cfis8L40qENoL7qeVyuVKpAEyYYDIt4Z4fAQIRKQCyGBcU9G5I01ADK4IXHX2At7izq2/94iyvdwaN3F7yyIteVNN1/LzQw5TplCjA9YUetD2nyYuepfusInmREiJEu0FeJB3o7frkRVIZyYvoiZqSs+RF0oFOXlhRkLxICRGi3SAvrIx2ri+SykheRE/UlJwlL5IO9HZ98iKpjORFSogQ7QZ5kXSgkxdWFBRevMxjsArUujzICyujneuLpDIKL/6VR7oVIC+SDvR2ffIiqYzcj0RvBFJylrxIOtDJCysKkhcpIUK0G+SFldHO9UVSGcmL6ImakrPkRdKB3q5PXiSVkbxICRGi3SAvkg508sKKghcvXlxaWooerDw7dAWWlpYuXrxopceLbITrCwu9f+LEiaHPBzoQrcCJEycs9HThTZAXFobA1atXX+SRbgWuXr1qoacLb4K8KPwQoABUILYC5EVsqViQChReAfKi8EOAAlCB2AqQF7GlYkEqUHgFyIvCDwEKQAViK0BexJaKBalA4RX4/wz/0CdZSTXyAAAAAElFTkSuQmCC;" parent="1" vertex="1">
                    <mxGeometry x="150" y="2590" width="357" height="384" as="geometry"/>
                </mxCell>
                <mxCell id="15" value="" style="shape=image;verticalLabelPosition=bottom;labelBackgroundColor=default;verticalAlign=top;aspect=fixed;imageAspect=0;image=https://upload.wikimedia.org/wikipedia/commons/d/d0/Aggregation-Composition3.png;" parent="1" vertex="1">
                    <mxGeometry x="550" y="2620" width="353.39" height="50" as="geometry"/>
                </mxCell>
                <mxCell id="16" value="" style="shape=image;verticalLabelPosition=bottom;labelBackgroundColor=default;verticalAlign=top;aspect=fixed;imageAspect=0;image=data:image/png,iVBORw0KGgoAAAANSUhEUgAAAoUAAACLCAYAAAAXvOONAAAgAElEQVR4Ae2de5RVV33H7WO12q6u1fYPta1ZMlMrkqmIxLw0BDUjmoCJDiZaEA0EDRgNGB95iBBFBqOATcAHEGJATEA0AWoCtQRskNEYGWMyaYyTJmSiRrFGsahjsf11ffY5+9xzz7135txzz7lzJ/Pda925c849+/Xdv/37ffdvP84zTEEICAEhIASEgBAQAkJgzCPwjDGPgAAQAkJACAgBISAEhIAQMJFCCYEQEAJCQAgIASEgBISASKFkQAgIASEgBISAEBACQsBECiUEQkAICAEhIASEgBAQAiKFkgEhIASEgBAQAkJACAgBEymUEAgBISAEhIAQEAJCQAiIFEoGhIAQEAJCQAgIASEgBEBAu48lB0JACAgBISAEhIAQEAIihZIBISAEhIAQEAJCQAgIAXkKJQNCQAgIASEgBISAEBACmj6WDAgBISAEhIAQEAJCQAiAgNYUSg6EgBAQAkJACAgBISAEGiCFT263uW3tNm7YT7cdNrOjO+bZuLZ5tu3JkUe9lcoy8mgEJQgwCdqqVcrUSDnS1if1cwfX2YrdRxspUqFxB+/faAs6JwX9saPbDg0Wml39id/b7cq24t76ox7NGfuK9BooWz21ydxGrnwx3Zm8rqcQ9T7bJGzKi9VrK7ArK3vLb8euDq/E9sT0VcweTb+5P/Zk4t97u228s1kxPMO4c3c00L+P9dnONYttlu+DbZOsc85i23AwmWZQt4bySlSpuMtkWYdvl+LKopSbhUB2T+GxXtu8ZrWtij6LrYvO1rU4do/f99qASGGz2jNzPmnJUeYMmhwxbX3SPZdUjk2uzLDZDdi2We02rvMq27yvxw4d7Ldjw8Zp8gOZyUXe2FdJL3PZ6sGwgTZKksDkdT3FqPfZpmCTLNTw5GMoUjju/C1WixYeXjkhdGTkRwqP9ay26R3tNm7ybFu6dZcdOthjh3ZvsaVzgkFa58peK43Rqshfsvotc50s6/Dt0jJFV0EyI5CdFFZkObTABMY31hEr4jfvRiuVpXm1HjqndORo6DRa6de09Un3XFI5tlJNKcvQfa/VSltfefLGvkp6TSE+DbRRkgQmr+sDdBQ8PTxWtUjhrLnzbHzbDNv8SJVqnui1FR0TrKtrRvmsVSOewieCGbPx87fbwIlknoPWv4kZsgm26A4/TKsif8loLXM9msraMqCN+oI0nxQ+2Gubr5hpE/EqdpxuXUu2W//xBI4njtqhGxZa5+Rgenpi50Jbsbs/NtpKPB+7HHx4l624dIadysiNPCZPs1mJPCJS2Ntja+ef7qYTxp8505bu6LNjyY7NtMDKIcry4Dqb0tZuSw+UxoK+OG5UOmWd9fk0G6iXHe8fuhxkOlxZfcGO9tjaS6cFbTB5pi29Y8AG3PR+bDqGZzOU99gdi8sVrivXXltEW8zfZfHJlODZZbbfQ5ei/LVIXPJ+8tpVPW29PU58x6algqUS4cDGG+aeXbbozAlOlmdtDfwTaWTQfPyH+23bkpmhvE6yzkvX2aE4SHjZe9bZgumBnNJnpvOMX4bh0ilfxhFNTdF+6xdbF+VrazdkfNH6Hjvq5ZH6+XIk6+Hvh+Xz/XXuDUH8Y72l6eqJXcts28O+EePgxf4PyxlNHyfSD/prov61sCfZNHWLZe/+rZWeL9vBAdu/ct6QbWEnjlnfjmVDY5rMN0w/vtQmUxuVtXligD0cHk5PTbAIf1fGPls7BT282i3xiYrtng2JlcfGT/unaTefkNNZJTydrn84IFHl5fAR/Hd2Ujj31u22oqPdqk0hDx5cZuM7um3brYmlTJlJ4aAdupa+tdB2PuXLnvg+0Wdrp0+zWWt6Qu99FaIVtl1p6nmCnTp9oa3tqVAEtjaybeEzyelpp+O8/avxTKKIweWg9UdyPcFOnb/R+o4ny1qlXdKW3Qatf3e3zQ11UaAz+m3b3PgygTC/W3ts5+Xouwl26pzQ65sqH1/e/qAujj9Ql1CnHuu1DXG7tyMdp6gK19P4ZpNJ4QQb3zHJZq3cbvsP9tjOG2Y7YjL+2p4S4RvstbXTJzhX/IodB+zQwQO2bWXwXLkbvkqrPLLFTWFPnNNt29w02i7bfPXMgPRdvjeaUgsIA2WZYNOv3mL7yWN58Fznmpirn07RidKcaUFZdtmGy2e49Epl6bfN57fbuCUHSnWgaG5U2m5TPtMXFLSRekXlmGGL1jM94csxwebeFiqO6JmhympmT+21ReFUx9rdTHNstEXTZ9jc+YyeY6Qwa3lDBVsaGQfEI1jHEyOAdsz2XN5u43y7pCx/VbIXLU8olb/iubT1TorV4IAdPrjRFrS12/TlYN9rA/AfZxyRoWl25dYDbrpoD96JlDIYxJ9qnZ2TbPrlG20n/WH94mAaqmuLW3JBUQbv7bYpbROs6+ot7hnaa4GTyWXBusGn+u1QWL5xl210U1eHnxg0OzFg2+ZjsKbZAiczpX5U5tWoVQ93P16+Uh+Z+4GrrHPybPPyU1aeJH7+2qXXXiIlFelXqX8t7NPWzeftv2ulF5YN3eTbYv/Wqyrawuyo7bxsko3r8P2wVOYyTH1+/juXNoqRQFfe2HUaPJL6iLJFJLncs9b3mak2jsEsz2RpN+L5Mnms9m23FXMm2fjOaW4QXRgp3DFgfTdMtcop5IDAjV/ZGw6AY/hlJYWDB2wpg92k7vftXvXbExdP+AZt/xIGlSWZ2r9jddDH26bZ2gfDRAZ7bcWUdht/4VW2Gb2NDbh0mvNCLj0YDsjSPFO1TGZ9nwnSiuzhytl26vx5bt9ANICpmJFIWXYzhzkkL+hfoS7qmGadDEqitaMBNtjlzg9gl3fZ5jsYaKfNJ4g/pXOaTZy+2Dbs7rH9O7qtC3s39yq7snOSzbohtJ9J7CIbEtNRNbB6ut9uMilst66yRcB+pNVth0LvxcDWmTauY5nt99523ycOLLPxbTNt85HaTdK3aYad2tlth8ucFqU82PBCCAhDsixm/TfPLPNyOeXC5pgnwojhV/8mniuVxZW5LU54PBEqKdtG6hWkPzMxJUJHmRSNpNKW1T3XkajT8R6ncOKkMHt5A5KM8vXBGZnOadbZNjWm5AKFumB30NBpy19B9sJMkveT12nr7ctc/p1U5CVjOX1T+eqltDLoje2U5bEBUSSbJYPlpslmbY9IoivXwxtt+uRptupeL+hB+UrK1ezY7oU2rm2qrejxzwQ1OraPfjTBIkMSGv1kPaqXLxwAJfrE4IFlzjitKjV5OXxcVSUX7TZc/f3UeMkw1VG3ylJEU+3x9HzZxieMe9DvZkf933ma2mbahocTCbuBQAzTxM/BZaNtVJKJoLyl63Rtjb7AOG6PvPXOUz9lmnV2tMemN4M2nnJDOJjN2G5BmabZikhGY0SxbTjDW4lVEtJa08euXe9n9qake13cwR5b2hF4SgPdUMLPk+MymUhmWO36ie02q63dZt3Kqvm0IaFLju61pZ2TrCLvI4GDI7rv2qEkiy63E/224fxJFjky0jxTrZhP7XKD3pKjI3howHlU22NlS7RL2rLXSn8HU/2VpHDc+RutPz6bkTYfT1qndNuh2Oxj/804PNptbrydQkI/fk1JaQVyMZxsVgPw6XWvyaQwIdQVRjBcjD1nte1hsW78s7vbptOwGXaIBY1dIm3BdRWXf9jJA+9bOLWSMBSu+UMhj6Yowg4cn0J2U8eRx6eReh21nfPLlXmlCKYtaw2vpkGI457CRsrLqDPmabCjbopg1q273FRV1H5uF6BXzGnL7wl9ySPosQjatHS//DptvX1qye+EIufnpLFMRklcJ2Uwit+TeDCRbkBM8Eb22kBM0ZXHSihr74WttuCe6SxG516uE/lF6fr7ZeUL2nJckqSG/WZI749Pr2wast1WlKVfDdck9qGHOU3dosrE/0mmF8tzmLIcWt5u4067yjbH9ZL7P/Akx0l5PMfg/0bbyPcVX15/nR6PYLnGYtsTDridjlq+y3Ze3m7RIM55zWLTzJnabYgy9aTZhZ7EqhLNIUlhKOORfsbXxNRxuJQn6Isev5LHNNJNldlVvxNiU1+8KvJXNfXguagOoY3Bg3b4SPlAL4qe5pno4dI/waAuQaL5OSROpfoN3y5BquVlD+SuSvonehK7zNOm78teno8fQI5bXt6Rg/ZOco/QxsWcFz7Vsf7dZFIY64gh8uUdNBQKRg81PnFmX6vxBo8dtf57cR1vtBVX+PVapbyDPEsEopROkH8w5ZsUuNJTkfBFAhUaS29ow6marq1+BNlIvXptFe7vKK94Ofz/acta+7mg43pMGilvYLSixd5OsQQeQmdUQ4wccYwMe+1yJbGu1XbJ++XXtdMvr7fHM/kdxC8pR2+Ya48qh5PBiBR6kuSzTBrh4322IdzFSJ+Y2DnbLSHo8+vLXLywvSIZScijT9t9h795j1EyP/9s1fuJuP7ZcPotEykcrv7h6L+EfR118+Ur+66jLcswCPOtoZecvkqsmS3L1nsxMrdRSX+VewrrwCNsp2DwGgyUWOYxcOvsaLo16A+lAXSFnJZhEqth2f3Q4CaMs3s6jaxUYBXLJ/x3SFJolphCDryk3vsZ6IYYnmGZSjJWmV/VO2G8hjyFPuETg3bsSJ+bFt68ZlnpeKlIXgatb32wjMrJGmvlr9hoO+/309AklOYZn2HpO8Aj1ubRT8EAsoRLUs+EDw5TdidfbaXZwCj50GFQsm010vcRhsknaSt8tIr2dj+E/SbC1z+t79YkhVkb6om9diXrEZ3inmSd58+wBUs22tol5bvNyglDXAgCoQxGZ/H/48/wf6XwuumSjnCdl/OClaaXqz2fTLH2dWVelc+mLWvt54LRYoIUZm2H+Aizd7WNDxWCMzhuUXs4ReXXW4Z4RqPisgqW179W2yXvl1+nrXdZxrGLIH5JOQ5BClPKYIWx9bmVGVd/02zwiT7buXVZacNJW3xqrhwj1r65Bdx+kFJKBt988JtIYQmVGpiXt1ECt1LslP812kYxEuPK66/raGsL+p3zCh7dZXPbQu+J21gyz3YeDaeY/TpfapbEJnnta192P/TMF0gK3QAzvgY6SeziU8h+YHp/UNhAN3j8GvAUhoP/yOvusSj7HrT917I5bIv1OQdfUpeUE7nxZ86w6XMW24qt3W5Kt0SYwkQHB6yP426iDSftlpz2tTTPxMoY4FGNFAbtWNJ7SRlOV3Y/C+WXiJWyDmU3sjPJ9P2T6fKpZWcr2tslm8zb56XvFiOFoTKJPEj1NNAx23lZu42bssz2sNA+FgKhLCmBQEhK0yjRo+E0WLBJIjHNFj3EZo1gDUbZCNHdC9YVuWkZb3RdvEbqVXv6+Oht82xiZ7ftP5a2rGE5qpAF33GDdZeNlJcKh9NHSw5YH9PS3sg8ssWmY4h62IEYW19oacvvp48r2+7wGgYDntT65/x12nrHGzn+f1KRVzGW7vH0MlhhbH12ZcbV30x8P3UgWAPqca0YpAwxfeenj73BrpVf1fs1iFEa708yveS1r2LF/ST2ddTNp1n2nUyvVlsm74eEKbl2uCztoS6SBq+OejhMSvorkB1/XUc6eNBY2nH+FutjHajfTBIO4lYc7HE7d5ObxBhkR17givYJ61x2f4gyhYdHR+lVhSzsr8llCtGzVX5PksJQzpmtcQPe2CkQFSQhGTfKZ7h//Hr1KkuRfNTjB2wpMz2X7aq++9iR13abuylx8kXYJhWk0KfL94ljtn/5VBvXVqkPo8dSPJN5+jhl2QPvc7XpY44Iis+CJftIWIuU+YgURq3e0D8tRgrNgjVUlQvkB3u6bUrH6bb0QGIHSlT9UKC8sfP3WYzbxXS0V6KeMCQWntqgHV7JDqxSBx9688O0xILzQBGOX97tBN1voPDFyF4vj0liowm7+9jOH5LPtGXtX08dkxtNwl3WMVLVSHmps1O8HQttwfz48RDBVHhXF5uJuu1wbDFx2vIHCmaqrQ1H/Q7fKhtlAsXvSaFZ2nr79ir/Tksk0stgOlI4YDsvn2YTI4MSlsotMI/t3K4ghcNvxrhyb9iPyox5rNZV77cCKayjbrHqlP5N25ZJUhiuS0suWCdhd1bdJOsKjyQq5RX/L5SNyCtSRz1cW5T0VzkprCMdihOu5V1w2YTSulJ2Vc9vtyldM21KTE+60iflIHntq5i4X3Wjid9FGieZPn7iO9AHU23pvvj0aPDQ0X3L3A7mzvWxTV5ViJ1Lo2udrV0SOwXC66Z4PavETRSn9mV42kDV3ecnjtr+a9G302xVr3dUlMtfoKeS693Mgg1hJcI0cNti65xcsk2+QP2bmAULSGGaZ3y8su9je+3KjspNXxxTxkaQWp7CtGX3TpSkRxMyWnWjSayPUM7U+VTRg6X4sf7jKi9PYZkMxC5ajhSaP5qkzW8fP2Db1gRHdVTteFFlIGV4i3y8YDs65yJNnMzJ8iWhCIRsmjsOJDgeJ3bEyw6/DtAsKsuQR9JEBbCAsEBAKztvlFZUvrT1ql6OtW6dWUzZeNyGK6t/bvLs4JidfVtiU+4lEtVQeYHEeQXBYoKVdqWGHgTOzIsfQ8TzvlzDld8fLdO50B05EBypM8nmzufssVL5gzYuXUfpD1fvUnPG/gs9mV3dtrPsSJqYB8U9nV4G05FCM7zBwVEOq4NjlvZtt1XuOIVY21dThv5IkFRH0iTrUUmIAjBGghRWwT5t3WItWPq3SnoJQhM9m7wf5euPsupxU/qzOA+NUw9qbgQixUpSGB3bkqqNSvorSQpTp0MxvAcKY++Ps/IeRJbdRJvjQhSSGCSvPVjJ+yf6bfOs+FEruwydxXEjZZ5HHz/57fUBZ9VduNhWuDdnldbajZ++uhzvasQu9DCxCz862iUiGTE8w7hT5i9LvI0rfGPX1t7oOLNkMbkeuOMq6wS72BtNOFZmkVvKNMHmxm1KKAcR0XpwnYs7frp/G9Eu28A5vh2TbGLci/bkLpvb0W7jpy+2Vf6otjULXdxo93GaZ6pVoOLImNJxcbRVVNakDKctOxsZt84O9Vh4/BbH0XVMSEUKLXU+VfpYtfZ2GFSSwsBmVNGFNTB7ut5uPVII0omDmllnsSA8NHfIhjgePwg4PLhzX78dc8qhdGSEJwyHnthrSy/0h1fPsxX7YoTQZ1TlQOW1+wbKzyT0z3qFG03r+R/C76z1InpZXBRllQOD05b1WF/pwOTwAPH97uT9GImqyJPDj1O2g6tuaHwT023BouPqh31XO3y7GtaDD2+PtRuHjve78/yGJIWUKW29XfnL/wzcscy6wsNQHclNGkH/eEoZTEsKSXZgX3dsLWHY9g/GPebVlWG1A56Xbu2tcnh1FUVYtX4jQQoxugnsAaXKYc0VdfNtkviuSK9qXWsQ40S+/nD8vnhzJPILLhttoxiJceWNXZNBolzuMP5kW7uC+IFZYjov3BVcsa43iU3y2te12v2yvjApeFHBvjS7j8NEjw/Y/vXx9wn7jVaJA9h5vBop9Esl/DR5mGyg/2P4hXGDtehVNjmWLQXyFU58P9ljG66YbdPDw5mDQ+a7bWdZPyVOIAclohUeTu/fmcwGkiVb7PCTR4NzXOMk/ciBshczVH3hQppnEkX3l7wT3L8/nRdGrO3Z5XYHl8paKcPuYP00Zefw6uhw7HYLDq8+kHr3cbp8KstH3Sra21VYpNC3e/I7R1KYTFrXQkAICAEhIARiCDjyWTldGntC/44VBMIjacrW5o+VurdwPUUKW7hxVDQhIASEwGhEgDdknDp9Xdm6YY5MOcTGiMR64tFYP5W5DgSY/j1zhq0tnRPtIrt9Am2xMzHrSFKPFoeASGFx2CplISAEhMDYRCBcBxZ/5WjwitDkGruxCc+YqjXT+Lya06/njr3Sc+h9AmMKpZaprEhhyzSFCiIEhIAQePogcOzB7bZ0zjT3fns2nLFhZMPByt3ET58aqyY1EXDruWdbp1uXzfr0mbZofZW1oTUT0A/NQkCksFlIKx8hIASEgBAQAkJACLQwAiKFLdw4KpoQEAJCQAgIASEgBJqFgEhhs5BWPkJACAgBISAEhIAQaGEERApbuHFUNCEgBISAEBACQkAINAsBkcJmIa18hIAQEAJCQAgIASHQwgiIFLZw46hoQkAICAEhIASEgBBoFgIihc1CWvkIASEgBISAEBACQqCFERApbOHGUdGEgBAQAkJACAgBIdAsBEQKm4W08hECQkAICAEhIASEQAsjIFLYwo2jogkBISAEhIAQEAJCoFkIiBQ2C2nlIwSEgBAQAkJACAiBFkZApLCFG0dFEwJCQAgIASEgBIRAsxAQKWwW0spHCAgBISAEhIAQEAItjIBIYQs3joomBISAEBACQkAICIFmISBS2CyklY8QEAJCQAgIASEgBFoYAZHCFm4cFU0ICAEhIASEgBAQAs1CQKSwWUgrHyEgBISAEBACQkAItDACIoUt3DgqmhAQAkJACAgBISAEmoWASGGzkFY+QkAICAEhIASEgBBoYQREClu4cVQ0ISAEhIAQEAJCQAg0CwGRwmYhrXyEgBAQAkJACAgBIdDCCIgUtnDjqGhCQAgIASEgBISAEGgWAiKFzUJa+QgBISAEhIAQEAJCoIURyEwKTznlFNOnGAwWL17cwiIztos2Y8YMyX1BfX/evHljW7havPboJen8YnQ+uCoIgVZAoCFSePfdd9ujjz6qT44YfO5znzORwlboGtXLACm88847JfM5yjw65Atf+IKJFFaXuVa5i15CP0nn52vzsKMiha0i5SpHQ6TwP//zP4Vgzgjs2LFDpDBnTPNMDlL43e9+N88klZaZ/eu//qtIYYtLAqQQ/aSQLwLYUZHCfDFVatkRECnMjl0hMUUKC4E1t0RFCnODsiwhkcIyOFryQqSwmGYRKSwGV6WaDQGRwmy4FRZLpLAwaHNJOEkKH3/8cfviF79o11xzTfT5yEc+Yp/5zGfsnnvusWPHjuWSbyOJ/PKXv3TlOHHiRCPJZI77+9//3o4fP27/9V//VTMNkcKa0LTMD2lJ4RNPPGG33npr1B/oG0uXLrU1a9bYgQMH7Be/+EXmOiFL9957r0tr37599tRTT2VOq1UiihS2SkuoHCBQCCn89a9/bf/+7/9uX/va1+y///u/y5D++c9/bj09PXbHHXeU3a91MTg4aDfffLOhaJpt1Mjv0KFDTpFRPhQSCo37//d//1eryA3dFylsCL7CIydJIbI8Z84cmzhxos2fP9993v72t9s//dM/2WWXXebkPNkHCi9kIoNdu3bZ3r177ac//Wnil+ZcQozBaePGjTUzFCmsCU3L/JCWFH7729+22bNn2z/+4z9GfYK+QZ/g82//9m9ukJClYtiD9773vXbRRRe5qeyhBhpZ0h+JOCKFI4G68qyFQCGk8Mc//rG9613vcorhhz/8YVneDz74oH3wgx+0888/v+x+rQsM6ute9zrndUEhNDP89re/tdWrV9vy5ctdtoxKWRB/9OhRRxCLKMtIkML//d//tV/96le2f/9+a8bo+3/+53/sW9/6lv3gBz8wMObafxeBaZ5pViOFkL9FixY5Q4dH7LHHHrOvfOUrdsEFF7h+gGfDB7D+yU9+4up+5MgRF4cBBp/f/OY3zpsGFqTBgn5kLj4Y4n/uYUgefvhho6+BH4FBC/2FgQvewf7+fmMQNnfuXLv88svtm9/8pjFgo625D1l75JFHXF7kSf8iPfKtJuMYYH6j3MT1AyPy53n/TZoM4siL+nLd3d1tZ599tkufcibDWCCF4AUWvb29DXnLktg167oeUnjJJZfYu9/9biffyCSyc9ddd9lLX/pSW7JkicOBvoKs8o2dQK7BCBlHnpA17vM7AbkZGBiwl7zkJXbddde5NPwAnTyQS2SewY+XTeIhlz/72c9cn6HfkE880B9Il7g/+tGPnC5K/s6MAHFJx/c3rzeJT5r0HV/WePzh/hcpHA4h/d5MBEacFHpDhkFCQWAw6WC+4/3ud79zI0I6K50PQxM3kr5jYlBRBHxQECgGPvwfDxgz0sRokh/5eENLpyYOv3vlxBTgN77xDfcMI+AJEybY17/+dWcUSQtjShkIxKEecYMZzzvN/yNBCikzxAWFDZHp6+tLU9TMz4A7g4JPfOITTgmjcO+77z5nADIn2qSItUgh3otk2Lp1q73lLW+xtWvXup/AmUERHrMVK1bYJz/5SbfBApnjtwceeMA+//nPOy/7pz71KWf4mJrGWCGTPAORvuWWW1zcj370o/bpT3/atRdyiNxBtr/85S/bv/zLvxjT2BD917zmNQ5vPO7EP3jwoJvyhojRBpQFmUbOt2zZYh//+MfdNwSGQP/A4JIvU4B8SB9DiuzTZyk3MrR9+3aXJs+QD8adb7ynGHMGVfTVZBgLpBBdR7uyy/o73/lOEoKWv66HFL7zne+0973vfWV1QlboDwsWLHCycvjwYTd4QvY++9nPOvmDVEGakZNVq1bZunXr3ECVQQy/3X777fZ3f/d3Lg2morEV2IY9e/Y4uUSWN2zY4PqM1+30OfoRcg2Z3LZtW0QciU/cG264wQ1cKAeDJ082IYF42v/5n//ZyTV9mn5Kf0SOkW0G0sg9/YuBWr1BpLBexPR8kQiMKCmERDGCZGoLg8I6FDrt5s2b7fvf/74jWXQ+DNWTTz5pKBEMV9z7CMG47bbbnGHEaNKJ6eQoXz78j7EkoJTw4NCpIV8oGAgJRpc8P/axjzlFxO5SyCflo1zkieFDQT33uc91z/EMyoIy+dEh3/fff7/t3r07syex2aSQOmK4WQN31llnudGwJ7koRnCAWCfJOHhi5CAj1Jtvrn2gLeLX/I+S5jtOCiEWkI0rr7zStSPt7ZW5T4tv7vGhvCMZ6iGFEF2m0agbWCIbr3/9623atGl27bXXuimwM88809avX+/kG2P27Gc/217xilfYBx1MMH4AACAASURBVD7wATf9/OIXv9itx4KgYTwgepD3D33oQ87InXHGGc4jA5HHuwhRPO2001w+eDDpG7Trq1/9arv++uudwfvwhz9s48ePd1N7K1eudL+96EUvct9XXXWVM7ivfOUrjf/BG9l/29veZtyjLu94xztsypQptmzZMudxpC8wVUi9IA70o6lTp9qb3/xm1xfo39SbPOjfyYEa7dkMUuhlEDnCoFMO5JQ6InfIcTU5pz/45+NyTjzSJC7f8fhcx/uGf9aTQsi771u+DHG5Rl7IkzT53fdJ0qH8Pl/y4Fl+93UgDv/zbJ6hHlKIjLznPe9xg28/AMd7jLeYARTyCgFD1pET5AtP4ve+9z0nR2984xtdH+C3c8891w2k0BubNm1ypJDpY/Qs/YKBDeleeumlrl8g//Q7+gN2Y+HChfaqV73KpYdHnz7HQA1cIXnnnHOOXXzxxU6eZ86caV1dXU7mwZbBDTuDPclFxvG8Y5/Qm1dffbUbSCPv9JcsA2qRwjylVGk1isCIkkIUG8qRTnn66ac7Y0SnpYO/4Q1vcJ5BFMpJJ53kFAYK4a1vfasbRVJxlCNrlTCkjLzxJKIAMIBMX6AYUBBXXHGFU5Ck9bKXvcz9jqeK0SFeFda5vPzlL3eGGuOFN5BRKOm9//3vd8qGjsu0N3mRNgqMsmCcvSL4j//4DzeNiHJCKWcJzSaFKD6ILd4LsGGEzqicQL3AHOKAdwsvU9zQMEKHWDOKptxc+4CR55o2JnhSz704KaT9IDooYqbpWcOJdzaZF15a2tgTfJ9Ps7/rIYUMXjAgyCT1ASdIHEYbI84HA4m8QJzw+rW3t7s24DewxgOHoWLABKmEQEL0+I0P/yO/eFswgkwT038YzPhnmMZjsT/yCcGD2L32ta9103MYRrB9znOe48g5fYS2gpRieOkDGN+//du/tYceeigi5gyQMKTkDymcNGmSqweeF/JlwES9brzxRicHPE8/57dqoRmkkOlISAdkHW8R8sagEQyQO8pIeRk0+oD8IrMMGiG01IsZBQKkDVLCOXN8s9SEwRWeKQabO3fudB5d+gZyS1qeFEJG6FMQGto+SZRpKzxPpEkZ6TMEykp/RR8xWGWQi2zxO+u48T4TB3lAP+YZ6iGFrLNl8IIM8GFNIYOCtrY2J0/Uw5NCBhHIO/fQ1ehVvIXICsQLD19nZ6f7HyKNrNEfkDUwRh9D3nieOjPIf/7zn+90Eu2FHUDX8ztx0N033XST09GUi/6ATPA7fYw+B6aQWJwAXifyO30BXUmZKBs2gbzQWVl1vkhhnlKqtBpFoCVI4d///d87g8kUFcqNA1KnT5/ulDNG6nnPe57ryBglDBUGDmOFskbJMgpE6aIomJ740pe+5IgNxg3FCjFkSgCyg4eE6QuuUcQoZ9YsMh1GGngaMRaQVbyYnhQyGoeUdHR0uCkD8sdQMCKGWBKYqsMgo8Q9Gaq3gZpNCsEAJXneeefZC17wAkdy8d5RN7BGubMGiG+IOwoMLDCcTAkyomeaCGLCiB4iSZthENho5A0T2KB8UeJxUsiGIzxaeJ74pj0wbChejyHKGcUPqcIojGSohxRCQsANUoaRY50tXjuMIeSOz4UXXmhvetObnJxCCidPnuyIm68jHglwRc7BEpmEMECiMHTIPgMa2hBSiLxiVOMGivwZvHhSiKeQctGOfDCi//AP/+D6BMaZPOhjtD8EiPWAGHTaxZebPsRSA8oMKUQ2MKa+fTjgm/pCskiD5yCFtUIzSCFEEM8TmIMTBh3dgq6BuIMLugDZgyRA+iCLntzgFcJbCsmBBKBf8O5C9CEeDJ4g2wxKGXTiKQN7rtl960kh7XXqqac6Uk1epIknir4I/hA9SBCEhfh4p9Az9D3aBsLOb6TL/2zcoI2QBUgV5I32oi/RF/MK9ZJCZB3y5D/IADqUekKw6AfIPrJCYIAKfhBldBABPGg32oW28KSQexA8+gADeXDysolHfNy4cU5fMOBhYMaAFz3FIIYpXgZmlIE4eCspB4QevQ/Zo4yQbAZpEEXKQaAPIQe0m/cUIk/YLtLLEkQKs6CmOEUh0BKkkJEfo2VPAlifgXcEYxMnhZA2jBvGhs7O7xg31p5gBHHfo4yZQmMNCUqR51EITEFD+DB+KCOUKwGFilKBFGF4WSOC0oD0oRg8KeRZSCm7TMmX/HgOY4DSg7igYFDgxM2qIJpNCsEchYbRwmjjhWDEjgIHVzxOKGjWzaDkUaooVIgiipiROPEhwhguMARblPJXv/rViJxg9Hmeto2TQkbkEAcMKCNyvGsYRYwaRpfy0ZYYTfL2yrmoDjFcuvWQQrw1kBDIBqQQYotxA1sMEB+8T9Qfg8d9ZBU594H1huTJcxBujD99g7VTeDuQb9L0pJBrCFs8gDv3PSmkrfHyESCFGKUXvvCFrq25x+DJk0LkmvJD+pAHX268URhkDCf9gSk5vCgYdgLy0GqkkIEO2DHtDYGG+IEd+NJWyDmEBDlm8AJZhiwye8EgCO8f9Zo1a5YjgFyDCQNN+glYsRQCkkH/QF+gp8APYu9J4cknn+y8eXgU8TCCKes+kXuwZyoSzxe4MrBAd0ECwRwdRploDwajtB06jP6DrqJe5Evb+L7mGiSHP/WQQsqLHDIg8B/Kjt70uhE9zACG2QICsgNhxmNLHB/o9xB36pkkhbQXOh9y7GWTfkQb0yfIE5zRLcg0g1fINMQRPQexg5Siw2l3ZAFdA+mnrZk1iq8TBG/6D+kQlzSpJw6KrEGkMCtyilcEAiNCCiFvKGeUJCMzDApTMD5AjBh9oRTjpJCRO4qTTsiaELx7KFCMHWSB+6SLEkYx8MG74RUEChdSSPreeKE0ICxMYaD8MeJ4wDB2/DYUKSQNvA18UNyM0jG+jYRmk0LKinLDCKEQvTJGUUFkaB+miMEQTyKGlRE6JBqiwnQkASLDiBriwu9pSSHKFM8uuNGeyAT5YljJFyOAZ4bfSXukAxghlz5g0PBwJjeagAHGA3nCq4HHD7lnmhxsMfZ88G4j05AO5JW1edTfB0gFgxZ+QzbwhGM0eR4SAzHEKHpSiOxTnnhohBRCSulrbBLBy+PLjYcXAkSbe1KIcfX9qlVJIQafQQaB/s01hAqCR6A90AMQKogenlvaFgLGAIg6M/BDJhlA4b1GVr1HHIzwnrPsAlmmfzBYZAbBk0K8YXjO/QAHGWLAgHyQJt5LZit8nhAYvLZ4pygzZBu5glBCsCA9EDYGdRBH9BnlQD58uVzlGvxTDykE1+RGk2T2kEIG9egYAiSN/gHRgpATkCcGTdSNqf8kKWQKHuzA2MsmA03W7CKXfBjQQvKwE2ADYWetLjqLNmVAhm6hr0GmIXy0K/2QpUs4CrznHZlAHuhTnhTyv9ebrtB1/hEprBMwPV4oAoWQQjoLBpERmVdcvhYoQBQGa588KUSppiWFdHzIF8oDbwlTAygTAsqEa4wwRpMPCoGOjlHGUEMKIRt0cpQyCgQDhmLFW4B3EQXOCBQlMhQpJE+ex6gw/YDihkw2ElqBFIIno3PW+uGZgpBAmiEskEIMnZ8GhajHA0YKT2CSFIIxHg7vvYDIgHGSFJIWxow2huSjhPESYGTxwI50qEYK8YpwH7njw5QicsM9phTx3iB7kF9kHQypF5hA4DBsPAPOrFnF+GKoMEYQABbhMxUPmQE3nsMbxO/IO1OREAjktRYpBEv6mPcKp/UUYpQx2pBCyAnlQsbpa8gG6aUhhRBLvFv0X/p9MmCsIT1FBnCnr9L/CXi0wZ/pQL95jTZC9pBTdBVyzDUkgTrwoX0g5hA4rvHy+YD3EU+iJ57oQmQ3TgohHZAUHyA7LK2gjdBXrLsDX58f3kgGReAPKaTMEC5fZvoF8eiv3Ie0IJMMNuJeZ59f1u+iSSFeawY59HfwZYkPco0Hj/rgIEiSQogc9UW3MDCCDNP/0Mf0EWSXQTuyCubILqSQ2SmwgTzyOzIBCcTbiGOBPgnWeHhpfwY89DcwhsjSz0UKs0qS4rUyAoWQQqYX8SSwFgeFRkfEcEC68DixiQTyk4UUMvJlipJOTcenc/pAx2U6F68XygGFwfpElBleQshKkhRSTpQx00UQRxQDa3ww5hDFJClkTSGECYVA+RlhMlJkXSTGu9E1PK1ACiEoGGiIA0YSAoNng3V/fhoeQ0jbojgJYIsRRTFX8xSi3PFupCGFGDm8hkyzYQyZYmqUbHsZafQ7SQohYnhMwYqBEB/kDSOFHPr1SJBlT8j4DWMEEcAggRkEBbLHcRsQAowP36TL1BeeCEgI/QdSAPYQFfLDcDHwQd5ZQwuZiAf6AO2Jx4XykB5lIyDDEHOMLgMkAsYS48xAwF9D4JFzSCdGFUOM14wlFgz8uMYAxz0qlAPiS5/AI4OHjDqiH5KhFUkheKJnqDuEmvqhw/BwIZ/UOwspBAc2snlPIel6bzh9DVIIKWEjCb+h11ivSZ6eFCIbfsqSZRboV18+4tLXWPOJFyqvkJYUMt2KbELOhgroXj/45jn6CHVCxtC7yDqEDA8qU8cEBqzoa/BD9tAV6BacDJB7lg7RP5ghAiv6Dd5T+hzp0e8gzrQhaUEG8QxzD+8s/ZHn6NeQVJZEMJAgbfoaz0LOKSdyTX9DprEvWYM8hVmRU7wiECiEFKLs6CR0JIgS6z38KBbjhLFhWgqDhDcPg4RS8wEjidJDuWBA8I6gLL1HEIXA6JGO7kfLxMWYkY83unRiDBkGEIWDAoFIotj9tAqjURQKcTC0lI0pOtY4QvxQABBEAmQJRYvioDyMWvlQVrxoKKJGQyuQQogDnlgIGZ4dpnIgABhIlD2kDyWKFwulyu8oeAwbGIIzawLBjtE6xBlFC5GsRQoxOChY4iI/TOcxXc0aTtb7gH0rhCQpROaoHzIb/1DvJPnx/QKiDYmjvhgf5Jp0MC5MV2Ik8C7htYCMe4PDc+QFucOTAuZ4bcGUQQ39BaLC4CYeaEPyYjDD75BT/wz9gnJCgMCeALHjOfomwT8DwaNMGHsGAH4AhHFmMEV/8USHMlMejCf36KeQldFECiHJzGog5wwyaRf0ArJMP6VuWUihl2l0Hn2NPsVAmTW46EW88PQj8qRvIS8QFn6vRgppO56nbXjeD1TYAIMc5hXSkkLkCPnyg4xa+YMfZWVAGQ/ICmSM+jAIxZPqA7KExw8i7HU4+YGBly/IM7LpZRHdQf+grRgg+bWJyDUzHXgA6VP0SfqS7xs+T2QdUs4UNXH9khnyp29RTz8Y8nHq+RYprActPVs0AoWQQl9oOgqdCM8eSo1OyYjbTznSKTEedEq/8YO4dHiMDMqC0Rok0Hvm+J37KNM4kfR5kh7KE+8NipJpN4gbgfJgZBk9eoXB9BgeQUaOkEjioHQwdOTNb14pYbghQRgFFAXGlPjUjZE59xoNI0EKwQylhwHEKNEWEHnWVkLsICCQZjyFkGxIBe3IPUbtYAZJBAMMGe3KtCbx8QRAtPkf0ojXAxyJhyImPwwthpdBhMcapY6HkKNQMBBeZhrFt9H4SVLYaHo+vieFGPKxGJrhKaTv0le91wk9gmcJ+fWGHuLLIBDCDdlAXlm3jG5AjzGoxcPLYJI4eF255wMkjL4AMSHQt+jTzGCgc+hnLDPhg8eVD9PN9Df0FANlP/3JoAwvFwNgPFToIgZkvsz0HQIkhnSY9qS/UU4GtpQZXZpXSEsK88pvrKQjUjhWWnp01LNQUjg6IMheSogLxoGFzkyfefKZPUVzBgTl28yAB4rRLh5UT77wOGCc8Iri3cEziuFmWgcPEKNkRvkQOwwShB+i7gOePsgkxo5v0uZ5dmhCzpkOxpiRnzeukEdvsCHleGDZcIQxbJVQFCmEgODNY1PJWAzNIIV4jBi0IIME5JApeT6+77KelWvvmeYZ4kAUkWUGj94DRhz6AgMkHyBtTOP6jSsMGvG6suaPwRKkEQ8spBMPOANMyGrSWwYeEFimTiGevjz01WSZyZsy4SljupXBFZ59BhrkmVcQKcwLyfJ0RArL8dDVyCIgUtgA/ihhpnqYakWJ5xFGwlOYR7nzSgMjhoeWKSSm2ZjuwUvcKqEoUujX9mHwx2JoBikci7jmWWeRwjzRLKUlUljCQv+NPAIihQ20AVMzeLEgMH59SwPJuahjnRQydc06Is4HY30dnhgIU6uEokgh9WN6sZXq2kzMRQqbiXa2vEQKs+E2XCyRwuEQ0u/NRECksAG0MeCQwTwN+VgnhUzXMfXGOkM2VTBd1kqhSFLYSvVsdllECpuNeP35iRTWj1maGCKFaVDSM81CQKSwWUinzGesk0I/fcwmHr8ZKCV0TXlMpLAYmEUKi8E1z1RFCvNEs5SWSGEJC/038giIFI58G5SVYKyTwjIwWvACUohxZAeoPvlhwM70+C7eFmz6MV8kkcJiRECksBhclWo2BBoihezIYzfeUB/O4OKcwHo/HBPBKfRZPpxVyHEMQ33Y2ZclbeLUWxf/POdgDYUVOwbZjYjyVWhNBCCFyA6bjPTJDwOOeREpbE2Z96USKfRI5PstUpgvnkqtMQQaIoUcl8Cr5ob6cFwJR4vU+8FIoISyfDjzDs/DUB9Oqc+SNkfP1FsX/zyEbyisOKzV17uxZlXsohDQ9HExyGr6uBhc80wVfcnZibw+T5/8MOCEhVNOOSXPplJaQiAzAg2RQkY4CvkioOnjfPHMOzWRwrwRDdITKSwG1zxThRRyQH2WwbTi1HZwcDi5SGGekqq0GkFApLAR9AqIK1JYAKg5JilSmCOYsaRECmNgtOi/EDv0k0K+CGj6OF88lVpjCIgUNoZf7rFFCnOHNNcERQpzhTNKTKQwgqJl/xEpLKZpRAqLwVWpZkNApDAbboXFEiksDNpcEhYpzAXGikRECisgabkbIoXFNIlIYTG4KtVsCIgUZsOtsFjDkULeH8zmnbPPPtt9/+xnP8v1/aaFVexpkrBIYTENmYYUclA87/PlvdgKzUdApLAYzEUKi8FVqWZDQKQwG26FxapFCgcGBtxROOedd549//nPt2c+85n2vOc9zy644AK7/vrr3fuBW/Gw58KAGqGERQqLAX44UvjYY4/Zpk2b7JJLLrEFCxbYtm3bHEHksHOF5iAgUlgMziKFxeCqVLMhIFKYDbfCYsVJIQbv17/+tTsPb/78+XbyySfbn//5n9sf/dEf2TOe8Qz7wz/8Q3fd0dFhb33rW+322283PIcKxSEgUlgMtrVI4Y9+9CO3uWH16tV288032549e+zOO++0G2+80Z0Xeccddxjvy1YoHgGRwmIwFiksBlelmg0BkcJsuBUWy5NCyGBPT487F2zSpEn213/91/bHf/zHjgxCCOMfSOKf/dmf2TnnnOPesvHtb3/bvZO5sEKO4YRFCotp/CQp/NWvfmVf/epXjTPc8BBCBh955BH3nnGmkVlGQV/hMHieueeee9wAqpjSKVUQECksRg5ECovBValmQ0CkMBtuhcXC0F100UXOEOL9+6u/+ivnEYyTwFr//+mf/qmddNJJ9va3v90dLvv444/b4OBgLp/f/e53hdV5NCUsUlhMa3lS6AnfF77wBeNtSFu2bHEEkPvJcOLECfvWt77lSCFvC9q9e7cdOXIk+Ziuc0JApDAnIBPJiBQmANHliCIgUjii8FdmDimcPHmyvehFL3Lev1oEcKj7z3rWs+z000+3D3/4w4ZxzePzxS9+0W677bZcP9u3b3drw1gf1gof3tIwXB1f9apX2Xe/+93KhtOdhhCAFL7pTW+yu+66y3izD++Vxvt3/PjxYdP9+c9/bl/+8pftuuuucyTyvvvuGzaOHqgfAZHC+jFLE0OkMA1KeqZZCIgUNgvplPl4UjhhwgTD8zcU+av2m19n2NbWZlOmTLHXve51LfuhfGeddVbLfKZNmzYsVqeeeqpIYUpZrucxSOFpp51m5557rnsnOUSv3k0kkEFevTl37lw7fPiwaycIfKt9KOf9999vDzzwwKj5PPTQQ8a6ZvSTQr4IiBTmi6dSawwBkcLG8Ms9NkqXaeNbbrnFzjjjDPuLv/gLt7HkD/7gD4YliBDC5z73udbZ2emmn1mXqJAvApo+zhdPn1qcFDJl7Jc+pCGGPMMxNd/73vccoXz5y19uEPzXv/71Lfnp6uqyt7zlLTZr1qxR87nsssvsNa95jUihF9gcv0UKcwRTSTWMgEhhwxDmmwCkkGma3//+9/bDH/7QHcHBETR/8id/YrWIIfchhM95znPsmmuusYcffjjfQim1CAGRwgiKXP+BFF588cXuaKXu7m5Hlr7xjW+46eOhiCHHMHF2IUskIC433XRTruVSYiUENH1cwiLP/0QK80RTaTWKgEhhowjmHN+TQpLF4LELc+/evW5aDdKXnFKGDD772c92L6rfv3+/PfXUU45Q5lwsJRciIFJYjChACufNm+dknnWETPm+613vso997GPW19dXM1Nk/vLLL3cewt7eXvvtb39b81n90BgCIoWN4VcrtkhhLWR0fyQQECkcCdSHyDNOCv1jGMlHH33UTQmz5uov//IvneeQw6uZJuOsNhTLb37zm7rXYfk89J0OAZHCdDjV+5QnhT4eu+aZQqY/XH311bZ27Vp3JA2/sxMe0vjBD37QbS45cOCAcZ6hCKFHr5hvkcJicBUpLAZXpZoNAZHCbLgVFqsaKfSZcTD1N7/5TecVedvb3uZIIgvqIY1DTbH5+PpuHAGRwsYxrJZCkhT6Z37605/avffea+x+Z1r52muvtY985CPufzzonFfIekLJv0esuG+RwmKwFSksBlelmg0BkcJsuBUWayhSSKasNeSVd5BBvcmhsGaombBIYU1oGvqhFikkUc4jROa/9rWv2ebNm92xM6w3FBlsCPK6I4sU1g1Zqggihalg0kNNQkCksElAp81mOFKYNh09VwwCIoXF4DoUKfQ5Mm3MUTV8FJqPgEhhMZiLFBaDq1LNhkBDpHDjxo22c+dOfXLEgAOnUb55BTarsNZwtAbWiVGHLIEpRdamcTRPrenFevGBFLK+TXKfb79fsWKF22iSpZ19HLzoEMdqbz/xzwz1zfIMvI+jIdCns/QLsGHzWvKDN3a4IFI4HELZfhcpzIabYhWDQEOk8JJLLrF3v/vd+uSIAW91yIsUYiR/8pOfuI0oWQxIMSI3fKoYqB//+MfGBgLeVIEXiffepiW3EEB2YfMKNN5QQhr79u1zGxf86/pIizSZkuR3drE++eSTbqpyqBJCCnmNoOQ+337PuX3sPs4SkG2Ob7r77rsdWfdrDdPKPDIBSYLo895wiGErblqhXxw9etS+/vWvO5mlnhw/leatLx5XCAhT8DfffHP04TifJ554wj9S81uksCY0Df0gUtgQfIqcMwINkUKEWSFfBPKYPoYMYthoH5T/Kaec4jxm+Za0mNQgdBDZT33qU8bbQ84880z32j/eVMFbIGp5/OKlwcDzHlx2ZvPKQF5NxzfHm/T397t1mRx0fOWVV9rLXvayKI/rr7/ekdGh8tD0cRzp/P5PM31cKzc8fLwn+bWvfa17vePZZ59t73jHOxzRoS8MFxiAQCg5NH758uWOGKYhScOlm/fv1HPTpk2RzL70pS91x/GwESdNPXkGQsj71F/84hdHH16JyRrN4QKkkFcQ0of0yQ8DBr/oaAUh0AoIiBS2QivEypAHKWTNFZ6xRYsWWUdHx6gihXht8NqNGzfObr/9djf1u2fPHjvnnHPsE5/4RCpyi4HDi41Hj4ONCXgDIYaf//znDeO6evVq94YGyABeIX5/wQteYOTFlHOtIFJYC5nG7jdCCiE6eNhp01/+8pd26NAhe/WrX+12KjNAGCowAMBjzLKNF77whe5VewxIjhw5MlS0pv9GOZHrl7zkJY6Y4elmsxn9gsEOMj1cwHsOeebVl1kCpPAVr3iFvfKVr9QnRwwYxIgUZpFIxSkCAZHCIlBtIM08SCFTTEwtcXzHm9/85lFFCpkGXLNmjTM+npzh4ViwYIHzinAEyXABDC+88ELnFfFeP6beIAoY0DvvvNOldemll0YeFn7HM7lq1So3FVkrD5HCWsg0dr8RUghZ4QDr73znO86TzJmF1113nfMApyFLyMiSJUvsfe97n82ZM8fWr1+fyiPdWI3ri009NmzYYJMmTYp2XTM9/v73v9+9ySWNpw+iu3LlSuM4qywBnG+99VY3iGIgpU8+GKDTRAqzSKTiFIGASGERqDaQZh6kEBLF5oof/OAHbhp2NE0fU2YMNFN5EDUfOJsOw5/G+DF1zpRg3EvE+Y5MFbM5CsJ8xRVXGJsb4oF30fop5vj9+P8ihXE08vu/EVJIuyEzkEEC3sIvfelL9jd/8zduKUKaUjIdyoCEb59OmnjNegZC98lPftLOO++8MsKK5+8973mP83APVxaWTLz3ve+1k08+2fBOMYV8/vnnuzXHYDZcgBSinxTyRUBrCvPFU6k1hoBIYWP45R47D1LoC8XBv3g9RhMpfOCBBxz5Y+o7vk4KDx6vPWN6N23AA4Sx27p1q1tfiPG87777nBHkPblMN8YD91hnONRr1UQK44jl939WUsjg54ILLrClS5dG53ay8QLi/8xnPtMNDtKUkl25eN4YiMTlLk3cZjzDYAnP/8yZM8uyY83wwoULU5E1ppt5CwwDrl27drkNXFyzFpN+NdzmGpHCMuhzuxApzA1KJZQDAiKFOYCYZxJjnRRCyPBmQODixhkvCTt+IQ9pAl5CFnATh7WFTCcyvQhhIA3uk2Y8vPOd73SvVHvwwQfjt8v+FyksgyO3i6ykEDL3hje8wXkKWTZBoI1ZIvCsZz3L7SjPrZAjmBDrHvFsv/GNbywrxY033ugGS+yyHy6w1pjXA/p+AAFm6hKvIeso8a4PFUQKh0In+28ihdmxU8z8FFWs1wAABs9JREFUERApzB/ThlIc66SQ6TsW/V900UVl08cf+tCHHFFkGni4gHcQUsCaQdaJgSlTg/78up6eHjd9jHcpHjC47D7FANcKIoW1kGnsflZSSK6skcPD+9hjj7lCsKGCY1ZOOukkw1v+dAhMad9www1uY0m8PnjQWVbB0UrDBfoFxA/vajzgfRxO7nlepDCOWn7/ixTmh6VSahwBkcLGMcw1hbFOCllQf9NNN7kpbww6U3q8zm/u3Ll2zTXXuNedMc2FcePoGh8gfTzP5hTOmsOAQRYgkRhDdiHz4fdHH33UTTeSJt4TPJKkx9Ec5D3U5gSRQo94vt+NkMKPfvSjjhhxfh+B9XccYQTZgSCyox35QI7wjnGNV7EVj52phSrrZL/yla+4dbEMWpBZ7jF1TL/Au12tXpBJ3y+YPuZIGzzoBJZX0IfOPfdcRzjlKayFfrH3RQqLxVep14eASGF9eBX+9FgnhRg7jNdZZ51l69atc8fTfO5znzMON96yZYszhrwHl2NIbrnllmjRPeenYTQ5gBovEQQP0sf9+Ke3t9eRQ9Lq6upyOzoxkkwls7bqnnvuKfNQJhtcpDCJSD7XjZBCv0yAzSZ33XWXO5uTdYbbtm1zB55DBllbi/eYZQXICNOtn/70p/MpfJNS4ZxOP1XOsU3IOd5tppAhiBBAjlairj7wGzoFAsxRPQyWWCaBZxGs2OnPZhOu/W5/Hzf5LU9hEpF8rkUK88FRqeSDgEhhPjjmlkqepBAvCWf9sabOT53mVtACE8J7hzHj0Gm8fZC1j3/84243NdmyDgoCsGzZsuhVXxxZw1QaU4gYRkjlGWecUfFh0wmeQ6apWWfIAdfgM3XqVEc0IRBDBZHCodDJ/lsjpJAz+ziuhWOI8A6y9IDd5RAlvGGQJdaQfvazn3WeQ4wwsoLMjKbwi1/8wpFZzgm8+OKLrbOz09iV/9BDD7lq8HYT+gmbtHwAB46h4Rnw2L17t8MJIshAi3MOGSD59Zg+XrVvkcJqqDR+T6SwcQyVQn4IiBTmh2UuKeVJCnMp0AglwrQx01547pgOHG5nZJZi4hl5/PHH3evwmEaLb2yplZ5IYS1kGrvfCCn0OeMBZBPF97//fX/rafeNjCKrLItgGjntqx/jQEAOOZ4GjzwDxzRyT3yRwjiK+f0vUpgflkqpcQREChvHMNcURApzhTP3xEQKc4fUJZgHKSymZErVIyBS6JHI91ukMF88lVpjCIgUNoZf7rFFCnOHNNcERQpzhTNKTKQwgqJl/xEpLKZpRAqLwVWpZkNApDAbboXFEiksDNpcEhYpzAXGikRECisgabkbIoXFNIlIYTG4KtVsCIgUZsOtsFgihYVBm0vCIoW5wFiRiEhhBSQtd0OksJgmESksBlelmg0BkcJsuBUWS6SwMGhzSVikMBcYKxIRKayApOVuiBQW0yQihcXgqlSzISBSmA23wmKJFBYGbS4JixTmAmNFIiKFFZC03A2RwmKaRKSwGFyVajYERAqz4VZYLJHCwqDNJWGRwlxgrEhEpLACkpa7IVJYTJOIFBaDq1LNhoBIYTbcCoslUlgYtLkkLFKYC4wViYgUVkDScjdECotpEpHCYnBVqtkQaIgU3n333e49srxLVp98MOCVbihfhdZEAFLI69Ik7/nIu8eRV7bNmzevNRtdpXIIoJfQT77N9J1PH8COnnLKKZIyIdASCDREChFkffLHQKSwJfpG1UJACiXz+cs8mIoUVhW5lrmJXpLsFyP74KogBFoBgcyksBUKrzIIASEgBISAEBACQkAI5IOASGE+OCoVISAEhIAQEAJCQAiMagRECkd186nwQkAICAEhIASEgBDIBwGRwnxwVCpCQAgIASEgBISAEBjVCIgUjurmU+GFgBAQAkJACAgBIZAPAiKF+eCoVISAEBACQkAICAEhMKoRECkc1c2nwgsBISAEhIAQEAJCIB8ERArzwVGpCAEhIASEgBAQAkJgVCMgUjiqm0+FFwJCQAgIASEgBIRAPgiIFOaDo1IRAkJACAgBISAEhMCoRkCkcFQ3nwovBISAEBACQkAICIF8EBApzAdHpSIEhIAQEAJCQAgIgVGNgEjhqG4+FV4ICAEhIASEgBAQAvkgIFKYD45KRQgIASEgBISAEBACoxoBkcJR3XwqvBAQAkJACAgBISAE8kFApDAfHJWKEBACQkAICAEhIARGNQIihaO6+VR4ISAEhIAQEAJCQAjkg4BIYT44KhUhIASEgBAQAkJACIxqBEQKR3XzqfBCQAgIASEgBISAEMgHAZHCfHBUKkJACAgBISAEhIAQGNUI/D+ZMuvZrkY/gAAAAABJRU5ErkJggg==;" parent="1" vertex="1">
                    <mxGeometry x="87.5" y="2430" width="510.43" height="110" as="geometry"/>
                </mxCell>
                <UserObject label="https://marketplace.visualstudio.com/items?itemName=jebbs.plantuml" link="https://marketplace.visualstudio.com/items?itemName=jebbs.plantuml" id="17">
                    <mxCell style="text;whiteSpace=wrap;html=1;" parent="1" vertex="1">
                        <mxGeometry x="142.71" y="630" width="400" height="40" as="geometry"/>
                    </mxCell>
                </UserObject>
                <mxCell id="18" value="&lt;a href=&quot;https://stackoverflow.com/questions/23722044/object-hierarchy-in-oop&quot;&gt;class - Object Hierarchy in OOP - Stack Overflow&lt;/a&gt;" style="text;whiteSpace=wrap;html=1;" parent="1" vertex="1">
                    <mxGeometry x="150" y="660" width="290" height="40" as="geometry"/>
                </mxCell>
                <UserObject label="https://www.umlet.com/" link="https://www.umlet.com/" id="19">
                    <mxCell style="text;whiteSpace=wrap;html=1;" parent="1" vertex="1">
                        <mxGeometry x="50" y="420" width="160" height="40" as="geometry"/>
                    </mxCell>
                </UserObject>
                <UserObject label="https://github.com/davzoku/UML-study" link="https://github.com/davzoku/UML-study" id="20">
                    <mxCell style="text;whiteSpace=wrap;html=1;" parent="1" vertex="1">
                        <mxGeometry x="40" y="390" width="240" height="40" as="geometry"/>
                    </mxCell>
                </UserObject>
            </root>
        </mxGraphModel>
    </diagram>
</mxfile>